<?xml version="1.0" encoding="utf-8"?>
<!-- Generator: Adobe Illustrator 26.0.1, SVG Export Plug-In . SVG Version: 6.00 Build 0)  -->
<svg version="1.1" id="Layer_1" xmlns="http://www.w3.org/2000/svg" xmlns:xlink="http://www.w3.org/1999/xlink" x="0px" y="0px"
	 viewBox="0 0 600 600" style="enable-background:new 0 0 600 600;" xml:space="preserve">
<style type="text/css">
	.st0{fill:#FFFFFF;}
</style>
<path class="st0" d="M299.7,593.6c-87.1,0-161.7-28-215.5-80.9c-53.9-53-82.4-126.3-82.4-212.1c0-175.8,119.7-294,297.9-294
	c87.1,0,161.7,28,215.5,80.9c53.9,53,82.4,126.3,82.4,212.1C597.5,475.4,477.8,593.6,299.7,593.6 M299.7,33.2
	c-80.1,0-148.1,25.4-196.8,73.4c-48.7,48-74.4,115.1-74.4,194c0,78.5,25.7,145.3,74.4,193.1c48.7,47.9,116.8,73.2,196.8,73.2
	c80.1,0,148.1-25.4,196.8-73.4c48.7-48,74.4-115.1,74.4-194c0-78.5-25.7-145.3-74.4-193.1C447.7,58.5,379.7,33.2,299.7,33.2"/>
<g>
	<path class="st0" d="M456.1,413c-28.7,0-51.9-23.2-51.9-51.9c0-28.7,23.2-51.9,51.9-51.9c28.7,0,51.9,23.2,51.9,51.9
		C508,389.8,484.7,413,456.1,413"/>
	<path class="st0" d="M268.1,163.4c-74.6,0-124.3,49.7-124.3,124.4c0,74.1,50.6,123.9,126.5,123.9c33,0,66-9,88.7-24
		c3-1.7,3.9-3.4,3-6.4L343.5,328c-0.9-3-3.4-4.7-6.4-3.4c-19.3,9-43.7,14.1-65.6,14.1c-36,0-36-27-36-27h137.6c3.9,0,6-1.7,6.4-5.2
		c1.3-6.4,1.7-12.9,1.7-19.3C381.2,209.3,339.2,163.4,268.1,163.4 M235.1,266.7c0-18.9,12.8-31.3,32.1-31.3
		c17.1,0,28.7,12.4,28.7,31.3H235.1z"/>
</g>
</svg>
