<svg version="1.1" id="Layer_1" xmlns="http://www.w3.org/2000/svg" x="0" y="0" viewBox="0 0 600 600" xml:space="preserve"><style>.st0{fill:#fff}</style><path class="st0" d="M299.7 593.6c-87.1 0-161.7-28-215.5-80.9-53.9-53-82.4-126.3-82.4-212.1 0-175.8 119.7-294 297.9-294 87.1 0 161.7 28 215.5 80.9 53.9 53 82.4 126.3 82.4 212.1-.1 175.8-119.8 294-297.9 294m0-560.4c-80.1 0-148.1 25.4-196.8 73.4-48.7 48-74.4 115.1-74.4 194 0 78.5 25.7 145.3 74.4 193.1 48.7 47.9 116.8 73.2 196.8 73.2 80.1 0 148.1-25.4 196.8-73.4 48.7-48 74.4-115.1 74.4-194 0-78.5-25.7-145.3-74.4-193.1-48.8-47.9-116.8-73.2-196.8-73.2"/><path class="st0" d="M456.1 413c-28.7 0-51.9-23.2-51.9-51.9s23.2-51.9 51.9-51.9 51.9 23.2 51.9 51.9-23.3 51.9-51.9 51.9m-188-249.6c-74.6 0-124.3 49.7-124.3 124.4 0 74.1 50.6 123.9 126.5 123.9 33 0 66-9 88.7-24 3-1.7 3.9-3.4 3-6.4L343.5 328c-.9-3-3.4-4.7-6.4-3.4-19.3 9-43.7 14.1-65.6 14.1-36 0-36-27-36-27h137.6c3.9 0 6-1.7 6.4-5.2 1.3-6.4 1.7-12.9 1.7-19.3 0-77.9-42-123.8-113.1-123.8m-33 103.3c0-18.9 12.8-31.3 32.1-31.3 17.1 0 28.7 12.4 28.7 31.3h-60.8z"/></svg>