<svg xmlns="http://www.w3.org/2000/svg" viewBox="0 0 60 60"><path d="M30 59C14 59 1 46 1 30S14 1 30 1s29 13 29 29-13 29-29 29zm0-54C16.2 5 5 16.2 5 30s11.2 25 25 25 25-11.2 25-25S43.8 5 30 5z"/><path d="M30 18.9c-2.4 0-4.3-1.9-4.3-4.3s1.9-4.3 4.3-4.3 4.3 1.9 4.3 4.3c0 2.3-1.9 4.3-4.3 4.3z"/><path d="M43.6 18.9c-.1 0-.2.1-.3.1-1.4.4-8.4 2.4-13.4 2.4-4.6 0-10.9-1.7-13-2.3-.2-.1-.4-.1-.6-.2-1.5-.4-2.5 1.1-2.5 2.5s1.2 2 2.4 2.5l7.4 2.3c.8.3 1 .6 1.1.8.3.8.1 2.4 0 3l-.4 3.5-2.5 13.6v.2c-.2 1.2.7 2.5 2.5 2.5 1.5 0 2.2-1 2.5-2.5 0 0 2.2-12.2 3.3-12.2s3.3 12.2 3.3 12.2c.3 1.4 1 2.5 2.5 2.5 1.7 0 2.7-1.2 2.5-2.5 0-.1 0-.2-.1-.3l-2.5-13.5-.6-3.5c-.3-2-.1-2.7 0-2.9.1-.2.5-.5 1.4-.8l6.9-2.4h.1c1.2-.5 2.5-1.1 2.5-2.5s-1-2.9-2.5-2.5z"/></svg>