<svg xmlns="http://www.w3.org/2000/svg" viewBox="0 0 60 60"><path d="M22.9 20.6v19.5c0 .9 1 1.4 1.7 1l16.3-9.8c.7-.4.7-1.5 0-2l-16.3-9.8c-.7-.3-1.7.2-1.7 1.1zM7.7 7l8.2 9.3c.8 1 2.3.7 2.6-.4l2.9-10.8c.3-1.1-.8-2.3-1.9-2.1L8.4 4.5C7.3 4.6 6.8 6 7.7 7z"/><path d="M30 58.9C14.1 58.9 1.2 46 1.2 30.1c0-8.8 4-17 10.9-22.5 1.3-1 3.2-.8 4.2.5s.8 3.2-.5 4.2c-5.5 4.4-8.6 10.9-8.6 17.8 0 12.6 10.2 22.8 22.8 22.8 12.6 0 22.8-10.2 22.8-22.8S42.6 7.3 30 7.3c-1.7 0-3-1.3-3-3s1.3-3 3-3c15.9 0 28.8 12.9 28.8 28.8S45.9 58.9 30 58.9z"/></svg>