<svg xmlns="http://www.w3.org/2000/svg" viewBox="0 0 60 60"><path d="M22.4 20.9v18.2c0 1.1.9 2 2 2h1c1.1 0 2-.9 2-2V20.9c0-1.1-.9-2-2-2h-1c-1-.1-2 .9-2 2zm11 0v18.2c0 1.1.9 2 2 2h1c1.1 0 2-.9 2-2V20.9c0-1.1-.9-2-2-2h-1c-1-.1-2 .9-2 2zM7.7 7l8.2 9.3c.8 1 2.3.7 2.6-.4l2.9-10.8c.3-1.1-.8-2.3-1.9-2.1L8.4 4.5C7.3 4.6 6.8 6 7.7 7z"/><path d="M30 58.8C14.1 58.8 1.2 45.9 1.2 30c0-8.8 4-17 10.9-22.5 1.3-1 3.2-.8 4.2.5s.8 3.2-.5 4.2C10.3 16.5 7.2 23 7.2 30c0 12.6 10.2 22.8 22.8 22.8 12.6 0 22.8-10.2 22.8-22.8S42.6 7.2 30 7.2c-1.7 0-3-1.3-3-3s1.3-3 3-3c15.9 0 28.8 12.9 28.8 28.8S45.9 58.8 30 58.8z"/></svg>