<svg xmlns="http://www.w3.org/2000/svg" viewBox="0 0 60 60"><path d="M-242 3.6l2.9 33.3h14l3-33.3zm2.9 40.3h14v12.6h-14zm91.1-31.7v35.5c0 1.6 1.7 2.5 3 1.7l29.6-17.8c1.3-.8 1.3-2.7 0-3.4L-145 10.5c-1.3-.8-3 .2-3 1.7zM-42.1 30c-5.2 0-9.4-4.2-9.4-9.4s4.2-9.4 9.4-9.4 9.4 4.2 9.4 9.4c-.1 5.2-4.3 9.4-9.4 9.4m0-25c-8.6 0-15.6 7-15.6 15.6 0 15.6 15.6 34.4 15.6 34.4s15.6-18.8 15.6-34.4c0-8.6-7-15.6-15.6-15.6m-181.6 76.2c.1.1.3.1.4.2 1.2.5 2 1.1 2.3 1.3l7.9 7.9c.3.3.8 1.1 1.3 2.3.1.2.1.3.2.4h-12.2V81.2z"/><path d="M-211 131.3h-42.2V80.7h25.3v16.9h16.9zm100.4-29.9h-6.1v-3.1h6.1v3.1zm-21.4 21.2c-7.5 0-13.6-6.1-13.6-13.6s6.1-13.6 13.6-13.6 13.6 6.1 13.6 13.6-6.1 13.6-13.6 13.6m21.4-30.4h-10.7c-.8-3.1-1.5-6.1-4.6-6.1h-12.2c-3.1 0-3.8 3.1-4.6 6.1h-10.7c-1.7 0-3.1 1.4-3.1 3.1v27.5c0 1.7 1.4 3.1 3.1 3.1h42.8c1.7 0 3.1-1.4 3.1-3.1V95.3c0-1.7-1.4-3.1-3.1-3.1m-31.3 16.9c0 5.5 4.5 9.9 9.9 9.9 5.5 0 9.9-4.5 9.9-9.9 0-5.5-4.5-9.9-9.9-9.9-5.5-.1-9.9 4.4-9.9 9.9M-43.6 84c1.3-1.3 2.4-.9 2.4 1v42c0 1.8-1.1 2.3-2.4 1l-12.2-12.2H-64V96.3h8.1L-43.6 84zm7.5 33.6c-.6 0-1.2-.2-1.7-.7-1-1-1-2.5 0-3.4 4.1-4.1 4.1-10.8 0-14.9-1-1-1-2.5 0-3.4 1-1 2.5-1 3.4 0 6 6 6 15.8 0 21.8-.5.4-1.1.6-1.7.6m8.6 4.6c-.6 0-1.2-.2-1.7-.7-1-1-1-2.5 0-3.4 6.6-6.6 6.6-17.4 0-24.1-1-1-1-2.5 0-3.4 1-1 2.5-1 3.4 0 4.1 4.1 6.4 9.6 6.4 15.5 0 5.8-2.3 11.3-6.4 15.5-.5.4-1.1.6-1.7.6m-197.8 83c-1.3-.2-1.3-3.7-1.3-3.7s3.8-3.7 4.6-8.8c2.2 0 3.6-5.3 1.4-7.2.1-2 2.8-15.5-11.1-15.5s-11.2 13.6-11.1 15.5c-2.2 1.9-.8 7.2 1.4 7.2.8 5 4.6 8.8 4.6 8.8s0 3.5-1.3 3.7c-4.1.7-19.6 7.5-19.6 15h52.2c-.2-7.6-15.6-14.4-19.8-15m82.9-19.3h21.3v3h-21.3v-3zm0 18.2h21.3v3h-21.3v-3zm0-6.1h21.3v3h-21.3v-3zm0-6h21.3v3h-21.3v-3zm27.4 21.3h-33.5v-36.5h33.5v36.5zm1.6-42.7H-150c-2.5 0-4.6 2.1-4.6 4.6v39.6c0 2.5 2.1 4.6 4.6 4.6h36.5c2.5 0 4.6-2.1 4.6-4.6v-39.6c0-2.5-2-4.6-4.5-4.6m71 2.3c13 0 23.6 8.6 23.6 19.2s-10.6 19.2-23.6 19.2c-1.2 0-2.5-.1-3.7-.2-5.1 5.1-11.1 6-17 6.1V216c3.2-1.5 5.9-4.4 5.9-7.6 0-.4 0-.9-.1-1.3-5.3-3.5-8.7-8.9-8.7-14.9 0-10.7 10.6-19.3 23.6-19.3m-179.9 119.4c-2.9 2.9-2.9 5.7-5.7 5.7-2.9 0-5.7-2.9-8.6-5.7-2.9-2.9-5.7-5.7-5.7-8.6s2.9-2.9 5.7-5.7c2.9-2.9-5.7-11.4-8.6-11.4s-8.6 8.6-8.6 8.6c0 5.7 5.9 17.3 11.4 22.8 5.6 5.6 17.1 11.4 22.8 11.4 0 0 8.6-5.7 8.6-8.6s-8.4-11.4-11.3-8.5m67.8 9.2h6.7v3.4h-6.7v-3.4zm-3.3-3.4v13.5h50.6v-13.5h-50.6zm20.2-13.5v-20.2h10.1v20.2h8.4l-13.5 13.5-13.5-13.5h8.5zm334.8 9.4l-19.6-19.8c-1.4-1.4-3.8-1.4-5.2 0-1.4 1.4-1.4 3.8 0 5.2l22.2 22.4c1.4 1.4 3.6 1.4 5 .1l22.4-22.4c1.4-1.4 1.4-3.8 0-5.2-1.4-1.4-3.8-1.4-5.2 0L197.2 294zm-90-12l19.6 19.8c1.4 1.4 3.8 1.4 5.2 0s1.4-3.8 0-5.2l-22.2-22.4c-1.4-1.4-3.6-1.4-5-.1l-22.4 22.4c-1.4 1.4-1.4 3.8 0 5.2 1.4 1.4 3.8 1.4 5.2 0l19.6-19.7zm-69.1 6l-19.8 19.6c-1.4 1.4-1.4 3.8 0 5.2 1.4 1.4 3.8 1.4 5.2 0l22.4-22.2c1.4-1.4 1.4-3.6.1-5l-22.4-22.4c-1.4-1.4-3.8-1.4-5.2 0s-1.4 3.8 0 5.2L38.1 288zm-88.9 0l19.8-19.6c1.4-1.4 1.4-3.8 0-5.2s-3.8-1.4-5.2 0l-22.4 22.2c-1.4 1.4-1.4 3.6-.1 5l22.4 22.4c1.4 1.4 3.8 1.4 5.2 0 1.4-1.4 1.4-3.8 0-5.2L-50.8 288zm28.8 85h-42c-2.8 0-5 2.2-5 5s2.2 5 5 5h42c2.8 0 5-2.2 5-5s-2.2-5-5-5zm-302.6-4.1v18.2c0 1.1.9 2 2 2h1c1.1 0 2-.9 2-2v-18.2c0-1.1-.9-2-2-2h-1c-1-.1-2 .9-2 2zm11 0v18.2c0 1.1.9 2 2 2h1c1.1 0 2-.9 2-2v-18.2c0-1.1-.9-2-2-2h-1c-1-.1-2 .9-2 2zm362 20.4l-29.7-29.7c-2-2-5.1-2-7.1 0s-2 5.1 0 7.1l29.7 29.7c2 2 5.1 2 7.1 0 1.9-2 1.9-5.1 0-7.1z"/><path d="M41.3 359.6l-29.7 29.7c-2 2-2 5.1 0 7.1s5.1 2 7.1 0l29.7-29.7c2-2 2-5.1 0-7.1-2-1.9-5.1-1.9-7.1 0zM-111 373h-42c-2.8 0-5 2.2-5 5s2.2 5 5 5h42c2.8 0 5-2.2 5-5s-2.2-5-5-5z"/><path d="M-137 357v42c0 2.8 2.2 5 5 5s5-2.2 5-5v-42c0-2.8-2.2-5-5-5s-5 2.2-5 5zm-202.3-2l8.2 9.3c.8 1 2.3.7 2.6-.4l2.9-10.8c.3-1.1-.7-2.3-1.9-2.1l-11.1 1.5c-1.1.1-1.6 1.5-.7 2.5z"/><path d="M-317 406.8c-15.9 0-28.8-12.9-28.8-28.8 0-8.8 4-17 10.9-22.5 1.3-1 3.2-.8 4.2.5s.8 3.2-.5 4.2c-5.5 4.4-8.6 10.9-8.6 17.8 0 12.6 10.2 22.8 22.8 22.8 12.6 0 22.8-10.2 22.8-22.8s-10.2-22.8-22.8-22.8c-1.7 0-3-1.3-3-3s1.3-3 3-3c15.9 0 28.8 12.9 28.8 28.8s-12.9 28.8-28.8 28.8zm77.9-38.2v19.5c0 .9 1 1.4 1.7 1l16.3-9.8c.7-.4.7-1.5 0-2l-16.3-9.8c-.7-.3-1.7.2-1.7 1.1zm-15.2-13.6l8.2 9.3c.8 1 2.3.7 2.6-.4l2.9-10.8c.3-1.1-.7-2.3-1.9-2.1l-11.1 1.5c-1.1.1-1.6 1.5-.7 2.5z"/><path d="M-232 406.9c-15.9 0-28.8-12.9-28.8-28.8 0-8.8 4-17 10.9-22.5 1.3-1 3.2-.8 4.2.5s.8 3.2-.5 4.2c-5.5 4.4-8.6 10.9-8.6 17.8 0 12.6 10.2 22.8 22.8 22.8 12.6 0 22.8-10.2 22.8-22.8s-10.2-22.8-22.8-22.8c-1.7 0-3-1.3-3-3s1.3-3 3-3c15.9 0 28.8 12.9 28.8 28.8s-12.9 28.8-28.8 28.8zm86.9 61.1h25.9c1.7 0 2.7-2 1.5-3.3l-12.9-15.4c-.8-1-2.3-1-3.1 0l-12.9 15.4c-1.2 1.3-.2 3.3 1.5 3.3z"/><path d="M-132 492c-15.4 0-28-12.6-28-28s12.6-28 28-28 28 12.6 28 28-12.6 28-28 28zm0-50c-12.1 0-22 9.9-22 22s9.9 22 22 22 22-9.9 22-22-9.9-22-22-22z"/><path d="M-128 461h-8c-1.1 0-2 .9-2 2v14c0 1.1.9 2 2 2h8c1.1 0 2-.9 2-2v-14c0-1.1-.9-2-2-2zM-303.6 52.2l-.8 3.2c-2.4.9-4.3 1.6-5.7 2.1-1.4.5-3.1.7-4.9.7-2.9 0-5.1-.7-6.7-2.1-1.6-1.4-2.4-3.2-2.4-5.3 0-.8.1-1.7.2-2.6.1-.9.3-1.9.6-3l3-10.5c.3-1 .5-2 .7-2.9.2-.9.3-1.7.3-2.5 0-1.3-.3-2.3-.8-2.8-.6-.5-1.6-.8-3.2-.8-.8 0-1.6.1-2.4.4-.8.2-1.5.5-2.1.7l.8-3.2c1.9-.8 3.8-1.5 5.6-2 1.8-.6 3.5-.8 5-.8 2.9 0 5.1.7 6.6 2.1 1.5 1.4 2.3 3.2 2.3 5.4 0 .5-.1 1.3-.2 2.4-.1 1.1-.3 2.2-.6 3.2l-3 10.5c-.2.8-.5 1.8-.6 2.9-.2 1.1-.3 1.9-.3 2.4 0 1.4.3 2.3.9 2.8.6.5 1.7.8 3.2.8.7 0 1.5-.1 2.4-.4 1-.3 1.6-.5 2.1-.7zm.7-43.9c0 1.8-.7 3.4-2.1 4.7-1.4 1.3-3 1.9-5 1.9s-3.6-.6-5-1.9c-1.4-1.3-2.1-2.8-2.1-4.7 0-1.8.7-3.4 2.1-4.7 1.4-1.3 3.1-1.9 5-1.9s3.6.6 5 1.9c1.4 1.3 2.1 2.9 2.1 4.7zm5.3 446.7l-11.4-11.4c-1.1-1.1-3-.5-3.2 1.1l-2 13.4c-.2 1.3.9 2.3 2.1 2.1l13.4-2c1.6-.2 2.2-2.1 1.1-3.2z"/><path d="M-298.1 438.5l-11.4 11.4c-1.6 1.6-1.6 4.1 0 5.7 1.6 1.6 4.1 1.6 5.7 0l11.4-11.4c1.6-1.6 1.6-4.1 0-5.7-1.6-1.6-4.1-1.6-5.7 0zm-28.9 5.1l-11.4 11.4c-1.1 1.1-.5 3 1.1 3.2l13.4 2c1.3.2 2.3-.9 2.1-2.1l-2-13.4c-.2-1.6-2.1-2.2-3.2-1.1z"/><path d="M-342.5 445.1l11.4 11.4c1.6 1.6 4.1 1.6 5.7 0 1.6-1.6 1.6-4.1 0-5.7l-11.4-11.4c-1.6-1.6-4.1-1.6-5.7 0-1.6 1.6-1.6 4.1 0 5.7zm33.5 39.3l11.4-11.4c1.1-1.1.5-3-1.1-3.2l-13.4-2c-1.3-.2-2.3.9-2.1 2.1l2 13.4c.2 1.6 2.1 2.2 3.2 1.1z"/><path d="M-292.5 482.9l-11.4-11.4c-1.6-1.6-4.1-1.6-5.7 0-1.6 1.6-1.6 4.1 0 5.7l11.4 11.4c1.6 1.6 4.1 1.6 5.7 0 1.6-1.6 1.6-4.1 0-5.7zm-45.9-9.9l11.4 11.4c1.1 1.1 3 .5 3.2-1.1l2-13.4c.2-1.3-.9-2.3-2.1-2.1l-13.4 2c-1.6.2-2.2 2.1-1.1 3.2z"/><path d="M-336.9 489.5l11.4-11.4c1.6-1.6 1.6-4.1 0-5.7-1.6-1.6-4.1-1.6-5.7 0l-11.4 11.4c-1.6 1.6-1.6 4.1 0 5.7 1.6 1.6 4.1 1.6 5.7 0zm83.4-34.7l11.4-11.4c1.1-1.1.5-3-1.1-3.2l-13.4-2c-1.3-.2-2.3.9-2.1 2.1l2 13.4c.3 1.6 2.1 2.2 3.2 1.1zm11.3 30.7l-11.4-11.4c-1.1-1.1-3-.5-3.2 1.1l-2 13.4c-.2 1.3.9 2.3 2.1 2.1l13.4-2c1.6-.3 2.2-2.1 1.1-3.2zm30.7-12.3l-11.4 11.4c-1.1 1.1-.5 3 1.1 3.2l13.4 2c1.3.2 2.3-.9 2.1-2.1l-2-13.4c-.3-1.6-2.1-2.2-3.2-1.1zm-11.3-30.7l11.4 11.4c1.1 1.1 3 .5 3.2-1.1l2-13.4c.2-1.3-.9-2.3-2.1-2.1l-13.4 2c-1.6.3-2.2 2.1-1.1 3.2z"/><path d="M-222.3 459l11.4-11.4c1.6-1.6 1.6-4.1 0-5.7-1.6-1.6-4.1-1.6-5.7 0l-11.4 11.4c-1.6 1.6-1.6 4.1 0 5.7 1.6 1.6 4.1 1.6 5.7 0zm-15.7-5.7l-11.4-11.4c-1.6-1.6-4.1-1.6-5.7 0-1.6 1.6-1.6 4.1 0 5.7l11.4 11.4c1.6 1.6 4.1 1.6 5.7 0 1.6-1.6 1.6-4.1 0-5.7zm10 21.4l11.4 11.4c1.6 1.6 4.1 1.6 5.7 0 1.6-1.6 1.6-4.1 0-5.7l-11.4-11.4c-1.6-1.6-4.1-1.6-5.7 0-1.6 1.6-1.6 4.1 0 5.7zm-15.7-5.7l-11.4 11.4c-1.6 1.6-1.6 4.1 0 5.7 1.6 1.6 4.1 1.6 5.7 0l11.4-11.4c1.6-1.6 1.6-4.1 0-5.7-1.6-1.6-4.1-1.6-5.7 0zm192 .7c-1-.8-2.5-.2-2.6 1.1l-.3 4.1c-8.2-1.9-12.9-5.7-12.9-8.8 0-2.3 2.4-4.3 3.9-5.2 1.2-.8 1.5-2.3.7-3.5-.8-1.2-2.3-1.5-3.5-.7-5.1 3.3-6.1 6.9-6.1 9.4 0 6.3 6.9 11.6 17.6 13.9l-.3 4.3c-.1 1.3 1.3 2.1 2.4 1.4l9.5-6.1c.9-.6 1-1.8.2-2.5l-8.6-7.4zm-2.9-10.1c-.4 0-.8-.1-1.2-.2-.3-.2-.6-.4-.8-.6-.2-.3-.4-.6-.5-1-.1-.4-.2-.8-.2-1.2h-2.9c0 .9.1 1.7.4 2.3.3.7.6 1.3 1.1 1.7.5.5 1.1.8 1.8 1.1.7.2 1.5.4 2.3.4.7 0 1.4-.1 2.1-.3.7-.2 1.3-.5 1.8-1s.9-.9 1.2-1.6c.3-.6.5-1.3.5-2.1 0-.9-.2-1.6-.7-2.2-.5-.6-1.1-1-2-1.2.7-.2 1.2-.6 1.6-1.1s.5-1.2.5-1.9-.2-1.3-.5-1.8-.7-1-1.2-1.3c-.5-.4-1-.6-1.6-.8s-1.2-.3-1.8-.3c-.8 0-1.5.1-2.1.4-.6.3-1.2.6-1.6 1.1-.5.5-.8 1-1.1 1.7-.3.6-.4 1.4-.4 2.1h2.9c0-.8.2-1.4.6-1.9.4-.5 1-.8 1.8-.8.6 0 1.1.2 1.5.5.4.3.7.8.7 1.5 0 .4-.1.8-.3 1-.2.3-.5.5-.8.6-.3.1-.7.2-1.1.2h-1.1v2.2h1.2c.4 0 .8.1 1.1.2.3.1.6.4.9.7.2.3.3.7.3 1.3 0 .7-.2 1.3-.7 1.7s-1 .6-1.7.6zm17-.9c.3-.7.4-1.4.4-2.2 0-.6-.1-1.2-.3-1.8s-.5-1.1-.9-1.6-1-.9-1.6-1.1c-.6-.3-1.3-.4-1.9-.4-.7 0-1.4.1-1.9.4-.6.3-1.1.7-1.5 1.3 0-.4.1-.9.2-1.4.1-.5.3-1 .5-1.5s.5-.9.9-1.2c.4-.3.8-.5 1.4-.5.5 0 1 .2 1.3.6.4.4.6.8.7 1.3h2.9c-.1-.7-.3-1.3-.5-1.8-.3-.5-.6-1-1.1-1.3-.4-.4-.9-.6-1.5-.8-.6-.2-1.2-.3-1.8-.3-1.1 0-2 .2-2.8.7-.8.5-1.4 1.1-1.8 1.9s-.8 1.6-1 2.5c-.2.9-.3 1.9-.3 2.8 0 1 .1 1.9.3 2.8.2.9.5 1.8.9 2.5s1 1.3 1.8 1.8 1.7.7 2.8.7c.8 0 1.5-.1 2.2-.4s1.2-.7 1.7-1.2c.3-.5.7-1.1.9-1.8zm-2.8-.9c-.1.3-.3.6-.5.9-.2.3-.4.5-.7.6-.3.2-.6.2-1 .2s-.7-.1-1-.2c-.3-.2-.6-.4-.8-.6-.2-.3-.4-.6-.5-.9-.1-.3-.2-.7-.2-1 0-.4 0-.7.2-1.1.1-.3.3-.6.5-.9.2-.3.5-.5.8-.6.3-.2.7-.2 1.1-.2.4 0 .7.1 1 .2s.5.4.7.6c.2.3.3.6.4.9.1.3.1.7.1 1 0 .4 0 .8-.1 1.1zm5.5 2.6c.5.6 1.1 1 1.8 1.3.7.3 1.4.4 2.1.4.8 0 1.5-.1 2.2-.4.7-.3 1.3-.7 1.8-1.3.5-.6.9-1.4 1.2-2.4.3-1 .4-2.3.4-3.8s-.1-2.7-.4-3.7c-.3-1-.7-1.8-1.2-2.4s-1.1-1-1.8-1.3c-.7-.3-1.4-.4-2.2-.4-.8 0-1.5.1-2.1.4-.7.3-1.3.7-1.8 1.3-.5.6-.9 1.4-1.2 2.4-.3 1-.4 2.2-.4 3.7s.1 2.8.4 3.8c.3 1 .7 1.8 1.2 2.4zm1.5-7.2c0-.4 0-.7.1-1.1 0-.4.1-.8.2-1.2.1-.4.2-.7.4-1 .2-.3.4-.5.7-.7.3-.2.6-.3 1.1-.3s.8.1 1.1.3c.3.2.5.4.7.7.2.3.3.6.4 1 .1.4.2.8.2 1.2 0 .4.1.8.1 1.1v2.5c0 .6-.1 1.2-.3 1.8s-.4 1.1-.7 1.5c-.3.4-.8.6-1.5.6-.6 0-1.1-.2-1.4-.6s-.6-.9-.7-1.5c-.2-.6-.2-1.2-.3-1.8v-1.6c-.1-.2-.1-.5-.1-.9zm13.8 3.4c-1.2-.8-2.7-.4-3.5.7s-.4 2.7.7 3.5c1.4.9 3.9 2.9 3.9 5.2 0 3.9-7.2 8.7-19.3 9.9-1.4.1-2.4 1.4-2.3 2.7.1 1.3 1.2 2.3 2.5 2.3h.2c14-1.3 23.8-7.4 23.8-14.8.1-2.6-1-6.2-6-9.5z"/><path d="M44.7 193.3v-1.9l-3.1.2v.5l.1 1.8v1.2c0 2.3-.2 4.8-.5 7.2 1.1-.3 2.2-.7 3.3-1.1.2-2 .4-4 .4-6.1v-1l-.2-.8zm-31.5 13.3l-8.5-2.5 1.7-1.8c-2.1-2-3.7-4.5-3.7-7.5 0-2.3.9-4.3 2.3-6.1 2.1-2.6 5.1-4.4 8.4-5.8-.3 1.2-.5 2.5-.7 3.7-1.5.7-2.8 1.6-4 2.6-1.4 1.3-2.6 2.8-2.9 4.7-.2 1.3.1 2.5.7 3.6.5.9 1.2 1.8 2 2.5l1.7-1.8 3 8.4zm10.7-26.3c2.1-.3 4.2-.4 6.1-.4 4.5 0 9 .6 13.2 1.8 5.9 1.7 14 5.9 14 13 0 2.3-.9 4.3-2.3 6.1-5.4 6.6-16.9 8.7-25 8.7-2.2 0-4.6-.1-6.8-.5l.4-3c2.1.3 4.3.4 6.4.4 6.8 0 15.9-1.6 21.2-6.2 1.6-1.4 2.9-3.3 3-5.5 0-3.7-3.6-6.3-6.5-7.9-5.3-2.8-11.8-3.8-17.7-3.8-2.2 0-4.7.2-7.2.6.4-1.1.7-2.2 1.2-3.3zM38.1 212c1.2-.2 2.5-.4 3.7-.7-2.1 5.2-6 10.7-11.8 10.7-2.3 0-4.3-.9-6.1-2.3-6.6-5.4-8.7-16.9-8.7-25 0-4.5.6-9 1.8-13.2 1.7-5.9 5.9-14 13-14 3.7 0 6.6 2.3 8.7 5.1l2-1.5 1.5 8.8-7.9-4 2-1.5c-1.5-2-3.7-3.9-6.3-3.9-3.7 0-6.3 3.6-7.9 6.5-2.8 5.3-3.8 11.8-3.8 17.7 0 6.8 1.6 15.9 6.2 21.2 1.4 1.6 3.3 2.9 5.5 3 3.7 0 6.3-3.6 7.9-6.5l.2-.4z" fill-rule="evenodd" clip-rule="evenodd"/><path d="M138 173.6l-5.5-4.8c-.3-.3-.8-.4-1.2-.2-.4.2-.7.6-.7 1.1v1.9l-10.9 1.7c-.6.1-1.1.6-1.1 1.3 0 .6.4 1.2 1.1 1.3l10.9 1.7v1.9c0 .4.3.8.7 1.1.4.2.9.1 1.2-.2l5.5-4.8c.2-.2.4-.5.4-.8 0-.7-.2-1-.4-1.2zm-32.9.9c0-.6-.4-1.2-1.1-1.3l-10.9-1.7v-1.9c0-.4-.3-.8-.7-1.1-.4-.2-.9-.1-1.2.2l-5.5 4.8c-.2.2-.4.5-.4.8s.2.6.4.8l5.5 4.8c.3.3.8.4 1.2.2.4-.2.7-.6.7-1.1v-1.9l10.9-1.7c.6.2 1.1-.3 1.1-.9zm26.7 16.8c-1.3-.2-2.5.3-3.3 1.2-.4-1.6-1.9-2.9-3.7-2.9-1.1 0-2.2.5-2.9 1.3-.5-1.5-1.9-2.6-3.6-2.6-1 0-2 .4-2.6 1.1v-14.3c0-1.9-1.3-3.7-3.3-3.9-2.3-.3-4.3 1.5-4.3 3.8v25.4c0 .5-.7.7-1 .3l-4.4-6.6c-1-1.6-3.3-1.9-5-.7-1.7 1.1-2.3 3.4-1.3 4.9 0 0 12.2 18.5 12.4 18.7 2.2 3.1 5.8 5 9.7 5h4.4c6.6 0 12-5.3 12-11.8v-14.9c.2-2.1-1.2-3.8-3.1-4zM24.5 58.6c-1.4 0-2.5-1.1-2.5-2.5V4.9c0-1.4 1.1-2.5 2.5-2.5S27 3.5 27 4.9v51.2c0 1.4-1.1 2.5-2.5 2.5z"/><path d="M27 15h-5v-1.5h-1.5v-5H27zM16.3 51.5H9.7c-.8 0-1.6-.1-2.3-.3l1.4-4.8c.3.1.6.1.9.1h6.6v5zM2.8 47.7c-.8-1.3-1.3-2.8-1.3-4.4v-5h5v5c0 .6.2 1.2.5 1.7l-4.2 2.7zm3.7-13.6h-5v-8.3h5v8.3zm0-12.4h-5v-5c0-1.6.4-3.1 1.3-4.4L7 15c-.3.5-.5 1.1-.5 1.7v5zm2.3-8.1L7.4 8.8c.7-.2 1.5-.3 2.3-.3h6.7v5H9.7c-.3 0-.6 0-.9.1zM27 51.5h-6.5v-5H22V45h5zm0-10.8h-5v-8.6h5v8.6zm0-12.8h-5v-8.6h5v8.6z"/><path d="M50.3 51.5H22v-43h28.3c4.5 0 8.2 3.7 8.2 8.2v26.6c0 4.5-3.7 8.2-8.2 8.2zm-23.3-5h23.3c1.8 0 3.2-1.4 3.2-3.2V16.7c0-1.8-1.4-3.2-3.2-3.2H27v33zm91.3-41H80.2c-4.5 0-8.2 3.7-8.2 8.2v22.6c0 4.5 3.7 8.2 8.2 8.2h14.1l-.5-5H80.2c-1.8 0-3.2-1.4-3.2-3.2V13.7c0-1.8 1.4-3.2 3.2-3.2h38.1c1.8 0 3.2 1.4 3.2 3.2v22.6c0 1.8-1.4 3.2-3.2 3.2h-.5c.4.8.6 1.8.4 2.7-.2 1-.8 1.8-1.6 2.3h1.7c4.5 0 8.2-3.7 8.2-8.2V13.7c0-4.5-3.7-8.2-8.2-8.2z"/><path d="M107.8 44.5c-.2-.5.1-1 .6-1.1 2.1-.4 4.1-.8 6.2-1.2.7-.1.9-1.1.3-1.5-.5-.4-1-.8-1.6-1.2H96.7l.5 5h10.6z"/><path d="M103.9 46c.3 0 .6.1.7.4 1.8 3.2 3.6 6.4 5.4 9.5.2.3.4.4.7.4.1 0 .3 0 .4-.1.6-.4 1.3-.8 1.9-1.1.4-.2.5-.7.3-1.1-1.9-3.2-3.7-6.3-5.5-9.4-.3-.5 0-1.1.6-1.2 2.1-.4 4.1-.8 6.2-1.2.7-.1.9-1.1.3-1.5-6.1-4.6-12.1-9.1-18.1-13.6-.2-.1-.3-.2-.5-.2-.5 0-.9.4-.8.9l2.4 22.6c.1.5.4.7.8.7.2 0 .5-.1.6-.3 1.3-1.5 2.6-3 3.9-4.6.2-.1.4-.2.7-.2z"/></svg>