<svg xmlns="http://www.w3.org/2000/svg" viewBox="0 0 200 200"><path d="M25 62.5V175h150V62.5H25zM162.5 25h25c6.5-.4 12.1 4.6 12.5 11.1v151.4c.4 6.5-4.6 12.1-11.1 12.5H12.5C6 200.4.4 195.4 0 188.9V37.5C-.4 31 4.6 25.4 11.1 25h26.4V12.5C37.1 6 42.1.4 48.6 0H50c6.5-.4 12.1 4.6 12.5 11.1V25h75V12.5C137.5 5.6 143.1 0 150 0s12.5 5.6 12.5 12.5V25zM150 150h-25v-25h25v25zm-37.5 0h-25v-25h25v25zm37.5-37.5h-25v-25h25v25zm-37.5 0h-25v-25h25v25zM75 150H50v-25h25v25z" fill-rule="evenodd" clip-rule="evenodd"/></svg>