<svg xmlns="http://www.w3.org/2000/svg" viewBox="0 0 60 60"><path d="M8.5 20.8L19.9 9.4c1.1-1.1.5-3-1.1-3.2l-13.4-2c-1.2-.1-2.2.9-2 2.2l2 13.4c.2 1.5 2 2.1 3.1 1zm11.3 30.7L8.4 40.1c-1.1-1.1-3-.5-3.2 1.1l-2 13.4c-.2 1.3.9 2.3 2.1 2.1l13.4-2c1.6-.3 2.2-2.1 1.1-3.2zm30.7-12.3L39.1 50.6c-1.1 1.1-.5 3 1.1 3.2l13.4 2c1.3.2 2.3-.9 2.1-2.1l-2-13.4c-.3-1.6-2.1-2.2-3.2-1.1zM39.2 8.5l11.4 11.4c1.1 1.1 3 .5 3.2-1.1l2-13.4c.2-1.3-.9-2.3-2.1-2.1l-13.4 2c-1.6.3-2.2 2.1-1.1 3.2z"/><path d="M39.7 25l11.4-11.4c1.6-1.6 1.6-4.1 0-5.7-1.6-1.6-4.1-1.6-5.7 0L34 19.3c-1.6 1.6-1.6 4.1 0 5.7 1.6 1.6 4.1 1.6 5.7 0zM24 19.3L12.6 7.9c-1.6-1.6-4.1-1.6-5.7 0-1.6 1.6-1.6 4.1 0 5.7L18.3 25c1.6 1.6 4.1 1.6 5.7 0 1.6-1.6 1.6-4.1 0-5.7zm10 21.4l11.4 11.4c1.6 1.6 4.1 1.6 5.7 0 1.6-1.6 1.6-4.1 0-5.7L39.7 35c-1.6-1.6-4.1-1.6-5.7 0-1.6 1.6-1.6 4.1 0 5.7zM18.3 35L6.9 46.4c-1.6 1.6-1.6 4.1 0 5.7 1.6 1.6 4.1 1.6 5.7 0L24 40.7c1.6-1.6 1.6-4.1 0-5.7-1.6-1.6-4.1-1.6-5.7 0z"/></svg>