<svg xmlns="http://www.w3.org/2000/svg" viewBox="0 0 60 60"><path d="M44.7 28.3v-1.9l-3.1.2v.5l.1 1.8v1.2c0 2.3-.2 4.8-.5 7.2 1.1-.3 2.2-.7 3.3-1.1.2-2 .4-4 .4-6.1v-1l-.2-.8zM13.2 41.6l-8.5-2.5 1.7-1.8c-2.1-2-3.7-4.5-3.7-7.5 0-2.3.9-4.3 2.3-6.1 2.1-2.6 5.1-4.4 8.4-5.8-.3 1.2-.5 2.5-.7 3.7-1.5.7-2.8 1.6-4 2.6-1.4 1.3-2.6 2.8-2.9 4.7-.2 1.3.1 2.5.7 3.6.5.9 1.2 1.8 2 2.5l1.7-1.8 3 8.4zm10.7-26.3c2.1-.3 4.2-.4 6.1-.4 4.5 0 9 .6 13.2 1.8 5.9 1.7 14 5.9 14 13 0 2.3-.9 4.3-2.3 6.1-5.4 6.6-16.9 8.7-25 8.7-2.2 0-4.6-.1-6.8-.5l.4-3c2.1.3 4.3.4 6.4.4 6.8 0 15.9-1.6 21.2-6.2 1.6-1.4 2.9-3.3 3-5.5 0-3.7-3.6-6.3-6.5-7.9-5.2-2.7-11.8-3.8-17.7-3.8-2.2 0-4.7.2-7.2.6.4-1.1.7-2.2 1.2-3.3zM38.1 47c1.2-.2 2.5-.4 3.7-.7C39.7 51.5 35.8 57 30 57c-2.3 0-4.3-.9-6.1-2.3-6.6-5.4-8.7-16.9-8.7-25 0-4.5.6-9 1.8-13.2 1.7-5.9 5.9-14 13-14 3.7 0 6.6 2.3 8.7 5.1l2-1.5 1.5 8.8-7.9-4 2-1.5c-1.5-2-3.7-3.9-6.3-3.9-3.7 0-6.3 3.6-7.9 6.5-2.8 5.3-3.8 11.8-3.8 17.7 0 6.8 1.6 15.9 6.2 21.2 1.4 1.6 3.3 2.9 5.5 3 3.7 0 6.3-3.6 7.9-6.5l.2-.4z" fill-rule="evenodd" clip-rule="evenodd"/></svg>