<svg xmlns="http://www.w3.org/2000/svg" viewBox="0 0 60 60"><path d="M30 3C15.1 3 3 15.1 3 30s12.1 27 27 27 27-12.1 27-27S44.9 3 30 3zm1.8 42.9c-.7.7-1.7 1-2.9 1-1.3 0-2.2-.3-2.9-1-.7-.7-1-1.6-1-2.8 0-1.3.3-2.2 1-2.9.7-.6 1.7-1 2.9-1s2.2.3 2.9 1c.7.7 1 1.6 1 2.8.1 1.3-.3 2.2-1 2.9zm7.4-20.4c-.8 1.2-2.2 2.5-4.3 4-1.4 1.1-2.3 1.9-2.7 2.4-.4.6-.6 1.3-.6 2.2v1.3h-6v-1.7c0-1.4.3-2.7.9-3.8.6-1.1 1.7-2.2 3.4-3.4 1.6-1.1 2.6-2 3.1-2.7.5-.7.8-1.5.8-2.4 0-1-.4-1.7-1.1-2.2-.7-.5-1.7-.8-3-.8-2.3 0-4.8.7-7.7 2.2l-2.5-4.9C23 14 26.5 13 30.3 13c3.1 0 5.5.7 7.4 2.2 1.8 1.5 2.7 3.5 2.7 5.9 0 1.8-.4 3.2-1.2 4.4z"/></svg>