<svg viewBox="0 0 100 100" xmlns="http://www.w3.org/2000/svg"><symbol viewBox="0 0 60 60" id="icon-accessibility"><path d="M30 59C14 59 1 46 1 30S14 1 30 1s29 13 29 29-13 29-29 29zm0-54C16.2 5 5 16.2 5 30s11.2 25 25 25 25-11.2 25-25S43.8 5 30 5z"/><path d="M30 18.9c-2.4 0-4.3-1.9-4.3-4.3s1.9-4.3 4.3-4.3 4.3 1.9 4.3 4.3c0 2.3-1.9 4.3-4.3 4.3z"/><path d="M43.6 18.9c-.1 0-.2.1-.3.1-1.4.4-8.4 2.4-13.4 2.4-4.6 0-10.9-1.7-13-2.3-.2-.1-.4-.1-.6-.2-1.5-.4-2.5 1.1-2.5 2.5s1.2 2 2.4 2.5l7.4 2.3c.8.3 1 .6 1.1.8.3.8.1 2.4 0 3l-.4 3.5-2.5 13.6v.2c-.2 1.2.7 2.5 2.5 2.5 1.5 0 2.2-1 2.5-2.5 0 0 2.2-12.2 3.3-12.2s3.3 12.2 3.3 12.2c.3 1.4 1 2.5 2.5 2.5 1.7 0 2.7-1.2 2.5-2.5 0-.1 0-.2-.1-.3l-2.5-13.5-.6-3.5c-.3-2-.1-2.7 0-2.9.1-.2.5-.5 1.4-.8l6.9-2.4h.1c1.2-.5 2.5-1.1 2.5-2.5s-1-2.9-2.5-2.5z"/></symbol><symbol viewBox="0 0 40 40" id="icon-arrow-back"><path d="M14.3 20.2L28 6.6c1-1 1-2.6 0-3.6s-2.6-1-3.6 0L8.9 18.4c-1 1-1 2.5-.1 3.5l15.5 15.5c1 1 2.6 1 3.6 0s1-2.6 0-3.6L14.3 20.2z"/></symbol><symbol viewBox="0 0 60 60" id="icon-arrow-down"><path d="M30.2 36L10.5 16.2c-1.4-1.4-3.8-1.4-5.2 0s-1.4 3.8 0 5.2l22.2 22.4c1.4 1.4 3.6 1.4 5 .1L55 21.6c1.4-1.4 1.4-3.8 0-5.2-1.4-1.4-3.8-1.4-5.2 0L30.2 36z"/></symbol><symbol viewBox="0 0 60 60" id="icon-arrow-left"><path d="M22.2 30L42 10.4c1.4-1.4 1.4-3.8 0-5.2-1.4-1.4-3.8-1.4-5.2 0L14.4 27.4c-1.4 1.4-1.4 3.6-.1 5l22.4 22.4c1.4 1.4 3.8 1.4 5.2 0 1.4-1.4 1.4-3.8 0-5.2L22.2 30z"/></symbol><symbol viewBox="0 0 60 60" id="icon-arrow-right"><path d="M38.1 30L18.4 49.6c-1.4 1.4-1.4 3.8 0 5.2 1.4 1.4 3.8 1.4 5.2 0L46 32.6c1.4-1.4 1.4-3.6.1-5L23.7 5.2c-1.4-1.4-3.8-1.4-5.2 0s-1.4 3.8 0 5.2L38.1 30z"/></symbol><symbol viewBox="0 0 60 60" id="icon-arrow-up"><path d="M30.2 24l19.6 19.8c1.4 1.4 3.8 1.4 5.2 0 1.4-1.4 1.4-3.8 0-5.2L32.8 16.2c-1.4-1.4-3.6-1.4-5-.1L5.3 38.4c-1.4 1.4-1.4 3.8 0 5.2 1.4 1.4 3.8 1.4 5.2 0L30.2 24z"/></symbol><symbol viewBox="0 0 60 60" id="icon-audio"><path d="M29.4 8c1.3-1.3 2.4-.9 2.4 1v42c0 1.8-1.1 2.3-2.4 1L17.1 39.7H9V20.3h8.1L29.4 8zm7.5 33.6c-.6 0-1.2-.2-1.7-.7-1-1-1-2.5 0-3.4 4.1-4.1 4.1-10.8 0-14.9-1-1-1-2.5 0-3.4 1-1 2.5-1 3.4 0 6 6 6 15.8 0 21.8-.5.4-1.1.6-1.7.6m8.6 4.6c-.6 0-1.2-.2-1.7-.7-1-1-1-2.5 0-3.4 6.6-6.6 6.6-17.4 0-24.1-1-1-1-2.5 0-3.4 1-1 2.5-1 3.4 0 4.1 4.1 6.4 9.6 6.4 15.5s-2.3 11.3-6.4 15.5c-.5.4-1.1.6-1.7.6"/></symbol><symbol viewBox="0 0 60 60" id="icon-autoplay-pause"><path d="M22.4 20.9v18.2c0 1.1.9 2 2 2h1c1.1 0 2-.9 2-2V20.9c0-1.1-.9-2-2-2h-1c-1-.1-2 .9-2 2zm11 0v18.2c0 1.1.9 2 2 2h1c1.1 0 2-.9 2-2V20.9c0-1.1-.9-2-2-2h-1c-1-.1-2 .9-2 2zM7.7 7l8.2 9.3c.8 1 2.3.7 2.6-.4l2.9-10.8c.3-1.1-.8-2.3-1.9-2.1L8.4 4.5C7.3 4.6 6.8 6 7.7 7z"/><path d="M30 58.8C14.1 58.8 1.2 45.9 1.2 30c0-8.8 4-17 10.9-22.5 1.3-1 3.2-.8 4.2.5s.8 3.2-.5 4.2C10.3 16.5 7.2 23 7.2 30c0 12.6 10.2 22.8 22.8 22.8 12.6 0 22.8-10.2 22.8-22.8S42.6 7.2 30 7.2c-1.7 0-3-1.3-3-3s1.3-3 3-3c15.9 0 28.8 12.9 28.8 28.8S45.9 58.8 30 58.8z"/></symbol><symbol viewBox="0 0 60 60" id="icon-autoplay"><path d="M22.9 20.6v19.5c0 .9 1 1.4 1.7 1l16.3-9.8c.7-.4.7-1.5 0-2l-16.3-9.8c-.7-.3-1.7.2-1.7 1.1zM7.7 7l8.2 9.3c.8 1 2.3.7 2.6-.4l2.9-10.8c.3-1.1-.8-2.3-1.9-2.1L8.4 4.5C7.3 4.6 6.8 6 7.7 7z"/><path d="M30 58.9C14.1 58.9 1.2 46 1.2 30.1c0-8.8 4-17 10.9-22.5 1.3-1 3.2-.8 4.2.5s.8 3.2-.5 4.2c-5.5 4.4-8.6 10.9-8.6 17.8 0 12.6 10.2 22.8 22.8 22.8 12.6 0 22.8-10.2 22.8-22.8S42.6 7.3 30 7.3c-1.7 0-3-1.3-3-3s1.3-3 3-3c15.9 0 28.8 12.9 28.8 28.8S45.9 58.9 30 58.9z"/></symbol><symbol viewBox="0 0 60 60" id="icon-before-after"><path d="M-242 3.6l2.9 33.3h14l3-33.3zm2.9 40.3h14v12.6h-14zm91.1-31.7v35.5c0 1.6 1.7 2.5 3 1.7l29.6-17.8c1.3-.8 1.3-2.7 0-3.4L-145 10.5c-1.3-.8-3 .2-3 1.7zM-42.1 30c-5.2 0-9.4-4.2-9.4-9.4s4.2-9.4 9.4-9.4 9.4 4.2 9.4 9.4c-.1 5.2-4.3 9.4-9.4 9.4m0-25c-8.6 0-15.6 7-15.6 15.6 0 15.6 15.6 34.4 15.6 34.4s15.6-18.8 15.6-34.4c0-8.6-7-15.6-15.6-15.6m-181.6 76.2c.1.1.3.1.4.2 1.2.5 2 1.1 2.3 1.3l7.9 7.9c.3.3.8 1.1 1.3 2.3.1.2.1.3.2.4h-12.2V81.2z"/><path d="M-211 131.3h-42.2V80.7h25.3v16.9h16.9zm100.4-29.9h-6.1v-3.1h6.1v3.1zm-21.4 21.2c-7.5 0-13.6-6.1-13.6-13.6s6.1-13.6 13.6-13.6 13.6 6.1 13.6 13.6-6.1 13.6-13.6 13.6m21.4-30.4h-10.7c-.8-3.1-1.5-6.1-4.6-6.1h-12.2c-3.1 0-3.8 3.1-4.6 6.1h-10.7c-1.7 0-3.1 1.4-3.1 3.1v27.5c0 1.7 1.4 3.1 3.1 3.1h42.8c1.7 0 3.1-1.4 3.1-3.1V95.3c0-1.7-1.4-3.1-3.1-3.1m-31.3 16.9c0 5.5 4.5 9.9 9.9 9.9 5.5 0 9.9-4.5 9.9-9.9 0-5.5-4.5-9.9-9.9-9.9-5.5-.1-9.9 4.4-9.9 9.9M-43.6 84c1.3-1.3 2.4-.9 2.4 1v42c0 1.8-1.1 2.3-2.4 1l-12.2-12.2H-64V96.3h8.1L-43.6 84zm7.5 33.6c-.6 0-1.2-.2-1.7-.7-1-1-1-2.5 0-3.4 4.1-4.1 4.1-10.8 0-14.9-1-1-1-2.5 0-3.4 1-1 2.5-1 3.4 0 6 6 6 15.8 0 21.8-.5.4-1.1.6-1.7.6m8.6 4.6c-.6 0-1.2-.2-1.7-.7-1-1-1-2.5 0-3.4 6.6-6.6 6.6-17.4 0-24.1-1-1-1-2.5 0-3.4 1-1 2.5-1 3.4 0 4.1 4.1 6.4 9.6 6.4 15.5 0 5.8-2.3 11.3-6.4 15.5-.5.4-1.1.6-1.7.6m-197.8 83c-1.3-.2-1.3-3.7-1.3-3.7s3.8-3.7 4.6-8.8c2.2 0 3.6-5.3 1.4-7.2.1-2 2.8-15.5-11.1-15.5s-11.2 13.6-11.1 15.5c-2.2 1.9-.8 7.2 1.4 7.2.8 5 4.6 8.8 4.6 8.8s0 3.5-1.3 3.7c-4.1.7-19.6 7.5-19.6 15h52.2c-.2-7.6-15.6-14.4-19.8-15m82.9-19.3h21.3v3h-21.3v-3zm0 18.2h21.3v3h-21.3v-3zm0-6.1h21.3v3h-21.3v-3zm0-6h21.3v3h-21.3v-3zm27.4 21.3h-33.5v-36.5h33.5v36.5zm1.6-42.7H-150c-2.5 0-4.6 2.1-4.6 4.6v39.6c0 2.5 2.1 4.6 4.6 4.6h36.5c2.5 0 4.6-2.1 4.6-4.6v-39.6c0-2.5-2-4.6-4.5-4.6m71 2.3c13 0 23.6 8.6 23.6 19.2s-10.6 19.2-23.6 19.2c-1.2 0-2.5-.1-3.7-.2-5.1 5.1-11.1 6-17 6.1V216c3.2-1.5 5.9-4.4 5.9-7.6 0-.4 0-.9-.1-1.3-5.3-3.5-8.7-8.9-8.7-14.9 0-10.7 10.6-19.3 23.6-19.3m-179.9 119.4c-2.9 2.9-2.9 5.7-5.7 5.7-2.9 0-5.7-2.9-8.6-5.7-2.9-2.9-5.7-5.7-5.7-8.6s2.9-2.9 5.7-5.7c2.9-2.9-5.7-11.4-8.6-11.4s-8.6 8.6-8.6 8.6c0 5.7 5.9 17.3 11.4 22.8 5.6 5.6 17.1 11.4 22.8 11.4 0 0 8.6-5.7 8.6-8.6s-8.4-11.4-11.3-8.5m67.8 9.2h6.7v3.4h-6.7v-3.4zm-3.3-3.4v13.5h50.6v-13.5h-50.6zm20.2-13.5v-20.2h10.1v20.2h8.4l-13.5 13.5-13.5-13.5h8.5zm334.8 9.4l-19.6-19.8c-1.4-1.4-3.8-1.4-5.2 0-1.4 1.4-1.4 3.8 0 5.2l22.2 22.4c1.4 1.4 3.6 1.4 5 .1l22.4-22.4c1.4-1.4 1.4-3.8 0-5.2-1.4-1.4-3.8-1.4-5.2 0L197.2 294zm-90-12l19.6 19.8c1.4 1.4 3.8 1.4 5.2 0s1.4-3.8 0-5.2l-22.2-22.4c-1.4-1.4-3.6-1.4-5-.1l-22.4 22.4c-1.4 1.4-1.4 3.8 0 5.2 1.4 1.4 3.8 1.4 5.2 0l19.6-19.7zm-69.1 6l-19.8 19.6c-1.4 1.4-1.4 3.8 0 5.2 1.4 1.4 3.8 1.4 5.2 0l22.4-22.2c1.4-1.4 1.4-3.6.1-5l-22.4-22.4c-1.4-1.4-3.8-1.4-5.2 0s-1.4 3.8 0 5.2L38.1 288zm-88.9 0l19.8-19.6c1.4-1.4 1.4-3.8 0-5.2s-3.8-1.4-5.2 0l-22.4 22.2c-1.4 1.4-1.4 3.6-.1 5l22.4 22.4c1.4 1.4 3.8 1.4 5.2 0 1.4-1.4 1.4-3.8 0-5.2L-50.8 288zm28.8 85h-42c-2.8 0-5 2.2-5 5s2.2 5 5 5h42c2.8 0 5-2.2 5-5s-2.2-5-5-5zm-302.6-4.1v18.2c0 1.1.9 2 2 2h1c1.1 0 2-.9 2-2v-18.2c0-1.1-.9-2-2-2h-1c-1-.1-2 .9-2 2zm11 0v18.2c0 1.1.9 2 2 2h1c1.1 0 2-.9 2-2v-18.2c0-1.1-.9-2-2-2h-1c-1-.1-2 .9-2 2zm362 20.4l-29.7-29.7c-2-2-5.1-2-7.1 0s-2 5.1 0 7.1l29.7 29.7c2 2 5.1 2 7.1 0 1.9-2 1.9-5.1 0-7.1z"/><path d="M41.3 359.6l-29.7 29.7c-2 2-2 5.1 0 7.1s5.1 2 7.1 0l29.7-29.7c2-2 2-5.1 0-7.1-2-1.9-5.1-1.9-7.1 0zM-111 373h-42c-2.8 0-5 2.2-5 5s2.2 5 5 5h42c2.8 0 5-2.2 5-5s-2.2-5-5-5z"/><path d="M-137 357v42c0 2.8 2.2 5 5 5s5-2.2 5-5v-42c0-2.8-2.2-5-5-5s-5 2.2-5 5zm-202.3-2l8.2 9.3c.8 1 2.3.7 2.6-.4l2.9-10.8c.3-1.1-.7-2.3-1.9-2.1l-11.1 1.5c-1.1.1-1.6 1.5-.7 2.5z"/><path d="M-317 406.8c-15.9 0-28.8-12.9-28.8-28.8 0-8.8 4-17 10.9-22.5 1.3-1 3.2-.8 4.2.5s.8 3.2-.5 4.2c-5.5 4.4-8.6 10.9-8.6 17.8 0 12.6 10.2 22.8 22.8 22.8 12.6 0 22.8-10.2 22.8-22.8s-10.2-22.8-22.8-22.8c-1.7 0-3-1.3-3-3s1.3-3 3-3c15.9 0 28.8 12.9 28.8 28.8s-12.9 28.8-28.8 28.8zm77.9-38.2v19.5c0 .9 1 1.4 1.7 1l16.3-9.8c.7-.4.7-1.5 0-2l-16.3-9.8c-.7-.3-1.7.2-1.7 1.1zm-15.2-13.6l8.2 9.3c.8 1 2.3.7 2.6-.4l2.9-10.8c.3-1.1-.7-2.3-1.9-2.1l-11.1 1.5c-1.1.1-1.6 1.5-.7 2.5z"/><path d="M-232 406.9c-15.9 0-28.8-12.9-28.8-28.8 0-8.8 4-17 10.9-22.5 1.3-1 3.2-.8 4.2.5s.8 3.2-.5 4.2c-5.5 4.4-8.6 10.9-8.6 17.8 0 12.6 10.2 22.8 22.8 22.8 12.6 0 22.8-10.2 22.8-22.8s-10.2-22.8-22.8-22.8c-1.7 0-3-1.3-3-3s1.3-3 3-3c15.9 0 28.8 12.9 28.8 28.8s-12.9 28.8-28.8 28.8zm86.9 61.1h25.9c1.7 0 2.7-2 1.5-3.3l-12.9-15.4c-.8-1-2.3-1-3.1 0l-12.9 15.4c-1.2 1.3-.2 3.3 1.5 3.3z"/><path d="M-132 492c-15.4 0-28-12.6-28-28s12.6-28 28-28 28 12.6 28 28-12.6 28-28 28zm0-50c-12.1 0-22 9.9-22 22s9.9 22 22 22 22-9.9 22-22-9.9-22-22-22z"/><path d="M-128 461h-8c-1.1 0-2 .9-2 2v14c0 1.1.9 2 2 2h8c1.1 0 2-.9 2-2v-14c0-1.1-.9-2-2-2zM-303.6 52.2l-.8 3.2c-2.4.9-4.3 1.6-5.7 2.1-1.4.5-3.1.7-4.9.7-2.9 0-5.1-.7-6.7-2.1-1.6-1.4-2.4-3.2-2.4-5.3 0-.8.1-1.7.2-2.6.1-.9.3-1.9.6-3l3-10.5c.3-1 .5-2 .7-2.9.2-.9.3-1.7.3-2.5 0-1.3-.3-2.3-.8-2.8-.6-.5-1.6-.8-3.2-.8-.8 0-1.6.1-2.4.4-.8.2-1.5.5-2.1.7l.8-3.2c1.9-.8 3.8-1.5 5.6-2 1.8-.6 3.5-.8 5-.8 2.9 0 5.1.7 6.6 2.1 1.5 1.4 2.3 3.2 2.3 5.4 0 .5-.1 1.3-.2 2.4-.1 1.1-.3 2.2-.6 3.2l-3 10.5c-.2.8-.5 1.8-.6 2.9-.2 1.1-.3 1.9-.3 2.4 0 1.4.3 2.3.9 2.8.6.5 1.7.8 3.2.8.7 0 1.5-.1 2.4-.4 1-.3 1.6-.5 2.1-.7zm.7-43.9c0 1.8-.7 3.4-2.1 4.7-1.4 1.3-3 1.9-5 1.9s-3.6-.6-5-1.9c-1.4-1.3-2.1-2.8-2.1-4.7 0-1.8.7-3.4 2.1-4.7 1.4-1.3 3.1-1.9 5-1.9s3.6.6 5 1.9c1.4 1.3 2.1 2.9 2.1 4.7zm5.3 446.7l-11.4-11.4c-1.1-1.1-3-.5-3.2 1.1l-2 13.4c-.2 1.3.9 2.3 2.1 2.1l13.4-2c1.6-.2 2.2-2.1 1.1-3.2z"/><path d="M-298.1 438.5l-11.4 11.4c-1.6 1.6-1.6 4.1 0 5.7 1.6 1.6 4.1 1.6 5.7 0l11.4-11.4c1.6-1.6 1.6-4.1 0-5.7-1.6-1.6-4.1-1.6-5.7 0zm-28.9 5.1l-11.4 11.4c-1.1 1.1-.5 3 1.1 3.2l13.4 2c1.3.2 2.3-.9 2.1-2.1l-2-13.4c-.2-1.6-2.1-2.2-3.2-1.1z"/><path d="M-342.5 445.1l11.4 11.4c1.6 1.6 4.1 1.6 5.7 0 1.6-1.6 1.6-4.1 0-5.7l-11.4-11.4c-1.6-1.6-4.1-1.6-5.7 0-1.6 1.6-1.6 4.1 0 5.7zm33.5 39.3l11.4-11.4c1.1-1.1.5-3-1.1-3.2l-13.4-2c-1.3-.2-2.3.9-2.1 2.1l2 13.4c.2 1.6 2.1 2.2 3.2 1.1z"/><path d="M-292.5 482.9l-11.4-11.4c-1.6-1.6-4.1-1.6-5.7 0-1.6 1.6-1.6 4.1 0 5.7l11.4 11.4c1.6 1.6 4.1 1.6 5.7 0 1.6-1.6 1.6-4.1 0-5.7zm-45.9-9.9l11.4 11.4c1.1 1.1 3 .5 3.2-1.1l2-13.4c.2-1.3-.9-2.3-2.1-2.1l-13.4 2c-1.6.2-2.2 2.1-1.1 3.2z"/><path d="M-336.9 489.5l11.4-11.4c1.6-1.6 1.6-4.1 0-5.7-1.6-1.6-4.1-1.6-5.7 0l-11.4 11.4c-1.6 1.6-1.6 4.1 0 5.7 1.6 1.6 4.1 1.6 5.7 0zm83.4-34.7l11.4-11.4c1.1-1.1.5-3-1.1-3.2l-13.4-2c-1.3-.2-2.3.9-2.1 2.1l2 13.4c.3 1.6 2.1 2.2 3.2 1.1zm11.3 30.7l-11.4-11.4c-1.1-1.1-3-.5-3.2 1.1l-2 13.4c-.2 1.3.9 2.3 2.1 2.1l13.4-2c1.6-.3 2.2-2.1 1.1-3.2zm30.7-12.3l-11.4 11.4c-1.1 1.1-.5 3 1.1 3.2l13.4 2c1.3.2 2.3-.9 2.1-2.1l-2-13.4c-.3-1.6-2.1-2.2-3.2-1.1zm-11.3-30.7l11.4 11.4c1.1 1.1 3 .5 3.2-1.1l2-13.4c.2-1.3-.9-2.3-2.1-2.1l-13.4 2c-1.6.3-2.2 2.1-1.1 3.2z"/><path d="M-222.3 459l11.4-11.4c1.6-1.6 1.6-4.1 0-5.7-1.6-1.6-4.1-1.6-5.7 0l-11.4 11.4c-1.6 1.6-1.6 4.1 0 5.7 1.6 1.6 4.1 1.6 5.7 0zm-15.7-5.7l-11.4-11.4c-1.6-1.6-4.1-1.6-5.7 0-1.6 1.6-1.6 4.1 0 5.7l11.4 11.4c1.6 1.6 4.1 1.6 5.7 0 1.6-1.6 1.6-4.1 0-5.7zm10 21.4l11.4 11.4c1.6 1.6 4.1 1.6 5.7 0 1.6-1.6 1.6-4.1 0-5.7l-11.4-11.4c-1.6-1.6-4.1-1.6-5.7 0-1.6 1.6-1.6 4.1 0 5.7zm-15.7-5.7l-11.4 11.4c-1.6 1.6-1.6 4.1 0 5.7 1.6 1.6 4.1 1.6 5.7 0l11.4-11.4c1.6-1.6 1.6-4.1 0-5.7-1.6-1.6-4.1-1.6-5.7 0zm192 .7c-1-.8-2.5-.2-2.6 1.1l-.3 4.1c-8.2-1.9-12.9-5.7-12.9-8.8 0-2.3 2.4-4.3 3.9-5.2 1.2-.8 1.5-2.3.7-3.5-.8-1.2-2.3-1.5-3.5-.7-5.1 3.3-6.1 6.9-6.1 9.4 0 6.3 6.9 11.6 17.6 13.9l-.3 4.3c-.1 1.3 1.3 2.1 2.4 1.4l9.5-6.1c.9-.6 1-1.8.2-2.5l-8.6-7.4zm-2.9-10.1c-.4 0-.8-.1-1.2-.2-.3-.2-.6-.4-.8-.6-.2-.3-.4-.6-.5-1-.1-.4-.2-.8-.2-1.2h-2.9c0 .9.1 1.7.4 2.3.3.7.6 1.3 1.1 1.7.5.5 1.1.8 1.8 1.1.7.2 1.5.4 2.3.4.7 0 1.4-.1 2.1-.3.7-.2 1.3-.5 1.8-1s.9-.9 1.2-1.6c.3-.6.5-1.3.5-2.1 0-.9-.2-1.6-.7-2.2-.5-.6-1.1-1-2-1.2.7-.2 1.2-.6 1.6-1.1s.5-1.2.5-1.9-.2-1.3-.5-1.8-.7-1-1.2-1.3c-.5-.4-1-.6-1.6-.8s-1.2-.3-1.8-.3c-.8 0-1.5.1-2.1.4-.6.3-1.2.6-1.6 1.1-.5.5-.8 1-1.1 1.7-.3.6-.4 1.4-.4 2.1h2.9c0-.8.2-1.4.6-1.9.4-.5 1-.8 1.8-.8.6 0 1.1.2 1.5.5.4.3.7.8.7 1.5 0 .4-.1.8-.3 1-.2.3-.5.5-.8.6-.3.1-.7.2-1.1.2h-1.1v2.2h1.2c.4 0 .8.1 1.1.2.3.1.6.4.9.7.2.3.3.7.3 1.3 0 .7-.2 1.3-.7 1.7s-1 .6-1.7.6zm17-.9c.3-.7.4-1.4.4-2.2 0-.6-.1-1.2-.3-1.8s-.5-1.1-.9-1.6-1-.9-1.6-1.1c-.6-.3-1.3-.4-1.9-.4-.7 0-1.4.1-1.9.4-.6.3-1.1.7-1.5 1.3 0-.4.1-.9.2-1.4.1-.5.3-1 .5-1.5s.5-.9.9-1.2c.4-.3.8-.5 1.4-.5.5 0 1 .2 1.3.6.4.4.6.8.7 1.3h2.9c-.1-.7-.3-1.3-.5-1.8-.3-.5-.6-1-1.1-1.3-.4-.4-.9-.6-1.5-.8-.6-.2-1.2-.3-1.8-.3-1.1 0-2 .2-2.8.7-.8.5-1.4 1.1-1.8 1.9s-.8 1.6-1 2.5c-.2.9-.3 1.9-.3 2.8 0 1 .1 1.9.3 2.8.2.9.5 1.8.9 2.5s1 1.3 1.8 1.8 1.7.7 2.8.7c.8 0 1.5-.1 2.2-.4s1.2-.7 1.7-1.2c.3-.5.7-1.1.9-1.8zm-2.8-.9c-.1.3-.3.6-.5.9-.2.3-.4.5-.7.6-.3.2-.6.2-1 .2s-.7-.1-1-.2c-.3-.2-.6-.4-.8-.6-.2-.3-.4-.6-.5-.9-.1-.3-.2-.7-.2-1 0-.4 0-.7.2-1.1.1-.3.3-.6.5-.9.2-.3.5-.5.8-.6.3-.2.7-.2 1.1-.2.4 0 .7.1 1 .2s.5.4.7.6c.2.3.3.6.4.9.1.3.1.7.1 1 0 .4 0 .8-.1 1.1zm5.5 2.6c.5.6 1.1 1 1.8 1.3.7.3 1.4.4 2.1.4.8 0 1.5-.1 2.2-.4.7-.3 1.3-.7 1.8-1.3.5-.6.9-1.4 1.2-2.4.3-1 .4-2.3.4-3.8s-.1-2.7-.4-3.7c-.3-1-.7-1.8-1.2-2.4s-1.1-1-1.8-1.3c-.7-.3-1.4-.4-2.2-.4-.8 0-1.5.1-2.1.4-.7.3-1.3.7-1.8 1.3-.5.6-.9 1.4-1.2 2.4-.3 1-.4 2.2-.4 3.7s.1 2.8.4 3.8c.3 1 .7 1.8 1.2 2.4zm1.5-7.2c0-.4 0-.7.1-1.1 0-.4.1-.8.2-1.2.1-.4.2-.7.4-1 .2-.3.4-.5.7-.7.3-.2.6-.3 1.1-.3s.8.1 1.1.3c.3.2.5.4.7.7.2.3.3.6.4 1 .1.4.2.8.2 1.2 0 .4.1.8.1 1.1v2.5c0 .6-.1 1.2-.3 1.8s-.4 1.1-.7 1.5c-.3.4-.8.6-1.5.6-.6 0-1.1-.2-1.4-.6s-.6-.9-.7-1.5c-.2-.6-.2-1.2-.3-1.8v-1.6c-.1-.2-.1-.5-.1-.9zm13.8 3.4c-1.2-.8-2.7-.4-3.5.7s-.4 2.7.7 3.5c1.4.9 3.9 2.9 3.9 5.2 0 3.9-7.2 8.7-19.3 9.9-1.4.1-2.4 1.4-2.3 2.7.1 1.3 1.2 2.3 2.5 2.3h.2c14-1.3 23.8-7.4 23.8-14.8.1-2.6-1-6.2-6-9.5z"/><path d="M44.7 193.3v-1.9l-3.1.2v.5l.1 1.8v1.2c0 2.3-.2 4.8-.5 7.2 1.1-.3 2.2-.7 3.3-1.1.2-2 .4-4 .4-6.1v-1l-.2-.8zm-31.5 13.3l-8.5-2.5 1.7-1.8c-2.1-2-3.7-4.5-3.7-7.5 0-2.3.9-4.3 2.3-6.1 2.1-2.6 5.1-4.4 8.4-5.8-.3 1.2-.5 2.5-.7 3.7-1.5.7-2.8 1.6-4 2.6-1.4 1.3-2.6 2.8-2.9 4.7-.2 1.3.1 2.5.7 3.6.5.9 1.2 1.8 2 2.5l1.7-1.8 3 8.4zm10.7-26.3c2.1-.3 4.2-.4 6.1-.4 4.5 0 9 .6 13.2 1.8 5.9 1.7 14 5.9 14 13 0 2.3-.9 4.3-2.3 6.1-5.4 6.6-16.9 8.7-25 8.7-2.2 0-4.6-.1-6.8-.5l.4-3c2.1.3 4.3.4 6.4.4 6.8 0 15.9-1.6 21.2-6.2 1.6-1.4 2.9-3.3 3-5.5 0-3.7-3.6-6.3-6.5-7.9-5.3-2.8-11.8-3.8-17.7-3.8-2.2 0-4.7.2-7.2.6.4-1.1.7-2.2 1.2-3.3zM38.1 212c1.2-.2 2.5-.4 3.7-.7-2.1 5.2-6 10.7-11.8 10.7-2.3 0-4.3-.9-6.1-2.3-6.6-5.4-8.7-16.9-8.7-25 0-4.5.6-9 1.8-13.2 1.7-5.9 5.9-14 13-14 3.7 0 6.6 2.3 8.7 5.1l2-1.5 1.5 8.8-7.9-4 2-1.5c-1.5-2-3.7-3.9-6.3-3.9-3.7 0-6.3 3.6-7.9 6.5-2.8 5.3-3.8 11.8-3.8 17.7 0 6.8 1.6 15.9 6.2 21.2 1.4 1.6 3.3 2.9 5.5 3 3.7 0 6.3-3.6 7.9-6.5l.2-.4z" fill-rule="evenodd" clip-rule="evenodd"/><path d="M138 173.6l-5.5-4.8c-.3-.3-.8-.4-1.2-.2-.4.2-.7.6-.7 1.1v1.9l-10.9 1.7c-.6.1-1.1.6-1.1 1.3 0 .6.4 1.2 1.1 1.3l10.9 1.7v1.9c0 .4.3.8.7 1.1.4.2.9.1 1.2-.2l5.5-4.8c.2-.2.4-.5.4-.8 0-.7-.2-1-.4-1.2zm-32.9.9c0-.6-.4-1.2-1.1-1.3l-10.9-1.7v-1.9c0-.4-.3-.8-.7-1.1-.4-.2-.9-.1-1.2.2l-5.5 4.8c-.2.2-.4.5-.4.8s.2.6.4.8l5.5 4.8c.3.3.8.4 1.2.2.4-.2.7-.6.7-1.1v-1.9l10.9-1.7c.6.2 1.1-.3 1.1-.9zm26.7 16.8c-1.3-.2-2.5.3-3.3 1.2-.4-1.6-1.9-2.9-3.7-2.9-1.1 0-2.2.5-2.9 1.3-.5-1.5-1.9-2.6-3.6-2.6-1 0-2 .4-2.6 1.1v-14.3c0-1.9-1.3-3.7-3.3-3.9-2.3-.3-4.3 1.5-4.3 3.8v25.4c0 .5-.7.7-1 .3l-4.4-6.6c-1-1.6-3.3-1.9-5-.7-1.7 1.1-2.3 3.4-1.3 4.9 0 0 12.2 18.5 12.4 18.7 2.2 3.1 5.8 5 9.7 5h4.4c6.6 0 12-5.3 12-11.8v-14.9c.2-2.1-1.2-3.8-3.1-4zM24.5 58.6c-1.4 0-2.5-1.1-2.5-2.5V4.9c0-1.4 1.1-2.5 2.5-2.5S27 3.5 27 4.9v51.2c0 1.4-1.1 2.5-2.5 2.5z"/><path d="M27 15h-5v-1.5h-1.5v-5H27zM16.3 51.5H9.7c-.8 0-1.6-.1-2.3-.3l1.4-4.8c.3.1.6.1.9.1h6.6v5zM2.8 47.7c-.8-1.3-1.3-2.8-1.3-4.4v-5h5v5c0 .6.2 1.2.5 1.7l-4.2 2.7zm3.7-13.6h-5v-8.3h5v8.3zm0-12.4h-5v-5c0-1.6.4-3.1 1.3-4.4L7 15c-.3.5-.5 1.1-.5 1.7v5zm2.3-8.1L7.4 8.8c.7-.2 1.5-.3 2.3-.3h6.7v5H9.7c-.3 0-.6 0-.9.1zM27 51.5h-6.5v-5H22V45h5zm0-10.8h-5v-8.6h5v8.6zm0-12.8h-5v-8.6h5v8.6z"/><path d="M50.3 51.5H22v-43h28.3c4.5 0 8.2 3.7 8.2 8.2v26.6c0 4.5-3.7 8.2-8.2 8.2zm-23.3-5h23.3c1.8 0 3.2-1.4 3.2-3.2V16.7c0-1.8-1.4-3.2-3.2-3.2H27v33zm91.3-41H80.2c-4.5 0-8.2 3.7-8.2 8.2v22.6c0 4.5 3.7 8.2 8.2 8.2h14.1l-.5-5H80.2c-1.8 0-3.2-1.4-3.2-3.2V13.7c0-1.8 1.4-3.2 3.2-3.2h38.1c1.8 0 3.2 1.4 3.2 3.2v22.6c0 1.8-1.4 3.2-3.2 3.2h-.5c.4.8.6 1.8.4 2.7-.2 1-.8 1.8-1.6 2.3h1.7c4.5 0 8.2-3.7 8.2-8.2V13.7c0-4.5-3.7-8.2-8.2-8.2z"/><path d="M107.8 44.5c-.2-.5.1-1 .6-1.1 2.1-.4 4.1-.8 6.2-1.2.7-.1.9-1.1.3-1.5-.5-.4-1-.8-1.6-1.2H96.7l.5 5h10.6z"/><path d="M103.9 46c.3 0 .6.1.7.4 1.8 3.2 3.6 6.4 5.4 9.5.2.3.4.4.7.4.1 0 .3 0 .4-.1.6-.4 1.3-.8 1.9-1.1.4-.2.5-.7.3-1.1-1.9-3.2-3.7-6.3-5.5-9.4-.3-.5 0-1.1.6-1.2 2.1-.4 4.1-.8 6.2-1.2.7-.1.9-1.1.3-1.5-6.1-4.6-12.1-9.1-18.1-13.6-.2-.1-.3-.2-.5-.2-.5 0-.9.4-.8.9l2.4 22.6c.1.5.4.7.8.7.2 0 .5-.1.6-.3 1.3-1.5 2.6-3 3.9-4.6.2-.1.4-.2.7-.2z"/></symbol><symbol viewBox="0 0 200 200" id="icon-calendar"><path d="M25 62.5V175h150V62.5H25zM162.5 25h25c6.5-.4 12.1 4.6 12.5 11.1v151.4c.4 6.5-4.6 12.1-11.1 12.5H12.5C6 200.4.4 195.4 0 188.9V37.5C-.4 31 4.6 25.4 11.1 25h26.4V12.5C37.1 6 42.1.4 48.6 0H50c6.5-.4 12.1 4.6 12.5 11.1V25h75V12.5C137.5 5.6 143.1 0 150 0s12.5 5.6 12.5 12.5V25zM150 150h-25v-25h25v25zm-37.5 0h-25v-25h25v25zm37.5-37.5h-25v-25h25v25zm-37.5 0h-25v-25h25v25zM75 150H50v-25h25v25z" fill-rule="evenodd" clip-rule="evenodd"/></symbol><symbol viewBox="0 0 256 256" id="icon-caret-left"><path d="M160 220c-3.1 0-6.1-1.2-8.5-3.5l-80-80c-4.7-4.7-4.7-12.3 0-17l80-80c4.7-4.7 12.3-4.7 17 0 4.7 4.7 4.7 12.3 0 17L97 128l71.5 71.5c4.7 4.7 4.7 12.3 0 17-2.4 2.3-5.4 3.5-8.5 3.5z"/></symbol><symbol viewBox="0 0 256 256" id="icon-caret-right"><path d="M96 220c-3.1 0-6.1-1.2-8.5-3.5-4.7-4.7-4.7-12.3 0-17L159 128 87.5 56.5c-4.7-4.7-4.7-12.3 0-17 4.7-4.7 12.3-4.7 17 0l80 80c4.7 4.7 4.7 12.3 0 17l-80 80c-2.4 2.3-5.4 3.5-8.5 3.5z"/></symbol><symbol viewBox="0 0 192 192" id="icon-cart"><path d="M172.4 113.1l9.8-54c.1-.7.2-1.4.2-2.1 0-6.6-5.4-12-12-12H44.6l-3.7-20.1c-1-5.7-6-9.9-11.8-9.9H15.6c-3.3 0-6 2.7-6 6s2.7 6 6 6h13.5l20 110.1c.2 1 .5 1.9.9 2.8-4.6 3.9-7.5 9.6-7.5 16 0 11.6 9.4 21 21 21s21-9.4 21-21c0-3.2-.8-6.3-2.1-9h52.1c-1.3 2.7-2.1 5.8-2.1 9 0 11.6 9.4 21 21 21s21-9.4 21-21c0-11.4-9.1-20.6-20.4-21H61l-2.2-12h101.8c5.8.1 10.8-4 11.8-9.8zM72.6 156c0 5-4 9-9 9s-9-4-9-9 4-9 9-9 9 4 9 9zm90 0c0 5-4 9-9 9s-9-4-9-9 4-9 9-9 9 4 9 9zM46.8 57h123.6l-9.8 54h-104l-9.8-54z"/></symbol><symbol viewBox="0 0 60 60" id="icon-chat"><path d="M30.6 7.9c13 0 23.6 8.6 23.6 19.2S43.6 46.3 30.6 46.3c-1.2 0-2.5-.1-3.7-.2-5.1 5.1-11.1 6-17 6.1V51c3.2-1.5 5.9-4.4 5.9-7.6 0-.4 0-.9-.1-1.3-5.2-3.7-8.7-9-8.7-15C7 16.5 17.6 7.9 30.6 7.9"/></symbol><symbol viewBox="0 0 256 256" id="icon-clock"><path d="M128 24C70.7 24 24 70.7 24 128s46.7 104 104 104 104-46.7 104-104S185.3 24 128 24zm0 192c-48.5 0-88-39.5-88-88s39.5-88 88-88 88 39.5 88 88-39.5 88-88 88z"/><path d="M184 120h-48V72c0-4.4-3.6-8-8-8s-8 3.6-8 8v56c0 4.4 3.6 8 8 8h56c4.4 0 8-3.6 8-8s-3.6-8-8-8z"/></symbol><symbol viewBox="0 0 60 60" id="icon-close"><path d="M48.4 41.3L18.7 11.6c-2-2-5.1-2-7.1 0s-2 5.1 0 7.1l29.7 29.7c2 2 5.1 2 7.1 0 1.9-2 1.9-5.1 0-7.1z"/><path d="M41.3 11.6L11.6 41.3c-2 2-2 5.1 0 7.1s5.1 2 7.1 0l29.7-29.7c2-2 2-5.1 0-7.1-2-1.9-5.1-1.9-7.1 0z"/></symbol><symbol viewBox="0 0 60 60" id="icon-contact"><path d="M39.7 34.3C36.9 37.1 36.9 40 34 40s-5.7-2.9-8.6-5.7c-2.9-2.9-5.7-5.7-5.7-8.6 0-2.9 2.9-2.9 5.7-5.7 2.9-2.9-5.7-11.4-8.6-11.4s-8.6 8.6-8.6 8.6c0 5.7 5.9 17.3 11.4 22.8 5.6 5.6 17.1 11.4 22.8 11.4 0 0 8.6-5.7 8.6-8.6.2-2.8-8.4-11.4-11.3-8.5"/></symbol><symbol viewBox="0 0 256 256" id="icon-department"><path d="M216 88h-64V40c0-8.8-7.2-16-16-16H40c-8.8 0-16 7.2-16 16v184c0 4.4 3.6 8 8 8s8-3.6 8-8V40h96v184c0 4.4 3.6 8 8 8s8-3.6 8-8V104h64v120c0 4.4 3.6 8 8 8s8-3.6 8-8V104c0-8.8-7.2-16-16-16z"/><path d="M64 80h32c4.4 0 8-3.6 8-8s-3.6-8-8-8H64c-4.4 0-8 3.6-8 8s3.6 8 8 8zm48 64H80c-4.4 0-8 3.6-8 8s3.6 8 8 8h32c4.4 0 8-3.6 8-8s-3.6-8-8-8zm-16 40H64c-4.4 0-8 3.6-8 8s3.6 8 8 8h32c4.4 0 8-3.6 8-8s-3.6-8-8-8zm96-16h-16c-4.4 0-8 3.6-8 8s3.6 8 8 8h16c4.4 0 8-3.6 8-8s-3.6-8-8-8zm0-40h-16c-4.4 0-8 3.6-8 8s3.6 8 8 8h16c4.4 0 8-3.6 8-8s-3.6-8-8-8z"/></symbol><symbol viewBox="0 0 60 60" id="icon-download"><path d="M7.5 43.5h6.7v3.4H7.5v-3.4zm-3.3-3.4v13.5h50.6V40.1H4.2zm20.2-13.5V6.4h10.1v20.2H43L29.5 40.1 16 26.6h8.4z"/></symbol><symbol viewBox="0 0 256 256" id="icon-ellipses"><circle cx="64" cy="128" r="16"/><circle cx="128" cy="128" r="16"/><circle cx="192" cy="128" r="16"/></symbol><symbol viewBox="0 0 256 256" id="icon-email"><path d="M232 95.9c0-.6-.1-1.2-.2-1.8 0-.1 0-.1-.1-.2-.1-.2-.1-.4-.2-.7 0-.1-.1-.2-.1-.2l-.3-.6c0-.1-.1-.2-.1-.2-.1-.2-.2-.4-.4-.6 0-.1-.1-.1-.1-.2-.2-.2-.4-.5-.6-.7l-.1-.1-.5-.5-.2-.2c-.2-.2-.4-.3-.6-.4l-.1-.1-96-64a8.01 8.01 0 00-8.9 0l-96 64-.1.1c-.2.1-.4.3-.6.4l-.2.2-.5.5-.1.1c-.2.2-.4.4-.6.7l-.1.1c-.1.2-.3.4-.4.6 0 .1-.1.2-.1.2l-.3.6c0 .1-.1.2-.1.2-.1.2-.2.4-.2.7 0 .1 0 .1-.1.2-.1.6-.2 1.2-.2 1.8v104.1c0 8.8 7.2 16 16 16h176c8.8 0 16-7.2 16-16l.1-104c0 .1 0 0 0 0zM40 111.5L96.7 152 40 192v-80.5zm73.1 48.5h29.8l56.6 40h-143l56.6-40zm46.2-8l56.7-40.4V192l-56.7-40zM128 41.6l81.9 54.6-67 47.8h-29.8l-67-47.8L128 41.6z"/></symbol><symbol viewBox="0 0 24 24" id="icon-facebook"><path d="M23.998 12c0-6.628-5.372-12-11.999-12C5.372 0 0 5.372 0 12c0 5.988 4.388 10.952 10.124 11.852v-8.384H7.078v-3.469h3.046V9.356c0-3.008 1.792-4.669 4.532-4.669 1.313 0 2.686.234 2.686.234v2.953H15.83c-1.49 0-1.955.925-1.955 1.874V12h3.328l-.532 3.469h-2.796v8.384c5.736-.9 10.124-5.864 10.124-11.853z"/></symbol><symbol viewBox="0 0 60 60" id="icon-form"><path d="M19.6 20.9h21.3v3H19.6v-3zm0 18.2h21.3v3H19.6v-3zm0-6.1h21.3v3H19.6v-3zm0-6h21.3v3H19.6v-3zM47 48.3H13.5V11.7H47v36.6zm1.6-42.7H12c-2.5 0-4.6 2.1-4.6 4.6v39.6c0 2.5 2.1 4.6 4.6 4.6h36.5c2.5 0 4.6-2.1 4.6-4.6V10.2c0-2.5-2-4.6-4.5-4.6"/></symbol><symbol viewBox="0 0 60 60" id="icon-fullscreen"><path d="M8.5 20.8L19.9 9.4c1.1-1.1.5-3-1.1-3.2l-13.4-2c-1.2-.1-2.2.9-2 2.2l2 13.4c.2 1.5 2 2.1 3.1 1zm11.3 30.7L8.4 40.1c-1.1-1.1-3-.5-3.2 1.1l-2 13.4c-.2 1.3.9 2.3 2.1 2.1l13.4-2c1.6-.3 2.2-2.1 1.1-3.2zm30.7-12.3L39.1 50.6c-1.1 1.1-.5 3 1.1 3.2l13.4 2c1.3.2 2.3-.9 2.1-2.1l-2-13.4c-.3-1.6-2.1-2.2-3.2-1.1zM39.2 8.5l11.4 11.4c1.1 1.1 3 .5 3.2-1.1l2-13.4c.2-1.3-.9-2.3-2.1-2.1l-13.4 2c-1.6.3-2.2 2.1-1.1 3.2z"/><path d="M39.7 25l11.4-11.4c1.6-1.6 1.6-4.1 0-5.7-1.6-1.6-4.1-1.6-5.7 0L34 19.3c-1.6 1.6-1.6 4.1 0 5.7 1.6 1.6 4.1 1.6 5.7 0zM24 19.3L12.6 7.9c-1.6-1.6-4.1-1.6-5.7 0-1.6 1.6-1.6 4.1 0 5.7L18.3 25c1.6 1.6 4.1 1.6 5.7 0 1.6-1.6 1.6-4.1 0-5.7zm10 21.4l11.4 11.4c1.6 1.6 4.1 1.6 5.7 0 1.6-1.6 1.6-4.1 0-5.7L39.7 35c-1.6-1.6-4.1-1.6-5.7 0-1.6 1.6-1.6 4.1 0 5.7zM18.3 35L6.9 46.4c-1.6 1.6-1.6 4.1 0 5.7 1.6 1.6 4.1 1.6 5.7 0L24 40.7c1.6-1.6 1.6-4.1 0-5.7-1.6-1.6-4.1-1.6-5.7 0z"/></symbol><symbol viewBox="0 0 24 24" id="icon-github"><path d="M12 .297c-6.63 0-12 5.373-12 12 0 5.303 3.438 9.8 8.205 11.385.6.113.82-.258.82-.577 0-.285-.01-1.04-.015-2.04-3.338.724-4.042-1.61-4.042-1.61C4.422 18.07 3.633 17.7 3.633 17.7c-1.087-.744.084-.729.084-.729 1.205.084 1.838 1.236 1.838 1.236 1.07 1.835 2.809 1.305 3.495.998.108-.776.417-1.305.76-1.605-2.665-.3-5.466-1.332-5.466-5.93 0-1.31.465-2.38 1.235-3.22-.135-.303-.54-1.523.105-3.176 0 0 1.005-.322 3.3 1.23.96-.267 1.98-.399 3-.405 1.02.006 2.04.138 3 .405 2.28-1.552 3.285-1.23 3.285-1.23.645 1.653.24 2.873.12 3.176.765.84 1.23 1.91 1.23 3.22 0 4.61-2.805 5.625-5.475 5.92.42.36.81 1.096.81 2.22 0 1.606-.015 2.896-.015 3.286 0 .315.21.69.825.57C20.565 22.092 24 17.592 24 12.297c0-6.627-5.373-12-12-12"/></symbol><symbol viewBox="0 0 60 60" id="icon-gyro"><path d="M44.7 28.3v-1.9l-3.1.2v.5l.1 1.8v1.2c0 2.3-.2 4.8-.5 7.2 1.1-.3 2.2-.7 3.3-1.1.2-2 .4-4 .4-6.1v-1l-.2-.8zM13.2 41.6l-8.5-2.5 1.7-1.8c-2.1-2-3.7-4.5-3.7-7.5 0-2.3.9-4.3 2.3-6.1 2.1-2.6 5.1-4.4 8.4-5.8-.3 1.2-.5 2.5-.7 3.7-1.5.7-2.8 1.6-4 2.6-1.4 1.3-2.6 2.8-2.9 4.7-.2 1.3.1 2.5.7 3.6.5.9 1.2 1.8 2 2.5l1.7-1.8 3 8.4zm10.7-26.3c2.1-.3 4.2-.4 6.1-.4 4.5 0 9 .6 13.2 1.8 5.9 1.7 14 5.9 14 13 0 2.3-.9 4.3-2.3 6.1-5.4 6.6-16.9 8.7-25 8.7-2.2 0-4.6-.1-6.8-.5l.4-3c2.1.3 4.3.4 6.4.4 6.8 0 15.9-1.6 21.2-6.2 1.6-1.4 2.9-3.3 3-5.5 0-3.7-3.6-6.3-6.5-7.9-5.2-2.7-11.8-3.8-17.7-3.8-2.2 0-4.7.2-7.2.6.4-1.1.7-2.2 1.2-3.3zM38.1 47c1.2-.2 2.5-.4 3.7-.7C39.7 51.5 35.8 57 30 57c-2.3 0-4.3-.9-6.1-2.3-6.6-5.4-8.7-16.9-8.7-25 0-4.5.6-9 1.8-13.2 1.7-5.9 5.9-14 13-14 3.7 0 6.6 2.3 8.7 5.1l2-1.5 1.5 8.8-7.9-4 2-1.5c-1.5-2-3.7-3.9-6.3-3.9-3.7 0-6.3 3.6-7.9 6.5-2.8 5.3-3.8 11.8-3.8 17.7 0 6.8 1.6 15.9 6.2 21.2 1.4 1.6 3.3 2.9 5.5 3 3.7 0 6.3-3.6 7.9-6.5l.2-.4z" fill-rule="evenodd" clip-rule="evenodd"/></symbol><symbol viewBox="0 0 60 60" id="icon-help"><path d="M30 3C15.1 3 3 15.1 3 30s12.1 27 27 27 27-12.1 27-27S44.9 3 30 3zm1.8 42.9c-.7.7-1.7 1-2.9 1-1.3 0-2.2-.3-2.9-1-.7-.7-1-1.6-1-2.8 0-1.3.3-2.2 1-2.9.7-.6 1.7-1 2.9-1s2.2.3 2.9 1c.7.7 1 1.6 1 2.8.1 1.3-.3 2.2-1 2.9zm7.4-20.4c-.8 1.2-2.2 2.5-4.3 4-1.4 1.1-2.3 1.9-2.7 2.4-.4.6-.6 1.3-.6 2.2v1.3h-6v-1.7c0-1.4.3-2.7.9-3.8.6-1.1 1.7-2.2 3.4-3.4 1.6-1.1 2.6-2 3.1-2.7.5-.7.8-1.5.8-2.4 0-1-.4-1.7-1.1-2.2-.7-.5-1.7-.8-3-.8-2.3 0-4.8.7-7.7 2.2l-2.5-4.9C23 14 26.5 13 30.3 13c3.1 0 5.5.7 7.4 2.2 1.8 1.5 2.7 3.5 2.7 5.9 0 1.8-.4 3.2-1.2 4.4z"/></symbol><symbol viewBox="0 0 60 60" id="icon-hotspot"><path d="M20 3.6l2.9 33.3h14l3-33.3zm2.9 40.3h14v12.6h-14z"/></symbol><symbol viewBox="0 0 60 60" id="icon-image"><path d="M51.4 25.4h-6.1v-3.1h6.1v3.1zM30 46.6c-7.5 0-13.6-6.1-13.6-13.6S22.5 19.4 30 19.4 43.6 25.5 43.6 33 37.5 46.6 30 46.6m21.4-30.4H40.7c-.8-3.1-1.5-6.1-4.6-6.1H23.9c-3.1 0-3.8 3.1-4.6 6.1H8.6c-1.7 0-3.1 1.4-3.1 3.1v27.5c0 1.7 1.4 3.1 3.1 3.1h42.8c1.7 0 3.1-1.4 3.1-3.1V19.3c0-1.7-1.4-3.1-3.1-3.1M20.1 33.1c0 5.5 4.5 9.9 9.9 9.9s9.9-4.5 9.9-9.9c0-5.5-4.5-9.9-9.9-9.9s-9.9 4.4-9.9 9.9"/></symbol><symbol viewBox="0 0 60 60" id="icon-info-circle"><path d="M30 3C15.1 3 3 15.1 3 30s12.1 27 27 27 27-12.1 27-27S44.9 3 30 3zm6.4 42.3c-1.4.6-2.6 1-3.4 1.2s-2 .5-3 .5c-1.7 0-3.1-.4-4-1.2-1-.9-1.4-1.9-1.4-3.1 0-.5.1-1 .1-1.5.1-.6.2-1.1.4-1.8l1.8-6.3c.2-.6.3-1.2.4-1.7.1-.6.2-1 .2-1.5 0-.8-.2-1.4-.5-1.7-.4-.3-1-.5-1.9-.5-.5 0-1 .1-1.4.3-.5.1-.9.3-1.2.4l.5-1.9c1.1-.5 2.3-.9 3.3-1.2 1-.4 2.1-.5 3.1-.5 1.7 0 3.1.4 4 1.2.9.9 1.4 1.9 1.4 3.2 0 .3-.1.8-.1 1.4-.1.7-.2 1.3-.4 1.9l-1.8 6.3c-.1.5-.3 1-.4 1.7s-.2 1.1-.2 1.4c0 .9.2 1.4.6 1.7s1 .5 1.9.5c.4 0 .9-.1 1.4-.3.5 0 .9-.1 1.1-.3l-.5 1.8zM36 19.9c-.9.8-1.8 1.1-3 1.1s-2.2-.4-3.1-1.1c-.9-.8-1.2-1.7-1.2-2.9 0-1 .4-2 1.2-2.9.9-.8 1.9-1.1 3.1-1.1 1.1 0 2.2.4 3.1 1.1.9.9 1.2 1.8 1.2 2.9-.1 1.1-.4 2-1.3 2.9z"/></symbol><symbol viewBox="0 0 60 60" id="icon-information"><path d="M40.4 52.2l-.8 3.2c-2.4.9-4.3 1.6-5.7 2.1-1.4.5-3.1.7-4.9.7-2.9 0-5.1-.7-6.7-2.1-1.6-1.4-2.4-3.2-2.4-5.3 0-.8.1-1.7.2-2.6.1-.9.3-1.9.6-3l3-10.5c.3-1 .5-2 .7-2.9.2-.9.3-1.7.3-2.5 0-1.3-.3-2.3-.8-2.8-.6-.5-1.6-.8-3.2-.8-.8 0-1.6.1-2.4.4-.8.2-1.5.5-2.1.7l.8-3.2c1.9-.8 3.8-1.5 5.6-2 1.8-.6 3.5-.8 5-.8 2.9 0 5.1.7 6.6 2.1 1.5 1.4 2.3 3.2 2.3 5.4 0 .5-.1 1.3-.2 2.4-.1 1.1-.3 2.2-.6 3.2l-3 10.5c-.2.8-.5 1.8-.6 2.9-.2 1.1-.3 1.9-.3 2.4 0 1.4.3 2.3.9 2.8.6.5 1.7.8 3.2.8.7 0 1.5-.1 2.4-.4s1.6-.5 2.1-.7zm.7-43.9c0 1.8-.7 3.4-2.1 4.7-1.4 1.3-3 1.9-5 1.9s-3.6-.6-5-1.9c-1.4-1.3-2.1-2.8-2.1-4.7 0-1.8.7-3.4 2.1-4.7 1.4-1.3 3.1-1.9 5-1.9s3.6.6 5 1.9c1.4 1.3 2.1 2.9 2.1 4.7z"/></symbol><symbol viewBox="0 0 24 24" id="icon-instagram"><path d="M12 0C8.74 0 8.333.015 7.053.072 5.775.132 4.905.333 4.14.63c-.789.306-1.459.717-2.126 1.384S.935 3.35.63 4.14C.333 4.905.131 5.775.072 7.053.012 8.333 0 8.74 0 12s.015 3.667.072 4.947c.06 1.277.261 2.148.558 2.913a5.885 5.885 0 001.384 2.126A5.868 5.868 0 004.14 23.37c.766.296 1.636.499 2.913.558C8.333 23.988 8.74 24 12 24s3.667-.015 4.947-.072c1.277-.06 2.148-.262 2.913-.558a5.898 5.898 0 002.126-1.384 5.86 5.86 0 001.384-2.126c.296-.765.499-1.636.558-2.913.06-1.28.072-1.687.072-4.947s-.015-3.667-.072-4.947c-.06-1.277-.262-2.149-.558-2.913a5.89 5.89 0 00-1.384-2.126A5.847 5.847 0 0019.86.63c-.765-.297-1.636-.499-2.913-.558C15.667.012 15.26 0 12 0zm0 2.16c3.203 0 3.585.016 4.85.071 1.17.055 1.805.249 2.227.415.562.217.96.477 1.382.896.419.42.679.819.896 1.381.164.422.36 1.057.413 2.227.057 1.266.07 1.646.07 4.85s-.015 3.585-.074 4.85c-.061 1.17-.256 1.805-.421 2.227a3.81 3.81 0 01-.899 1.382 3.744 3.744 0 01-1.38.896c-.42.164-1.065.36-2.235.413-1.274.057-1.649.07-4.859.07-3.211 0-3.586-.015-4.859-.074-1.171-.061-1.816-.256-2.236-.421a3.716 3.716 0 01-1.379-.899 3.644 3.644 0 01-.9-1.38c-.165-.42-.359-1.065-.42-2.235-.045-1.26-.061-1.649-.061-4.844 0-3.196.016-3.586.061-4.861.061-1.17.255-1.814.42-2.234.21-.57.479-.96.9-1.381.419-.419.81-.689 1.379-.898.42-.166 1.051-.361 2.221-.421 1.275-.045 1.65-.06 4.859-.06l.045.03zm0 3.678a6.162 6.162 0 100 12.324 6.162 6.162 0 100-12.324zM12 16c-2.21 0-4-1.79-4-4s1.79-4 4-4 4 1.79 4 4-1.79 4-4 4zm7.846-10.405a1.441 1.441 0 01-2.88 0 1.44 1.44 0 012.88 0z"/></symbol><symbol viewBox="0 0 24 24" id="icon-linkedin"><path d="M20.447 20.452h-3.554v-5.569c0-1.328-.027-3.037-1.852-3.037-1.853 0-2.136 1.445-2.136 2.939v5.667H9.351V9h3.414v1.561h.046c.477-.9 1.637-1.85 3.37-1.85 3.601 0 4.267 2.37 4.267 5.455v6.286zM5.337 7.433a2.062 2.062 0 01-2.063-2.065 2.064 2.064 0 112.063 2.065zm1.782 13.019H3.555V9h3.564v11.452zM22.225 0H1.771C.792 0 0 .774 0 1.729v20.542C0 23.227.792 24 1.771 24h20.451C23.2 24 24 23.227 24 22.271V1.729C24 .774 23.2 0 22.222 0h.003z"/></symbol><symbol viewBox="0 0 60 60" id="icon-literature"><path d="M38.3 5.2c.1.1.3.1.4.2 1.2.5 2 1.1 2.3 1.3l7.9 7.9c.3.3.8 1.1 1.3 2.3.1.2.1.3.2.4H38.3V5.2z"/><path d="M51 55.3H8.8V4.7h25.3v16.9H51z"/></symbol><symbol viewBox="0 0 256 256" id="icon-location"><path d="M200 224h-49.5c6.9-6.2 15.2-14.2 23.5-23.8 27.5-31.6 42-64.9 42-96.2 0-48.5-39.5-88-88-88s-88 39.5-88 88c0 31.4 14.5 64.7 42 96.2 8.3 9.5 16.6 17.6 23.5 23.8H56c-4.4 0-8 3.6-8 8s3.6 8 8 8h144c4.4 0 8-3.6 8-8s-3.6-8-8-8zM56 104c0-39.7 32.3-72 72-72s72 32.3 72 72c0 57.2-55.5 105-72 118-16.5-13-72-60.8-72-118z"/><path d="M168 104c0-22.1-17.9-40-40-40s-40 17.9-40 40 17.9 40 40 40 40-17.9 40-40zm-64 0c0-13.2 10.8-24 24-24s24 10.8 24 24-10.8 24-24 24-24-10.8-24-24z"/></symbol><symbol viewBox="0 0 60 60" id="icon-marker"><path d="M30.9 30c-5.2 0-9.4-4.2-9.4-9.4s4.2-9.4 9.4-9.4 9.4 4.2 9.4 9.4c-.1 5.2-4.3 9.4-9.4 9.4m0-25c-8.6 0-15.6 7-15.6 15.6C15.2 36.3 30.9 55 30.9 55s15.6-18.8 15.6-34.4C46.5 12 39.5 5 30.9 5"/></symbol><symbol viewBox="0 0 24 24" id="icon-microsoftteams"><path d="M20.625 8.127q-.55 0-1.025-.205-.475-.205-.832-.563-.358-.357-.563-.832Q18 6.053 18 5.502q0-.54.205-1.02t.563-.837q.357-.358.832-.563.474-.205 1.025-.205.54 0 1.02.205t.837.563q.358.357.563.837.205.48.205 1.02 0 .55-.205 1.025-.205.475-.563.832-.357.358-.837.563-.48.205-1.02.205zm0-3.75q-.469 0-.797.328-.328.328-.328.797 0 .469.328.797.328.328.797.328.469 0 .797-.328.328-.328.328-.797 0-.469-.328-.797-.328-.328-.797-.328zM24 10.002v5.578q0 .774-.293 1.46-.293.685-.803 1.194-.51.51-1.195.803-.686.293-1.459.293-.445 0-.908-.105-.463-.106-.85-.329-.293.95-.855 1.729-.563.78-1.319 1.336-.756.557-1.67.861-.914.305-1.898.305-1.148 0-2.162-.398-1.014-.399-1.805-1.102-.79-.703-1.312-1.664t-.674-2.086h-5.8q-.411 0-.704-.293T0 16.881V6.873q0-.41.293-.703t.703-.293h8.59q-.34-.715-.34-1.5 0-.727.275-1.365.276-.639.75-1.114.475-.474 1.114-.75.638-.275 1.365-.275t1.365.275q.639.276 1.114.75.474.475.75 1.114.275.638.275 1.365t-.275 1.365q-.276.639-.75 1.113-.475.475-1.114.75-.638.276-1.365.276-.188 0-.375-.024-.188-.023-.375-.058v1.078h10.875q.469 0 .797.328.328.328.328.797zM12.75 2.373q-.41 0-.78.158-.368.158-.638.434-.27.275-.428.639-.158.363-.158.773 0 .41.158.78.159.368.428.638.27.27.639.428.369.158.779.158.41 0 .773-.158.364-.159.64-.428.274-.27.433-.639.158-.369.158-.779 0-.41-.158-.773-.159-.364-.434-.64-.275-.275-.639-.433-.363-.158-.773-.158zM6.937 9.814h2.25V7.94H2.814v1.875h2.25v6h1.875zm10.313 7.313v-6.75H12v6.504q0 .41-.293.703t-.703.293H8.309q.152.809.556 1.5.405.691.985 1.19.58.497 1.318.779.738.281 1.582.281.926 0 1.746-.352.82-.351 1.436-.966.615-.616.966-1.43.352-.815.352-1.752zm5.25-1.547v-5.203h-3.75v6.855q.305.305.691.452.387.146.809.146.469 0 .879-.176.41-.175.715-.48.304-.305.48-.715t.176-.879z"/></symbol><symbol viewBox="0 0 60 60" id="icon-minus"><path d="M51 25H9c-2.8 0-5 2.2-5 5s2.2 5 5 5h42c2.8 0 5-2.2 5-5s-2.2-5-5-5z"/></symbol><symbol viewBox="0 0 60 60" id="icon-navigate"><path d="M16.9 34h25.9c1.7 0 2.7-2 1.5-3.3L31.4 15.3c-.8-1-2.3-1-3.1 0l-13 15.4c-1.1 1.3-.1 3.3 1.6 3.3z"/><path d="M30 58C14.6 58 2 45.4 2 30S14.6 2 30 2s28 12.6 28 28-12.6 28-28 28zm0-50C17.9 8 8 17.9 8 30s9.9 22 22 22 22-9.9 22-22S42.1 8 30 8z"/><path d="M34 27h-8c-1.1 0-2 .9-2 2v14c0 1.1.9 2 2 2h8c1.1 0 2-.9 2-2V29c0-1.1-.9-2-2-2z"/></symbol><symbol viewBox="0 0 256 256" id="icon-phone"><path d="M176 224C96.6 224 32 159.4 32 80c0-28.1 21-52 48.9-55.6 7.1-.8 13.9 3.1 16.7 9.6l20.1 46.9c2.1 4.9 1.6 10.6-1.3 15.1l-16.6 25.4c7.5 15.2 20 27.7 35.2 35.1l25-16.7c4.5-3 10.2-3.5 15.2-1.4l46.8 20.1c6.5 2.8 10.4 9.6 9.6 16.6C228 203 204.1 224 176 224zM82.9 40.3C63 42.9 48 59.9 48 80c0 70.6 57.4 128 128 128 20.1 0 37.1-15 39.7-34.9l-46.9-20-25 16.7c-4.6 3.1-10.6 3.6-15.7 1.2-18.6-9-33.8-24.1-42.8-42.6v-.1c-2.4-5-2-11 1.1-15.7L103 87.2 82.9 40.3zM135 156.5z"/></symbol><symbol viewBox="0 0 24 24" id="icon-pinterest"><path d="M12.017 0C5.396 0 .029 5.367.029 11.987c0 5.079 3.158 9.417 7.618 11.162-.105-.949-.199-2.403.041-3.439.219-.937 1.406-5.957 1.406-5.957s-.359-.72-.359-1.781c0-1.663.967-2.911 2.168-2.911 1.024 0 1.518.769 1.518 1.688 0 1.029-.653 2.567-.992 3.992-.285 1.193.6 2.165 1.775 2.165 2.128 0 3.768-2.245 3.768-5.487 0-2.861-2.063-4.869-5.008-4.869-3.41 0-5.409 2.562-5.409 5.199 0 1.033.394 2.143.889 2.741.099.12.112.225.085.345-.09.375-.293 1.199-.334 1.363-.053.225-.172.271-.401.165-1.495-.69-2.433-2.878-2.433-4.646 0-3.776 2.748-7.252 7.92-7.252 4.158 0 7.392 2.967 7.392 6.923 0 4.135-2.607 7.462-6.233 7.462-1.214 0-2.354-.629-2.758-1.379l-.749 2.848c-.269 1.045-1.004 2.352-1.498 3.146 1.123.345 2.306.535 3.55.535 6.607 0 11.985-5.365 11.985-11.987C23.97 5.39 18.592.026 11.985.026L12.017 0z"/></symbol><symbol viewBox="0 0 20 20" id="icon-play"><path d="M8.8 13.9l4.7-3.5c.3-.2.3-.6 0-.8L8.8 6.1c-.3-.3-.8 0-.8.4v7c0 .4.5.6.8.4zM10 0C4.5 0 0 4.5 0 10s4.5 10 10 10 10-4.5 10-10S15.5 0 10 0zm0 18c-4.4 0-8-3.6-8-8s3.6-8 8-8 8 3.6 8 8-3.6 8-8 8z" fill-rule="evenodd" clip-rule="evenodd"/></symbol><symbol viewBox="0 0 60 60" id="icon-plus"><path d="M51 25H9c-2.8 0-5 2.2-5 5s2.2 5 5 5h42c2.8 0 5-2.2 5-5s-2.2-5-5-5z"/><path d="M25 9v42c0 2.8 2.2 5 5 5s5-2.2 5-5V9c0-2.8-2.2-5-5-5s-5 2.2-5 5z"/></symbol><symbol viewBox="0 0 256 256" id="icon-question"><path d="M103.1 159.7V150c0-8.4 1.8-15.6 5.4-21.8 3.6-6.2 10.1-12.7 19.6-19.7 9.1-6.5 15.2-11.8 18.1-15.9 2.9-4.1 4.4-8.7 4.4-13.7 0-5.7-2.1-10-6.3-12.9-4.2-3-10-4.4-17.5-4.4-13.1 0-27.9 4.3-44.6 12.8L67.8 45.8c19.4-10.9 40-16.3 61.7-16.3 17.9 0 32.2 4.3 42.8 12.9 10.6 8.6 15.9 20.1 15.9 34.5 0 9.6-2.2 17.8-6.5 24.8-4.4 7-12.6 14.8-24.8 23.5-8.4 6.2-13.6 10.9-15.9 14.1-2.2 3.2-3.3 7.4-3.3 12.7v7.8h-34.6zm-4.2 44.7c0-7.3 2-12.8 5.9-16.6 3.9-3.7 9.6-5.6 17.1-5.6 7.2 0 12.8 1.9 16.8 5.7 4 3.8 5.9 9.3 5.9 16.4 0 6.9-2 12.3-6 16.3s-9.6 5.9-16.7 5.9c-7.3 0-13-1.9-17-5.8-4-3.8-6-9.3-6-16.3z"/></symbol><symbol viewBox="0 0 256 256" id="icon-search"><path d="M229.7 218.3l-43.2-43.2c13.5-16 21.6-36.6 21.6-59.1 0-50.7-41.3-92-92-92s-92 41.3-92 92 41.3 92 92 92c22.5 0 43.1-8.1 59.1-21.6l43.2 43.2c1.6 1.6 3.6 2.3 5.7 2.3s4.1-.8 5.7-2.3c3-3.1 3-8.1-.1-11.3zM40 116c0-41.9 34.1-76 76-76s76 34.1 76 76-34.1 76-76 76-76-34.1-76-76z"/></symbol><symbol viewBox="0 0 24 24" id="icon-skype"><path d="M14.04 10.92l-2.52-.56c-.96-.24-2.04-.52-2.04-1.44 0-.92.76-1.56 2.16-1.56 2.84 0 2.6 1.96 4 1.96.72 0 1.36-.4 1.36-1.16 0-1.76-2.8-3.08-5.2-3.08-2.56 0-5.28 1.08-5.28 4 0 1.4.48 2.92 3.24 3.64l3.44.88c1.04.24 1.36.84 1.36 1.36 0 .88-.92 1.84-2.48 1.84-3.08 0-2.64-2.44-4.28-2.44-.72 0-1.32.52-1.32 1.24 0 1.44 1.76 3.4 5.6 3.4 3.68 0 5.52-1.84 5.52-4.24-.04-1.6-.76-3.2-3.56-3.84zm9.08 3.04c.12-.64.16-1.28.16-1.96C23.28 5.76 18.24.72 12 .72c-.68 0-1.32.04-1.96.16C9.04.32 7.92 0 6.72 0 3 0 0 3 0 6.72c0 1.2.32 2.36.88 3.32-.12.64-.16 1.28-.16 1.96 0 6.24 5.04 11.28 11.28 11.28.68 0 1.32-.04 1.96-.16 1 .56 2.12.88 3.32.88C21 24 24 21 24 17.28c0-1.2-.32-2.36-.88-3.32zm-5.84 8.32c-.88 0-1.72-.24-2.48-.64l-.52-.32-.6.12c-.52.08-1.08.16-1.68.16a9.56 9.56 0 01-9.56-9.56c0-.56.04-1.12.16-1.68l.12-.6-.32-.52c-.44-.76-.64-1.6-.64-2.48 0-2.76 2.24-5 5-5 .88 0 1.72.24 2.48.64l.52.32.6-.12c.56-.08 1.12-.16 1.68-.16A9.56 9.56 0 0121.6 12c0 .56-.04 1.12-.16 1.68l-.12.6.32.52c.44.76.64 1.6.64 2.48 0 2.76-2.24 5-5 5z"/></symbol><symbol viewBox="0 0 24 24" id="icon-snapchat"><path d="M12.206.793c.99 0 4.347.276 5.93 3.821.529 1.193.403 3.219.299 4.847l-.003.06c-.012.18-.022.345-.03.51.075.045.203.09.401.09.3-.016.659-.12 1.033-.301a.996.996 0 01.464-.104c.182 0 .359.029.509.09.45.149.734.479.734.838.015.449-.39.839-1.213 1.168-.089.029-.209.075-.344.119-.45.135-1.139.36-1.333.81-.09.224-.061.524.12.868l.015.015c.06.136 1.526 3.475 4.791 4.014.255.044.435.27.42.509a.606.606 0 01-.045.225c-.24.569-1.273.988-3.146 1.271-.059.091-.12.375-.164.57-.029.179-.074.36-.134.553-.076.271-.27.405-.555.405h-.03a3.19 3.19 0 01-.538-.074 6.034 6.034 0 00-1.273-.135c-.3 0-.599.015-.913.074-.6.104-1.123.464-1.723.884-.853.599-1.826 1.288-3.294 1.288-.06 0-.119-.015-.18-.015h-.149c-1.468 0-2.427-.675-3.279-1.288-.599-.42-1.107-.779-1.707-.884a6.623 6.623 0 00-.928-.074c-.54 0-.958.089-1.272.149a2.879 2.879 0 01-.54.074c-.374 0-.523-.224-.583-.42-.061-.192-.09-.389-.135-.567-.046-.181-.105-.494-.166-.57-1.918-.222-2.95-.642-3.189-1.226a.6.6 0 01-.055-.225.496.496 0 01.42-.509c3.264-.54 4.73-3.879 4.791-4.02l.016-.029c.18-.345.224-.645.119-.869-.195-.434-.884-.658-1.332-.809a2.233 2.233 0 01-.346-.119c-1.107-.435-1.257-.93-1.197-1.273.09-.479.674-.793 1.168-.793.146 0 .27.029.383.074.42.194.789.3 1.104.3.234 0 .384-.06.465-.105l-.046-.569c-.098-1.626-.225-3.651.307-4.837C7.392 1.077 10.739.807 11.727.807l.419-.015h.06z"/></symbol><symbol viewBox="0 0 60 60" id="icon-swipe"><style/><path d="M56 8.6l-5.5-4.8c-.3-.3-.8-.4-1.2-.2-.4.2-.7.6-.7 1.1v1.9L37.7 8.2c-.6.1-1.1.6-1.1 1.3 0 .6.4 1.2 1.1 1.3l10.9 1.7v1.9c0 .4.3.8.7 1.1.4.2.9.1 1.2-.2l5.5-4.8c.2-.2.4-.5.4-.8 0-.6-.2-.9-.4-1.1zm-32.9.9c0-.6-.4-1.2-1.1-1.3L11.1 6.5V4.6c0-.4-.3-.8-.7-1.1-.4-.2-.9-.1-1.2.2L3.7 8.5c-.3.2-.4.5-.4.8s.2.6.4.8L9.2 15c.3.3.8.4 1.2.2.4-.2.7-.6.7-1.1v-1.9L22 10.5c.6.1 1.1-.4 1.1-1zm26.7 16.8c-1.3-.2-2.5.3-3.3 1.2-.4-1.6-1.9-2.9-3.7-2.9-1.1 0-2.2.5-2.9 1.3-.5-1.5-1.9-2.6-3.6-2.6-1 0-2 .4-2.6 1.1V10.2c0-1.9-1.3-3.7-3.3-3.9-2.3-.3-4.3 1.5-4.3 3.8v25.4c0 .5-.7.7-1 .3l-4.4-6.6c-1-1.6-3.3-1.9-5-.7-1.7 1.1-2.3 3.4-1.3 4.9 0 0 12.2 18.5 12.4 18.7 2.2 3.1 5.8 5 9.7 5H41c6.6 0 12-5.3 12-11.8V30.2c.1-2-1.3-3.7-3.2-3.9z"/></symbol><symbol viewBox="0 0 60 60" id="icon-timeline"><style/><path d="M50.5 39.3v-6.6c0-2.9-2.3-5.2-5.2-5.2H17.7c-.1 0-.2-.1-.2-.2v-6.6c4.3-1.1 7.5-5 7.5-9.7 0-5.5-4.5-10-10-10S5 5.5 5 11c0 4.7 3.2 8.6 7.5 9.7v6.6c0 2.9 2.3 5.2 5.2 5.2h27.6c.1 0 .2.1.2.2v6.6c-4.3 1.1-7.5 5-7.5 9.7 0 5.5 4.5 10 10 10s10-4.5 10-10c0-4.7-3.2-8.6-7.5-9.7zM11 11c0-2.2 1.8-4 4-4s4 1.8 4 4-1.8 4-4 4-4-1.8-4-4zm37 42c-2.2 0-4-1.8-4-4s1.8-4 4-4 4 1.8 4 4-1.8 4-4 4z"/></symbol><symbol viewBox="0 0 24 24" id="icon-twitter"><path d="M23.954 4.569a10 10 0 01-2.825.775 4.958 4.958 0 002.163-2.723c-.951.555-2.005.959-3.127 1.184a4.92 4.92 0 00-8.384 4.482C7.691 8.094 4.066 6.13 1.64 3.161a4.822 4.822 0 00-.666 2.475c0 1.71.87 3.213 2.188 4.096a4.904 4.904 0 01-2.228-.616v.061a4.923 4.923 0 003.946 4.827 4.996 4.996 0 01-2.212.085 4.937 4.937 0 004.604 3.417 9.868 9.868 0 01-6.102 2.105c-.39 0-.779-.023-1.17-.067a13.995 13.995 0 007.557 2.209c9.054 0 13.999-7.496 13.999-13.986 0-.209 0-.42-.015-.63a9.936 9.936 0 002.46-2.548l-.047-.02z"/></symbol><symbol viewBox="0 0 60 60" id="icon-user"><path d="M36.7 40.2c-1.3-.2-1.3-3.7-1.3-3.7s3.8-3.7 4.6-8.8c2.2 0 3.6-5.3 1.4-7.2.1-2 2.8-15.5-11.1-15.5S19.1 18.4 19.2 20.4c-2.2 1.9-.8 7.2 1.4 7.2.8 5 4.6 8.8 4.6 8.8s0 3.5-1.3 3.7c-4.1.7-19.6 7.5-19.6 15h52.2c-.2-7.5-15.6-14.3-19.8-14.9"/></symbol><symbol viewBox="0 0 60 60" id="icon-video"><path d="M14 12.2v35.5c0 1.6 1.7 2.5 3 1.7l29.6-17.8c1.3-.8 1.3-2.7 0-3.4L17 10.5c-1.3-.8-3 .2-3 1.7z"/></symbol><symbol viewBox="0 0 24 24" id="icon-vimeo"><path d="M23.977 6.416c-.105 2.338-1.739 5.543-4.894 9.609-3.268 4.247-6.026 6.37-8.29 6.37-1.409 0-2.578-1.294-3.553-3.881L5.322 11.4C4.603 8.816 3.834 7.522 3.01 7.522c-.179 0-.806.378-1.881 1.132L0 7.197a315.065 315.065 0 003.501-3.128C5.08 2.701 6.266 1.984 7.055 1.91c1.867-.18 3.016 1.1 3.447 3.838.465 2.953.789 4.789.971 5.507.539 2.45 1.131 3.674 1.776 3.674.502 0 1.256-.796 2.265-2.385 1.004-1.589 1.54-2.797 1.612-3.628.144-1.371-.395-2.061-1.614-2.061-.574 0-1.167.121-1.777.391 1.186-3.868 3.434-5.757 6.762-5.637 2.473.06 3.628 1.664 3.493 4.797l-.013.01z"/></symbol><symbol viewBox="0 0 24 24" id="icon-whatsapp"><path d="M17.472 14.382c-.297-.149-1.758-.867-2.03-.967-.273-.099-.471-.148-.67.15-.197.297-.767.966-.94 1.164-.173.199-.347.223-.644.075-.297-.15-1.255-.463-2.39-1.475-.883-.788-1.48-1.761-1.653-2.059-.173-.297-.018-.458.13-.606.134-.133.298-.347.446-.52.149-.174.198-.298.298-.497.099-.198.05-.371-.025-.52-.075-.149-.669-1.612-.916-2.207-.242-.579-.487-.5-.669-.51a12.8 12.8 0 00-.57-.01c-.198 0-.52.074-.792.372-.272.297-1.04 1.016-1.04 2.479 0 1.462 1.065 2.875 1.213 3.074.149.198 2.096 3.2 5.077 4.487.709.306 1.262.489 1.694.625.712.227 1.36.195 1.871.118.571-.085 1.758-.719 2.006-1.413.248-.694.248-1.289.173-1.413-.074-.124-.272-.198-.57-.347m-5.421 7.403h-.004a9.87 9.87 0 01-5.031-1.378l-.361-.214-3.741.982.998-3.648-.235-.374a9.86 9.86 0 01-1.51-5.26c.001-5.45 4.436-9.884 9.888-9.884 2.64 0 5.122 1.03 6.988 2.898a9.825 9.825 0 012.893 6.994c-.003 5.45-4.437 9.884-9.885 9.884m8.413-18.297A11.815 11.815 0 0012.05 0C5.495 0 .16 5.335.157 11.892c0 2.096.547 4.142 1.588 5.945L.057 24l6.305-1.654a11.882 11.882 0 005.683 1.448h.005c6.554 0 11.89-5.335 11.893-11.893a11.821 11.821 0 00-3.48-8.413z"/></symbol><symbol viewBox="0 0 24 24" id="icon-wikipedia"><path d="M12.09 13.119c-.936 1.932-2.217 4.548-2.853 5.728-.616 1.074-1.127.931-1.532.029-1.406-3.321-4.293-9.144-5.651-12.409-.251-.601-.441-.987-.619-1.139-.181-.15-.554-.24-1.122-.271C.103 5.033 0 4.982 0 4.898v-.455l.052-.045c.924-.005 5.401 0 5.401 0l.051.045v.434c0 .119-.075.176-.225.176l-.564.031c-.485.029-.727.164-.727.436 0 .135.053.33.166.601 1.082 2.646 4.818 10.521 4.818 10.521l.136.046 2.411-4.81-.482-1.067-1.658-3.264s-.318-.654-.428-.872c-.728-1.443-.712-1.518-1.447-1.617-.207-.023-.313-.05-.313-.149v-.468l.06-.045h4.292l.113.037v.451c0 .105-.076.15-.227.15l-.308.047c-.792.061-.661.381-.136 1.422l1.582 3.252 1.758-3.504c.293-.64.233-.801.111-.947-.07-.084-.305-.22-.812-.24l-.201-.021a.228.228 0 01-.145-.051.15.15 0 01-.067-.129v-.427l.061-.045c1.247-.008 4.043 0 4.043 0l.059.045v.436c0 .121-.059.178-.193.178-.646.03-.782.095-1.023.439-.12.186-.375.589-.646 1.039l-2.301 4.273-.065.135 2.792 5.712.17.048 4.396-10.438c.154-.422.129-.722-.064-.895-.197-.172-.346-.273-.857-.295l-.42-.016a.255.255 0 01-.152-.045c-.043-.029-.072-.075-.072-.119v-.436l.059-.045h4.961l.041.045v.437c0 .119-.074.18-.209.18-.648.03-1.127.18-1.443.421-.314.255-.557.616-.736 1.067 0 0-4.043 9.258-5.426 12.339-.525 1.007-1.053.917-1.503-.031-.571-1.171-1.773-3.786-2.646-5.71l.053-.036z"/></symbol><symbol viewBox="0 0 60 60" id="icon-windowed"><path d="M49.4 21L38 9.6c-1.1-1.1-3-.5-3.2 1.1l-2 13.4c-.2 1.3.9 2.3 2.1 2.1l13.4-2c1.6-.2 2.2-2.1 1.1-3.2z"/><path d="M48.9 4.5L37.5 15.9c-1.6 1.6-1.6 4.1 0 5.7 1.6 1.6 4.1 1.6 5.7 0l11.4-11.4c1.6-1.6 1.6-4.1 0-5.7-1.6-1.6-4.1-1.6-5.7 0zM20 9.6L8.6 21c-1.1 1.1-.5 3 1.1 3.2l13.4 2c1.3.2 2.3-.9 2.1-2.1l-2-13.4C23 9.1 21.1 8.5 20 9.6z"/><path d="M4.5 11.1l11.4 11.4c1.6 1.6 4.1 1.6 5.7 0 1.6-1.6 1.6-4.1 0-5.7L10.2 5.4c-1.6-1.6-4.1-1.6-5.7 0-1.6 1.6-1.6 4.1 0 5.7zM38 50.4L49.4 39c1.1-1.1.5-3-1.1-3.2l-13.4-2c-1.3-.2-2.3.9-2.1 2.1l2 13.4c.2 1.6 2.1 2.2 3.2 1.1z"/><path d="M54.5 48.9L43.1 37.5c-1.6-1.6-4.1-1.6-5.7 0-1.6 1.6-1.6 4.1 0 5.7l11.4 11.4c1.6 1.6 4.1 1.6 5.7 0 1.6-1.6 1.6-4.1 0-5.7zM8.6 39L20 50.4c1.1 1.1 3 .5 3.2-1.1l2-13.4c.2-1.3-.9-2.3-2.1-2.1l-13.4 2c-1.6.2-2.2 2.1-1.1 3.2z"/><path d="M10.1 55.5l11.4-11.4c1.6-1.6 1.6-4.1 0-5.7-1.6-1.6-4.1-1.6-5.7 0L4.4 49.8c-1.6 1.6-1.6 4.1 0 5.7 1.6 1.6 4.1 1.6 5.7 0z"/></symbol><symbol viewBox="0 0 24 24" id="icon-youtube"><path d="M23.495 6.205a3.007 3.007 0 00-2.088-2.088c-1.87-.501-9.396-.501-9.396-.501s-7.507-.01-9.396.501A3.007 3.007 0 00.527 6.205a31.247 31.247 0 00-.522 5.805 31.247 31.247 0 00.522 5.783 3.007 3.007 0 002.088 2.088c1.868.502 9.396.502 9.396.502s7.506 0 9.396-.502a3.007 3.007 0 002.088-2.088 31.247 31.247 0 00.5-5.783 31.247 31.247 0 00-.5-5.805zM9.609 15.601V8.408l6.264 3.602z"/></symbol><symbol viewBox="0 0 60 60" id="icon-zoom"><path d="M-242-72.4l2.9 33.3h14l3-33.3zm2.9 40.3h14v12.6h-14zm91.1-31.7v35.5c0 1.6 1.7 2.5 3 1.7l29.6-17.8c1.3-.8 1.3-2.7 0-3.4L-145-65.5c-1.3-.8-3 .2-3 1.7zM-42.1-46c-5.2 0-9.4-4.2-9.4-9.4s4.2-9.4 9.4-9.4 9.4 4.2 9.4 9.4c-.1 5.2-4.3 9.4-9.4 9.4m0-25c-8.6 0-15.6 7-15.6 15.6 0 15.6 15.6 34.4 15.6 34.4s15.6-18.8 15.6-34.4c0-8.6-7-15.6-15.6-15.6M-223.7 5.2c.1.1.3.1.4.2 1.2.5 2 1.1 2.3 1.3l7.9 7.9c.3.3.8 1.1 1.3 2.3.1.2.1.3.2.4h-12.2V5.2z"/><path d="M-211 55.3h-42.2V4.7h25.3v16.9h16.9zm100.4-29.9h-6.1v-3.1h6.1v3.1zM-132 46.6c-7.5 0-13.6-6.1-13.6-13.6s6.1-13.6 13.6-13.6 13.6 6.1 13.6 13.6-6.1 13.6-13.6 13.6m21.4-30.4h-10.7c-.8-3.1-1.5-6.1-4.6-6.1h-12.2c-3.1 0-3.8 3.1-4.6 6.1h-10.7c-1.7 0-3.1 1.4-3.1 3.1v27.5c0 1.7 1.4 3.1 3.1 3.1h42.8c1.7 0 3.1-1.4 3.1-3.1V19.3c0-1.7-1.4-3.1-3.1-3.1m-31.3 16.9c0 5.5 4.5 9.9 9.9 9.9 5.5 0 9.9-4.5 9.9-9.9 0-5.5-4.5-9.9-9.9-9.9-5.5-.1-9.9 4.4-9.9 9.9M-43.6 8c1.3-1.3 2.4-.9 2.4 1v42c0 1.8-1.1 2.3-2.4 1l-12.2-12.2H-64V20.3h8.1L-43.6 8zm7.5 33.6c-.6 0-1.2-.2-1.7-.7-1-1-1-2.5 0-3.4 4.1-4.1 4.1-10.8 0-14.9-1-1-1-2.5 0-3.4 1-1 2.5-1 3.4 0 6 6 6 15.8 0 21.8-.5.4-1.1.6-1.7.6m8.6 4.6c-.6 0-1.2-.2-1.7-.7-1-1-1-2.5 0-3.4 6.6-6.6 6.6-17.4 0-24.1-1-1-1-2.5 0-3.4 1-1 2.5-1 3.4 0 4.1 4.1 6.4 9.6 6.4 15.5s-2.3 11.3-6.4 15.5c-.5.4-1.1.6-1.7.6m-197.8 83c-1.3-.2-1.3-3.7-1.3-3.7s3.8-3.7 4.6-8.8c2.2 0 3.6-5.3 1.4-7.2.1-2 2.8-15.5-11.1-15.5s-11.2 13.6-11.1 15.5c-2.2 1.9-.8 7.2 1.4 7.2.8 5 4.6 8.8 4.6 8.8s0 3.5-1.3 3.7c-4.1.7-19.6 7.5-19.6 15h52.2c-.2-7.6-15.6-14.4-19.8-15m82.9-19.3h21.3v3h-21.3v-3zm0 18.2h21.3v3h-21.3v-3zm0-6.1h21.3v3h-21.3v-3zm0-6h21.3v3h-21.3v-3zm27.4 21.3h-33.5v-36.5h33.5v36.5zm1.6-42.7H-150c-2.5 0-4.6 2.1-4.6 4.6v39.6c0 2.5 2.1 4.6 4.6 4.6h36.5c2.5 0 4.6-2.1 4.6-4.6V99.2c0-2.5-2-4.6-4.5-4.6m71 2.3c13 0 23.6 8.6 23.6 19.2s-10.6 19.2-23.6 19.2c-1.2 0-2.5-.1-3.7-.2-5.1 5.1-11.1 6-17 6.1V140c3.2-1.5 5.9-4.4 5.9-7.6 0-.4 0-.9-.1-1.3-5.3-3.5-8.7-8.9-8.7-14.9 0-10.7 10.6-19.3 23.6-19.3m-179.9 119.4c-2.9 2.9-2.9 5.7-5.7 5.7-2.9 0-5.7-2.9-8.6-5.7-2.9-2.9-5.7-5.7-5.7-8.6s2.9-2.9 5.7-5.7c2.9-2.9-5.7-11.4-8.6-11.4s-8.6 8.6-8.6 8.6c0 5.7 5.9 17.3 11.4 22.8 5.6 5.6 17.1 11.4 22.8 11.4 0 0 8.6-5.7 8.6-8.6s-8.4-11.4-11.3-8.5m67.8 9.2h6.7v3.4h-6.7v-3.4zm-3.3-3.4v13.5h50.6v-13.5h-50.6zm20.2-13.5v-20.2h10.1v20.2h8.4l-13.5 13.5-13.5-13.5h8.5zm334.8 9.4l-19.6-19.8c-1.4-1.4-3.8-1.4-5.2 0-1.4 1.4-1.4 3.8 0 5.2l22.2 22.4c1.4 1.4 3.6 1.4 5 .1l22.4-22.4c1.4-1.4 1.4-3.8 0-5.2-1.4-1.4-3.8-1.4-5.2 0L197.2 218zm-90-12l19.6 19.8c1.4 1.4 3.8 1.4 5.2 0 1.4-1.4 1.4-3.8 0-5.2l-22.2-22.4c-1.4-1.4-3.6-1.4-5-.1l-22.4 22.4c-1.4 1.4-1.4 3.8 0 5.2 1.4 1.4 3.8 1.4 5.2 0l19.6-19.7zm-69.1 6l-19.8 19.6c-1.4 1.4-1.4 3.8 0 5.2 1.4 1.4 3.8 1.4 5.2 0l22.4-22.2c1.4-1.4 1.4-3.6.1-5l-22.4-22.4c-1.4-1.4-3.8-1.4-5.2 0-1.4 1.4-1.4 3.8 0 5.2L38.1 212zm-88.9 0l19.8-19.6c1.4-1.4 1.4-3.8 0-5.2s-3.8-1.4-5.2 0l-22.4 22.2c-1.4 1.4-1.4 3.6-.1 5l22.4 22.4c1.4 1.4 3.8 1.4 5.2 0 1.4-1.4 1.4-3.8 0-5.2L-50.8 212zm28.8 85h-42c-2.8 0-5 2.2-5 5s2.2 5 5 5h42c2.8 0 5-2.2 5-5s-2.2-5-5-5zm-302.6-4.1v18.2c0 1.1.9 2 2 2h1c1.1 0 2-.9 2-2v-18.2c0-1.1-.9-2-2-2h-1c-1-.1-2 .9-2 2zm11 0v18.2c0 1.1.9 2 2 2h1c1.1 0 2-.9 2-2v-18.2c0-1.1-.9-2-2-2h-1c-1-.1-2 .9-2 2zm362 20.4l-29.7-29.7c-2-2-5.1-2-7.1 0s-2 5.1 0 7.1l29.7 29.7c2 2 5.1 2 7.1 0 1.9-2 1.9-5.1 0-7.1z"/><path d="M41.3 283.6l-29.7 29.7c-2 2-2 5.1 0 7.1s5.1 2 7.1 0l29.7-29.7c2-2 2-5.1 0-7.1-2-1.9-5.1-1.9-7.1 0zM-111 297h-42c-2.8 0-5 2.2-5 5s2.2 5 5 5h42c2.8 0 5-2.2 5-5s-2.2-5-5-5z"/><path d="M-137 281v42c0 2.8 2.2 5 5 5s5-2.2 5-5v-42c0-2.8-2.2-5-5-5s-5 2.2-5 5zm-202.3-2l8.2 9.3c.8 1 2.3.7 2.6-.4l2.9-10.8c.3-1.1-.7-2.3-1.9-2.1l-11.1 1.5c-1.1.1-1.6 1.5-.7 2.5z"/><path d="M-317 330.8c-15.9 0-28.8-12.9-28.8-28.8 0-8.8 4-17 10.9-22.5 1.3-1 3.2-.8 4.2.5s.8 3.2-.5 4.2c-5.5 4.4-8.6 10.9-8.6 17.8 0 12.6 10.2 22.8 22.8 22.8 12.6 0 22.8-10.2 22.8-22.8s-10.2-22.8-22.8-22.8c-1.7 0-3-1.3-3-3s1.3-3 3-3c15.9 0 28.8 12.9 28.8 28.8s-12.9 28.8-28.8 28.8zm77.9-38.2v19.5c0 .9 1 1.4 1.7 1l16.3-9.8c.7-.4.7-1.5 0-2l-16.3-9.8c-.7-.3-1.7.2-1.7 1.1zm-15.2-13.6l8.2 9.3c.8 1 2.3.7 2.6-.4l2.9-10.8c.3-1.1-.7-2.3-1.9-2.1l-11.1 1.5c-1.1.1-1.6 1.5-.7 2.5z"/><path d="M-232 330.9c-15.9 0-28.8-12.9-28.8-28.8 0-8.8 4-17 10.9-22.5 1.3-1 3.2-.8 4.2.5s.8 3.2-.5 4.2c-5.5 4.4-8.6 10.9-8.6 17.8 0 12.6 10.2 22.8 22.8 22.8 12.6 0 22.8-10.2 22.8-22.8s-10.2-22.8-22.8-22.8c-1.7 0-3-1.3-3-3s1.3-3 3-3c15.9 0 28.8 12.9 28.8 28.8s-12.9 28.8-28.8 28.8zm86.9 61.1h25.9c1.7 0 2.7-2 1.5-3.3l-12.9-15.4c-.8-1-2.3-1-3.1 0l-12.9 15.4c-1.2 1.3-.2 3.3 1.5 3.3z"/><path d="M-132 416c-15.4 0-28-12.6-28-28s12.6-28 28-28 28 12.6 28 28-12.6 28-28 28zm0-50c-12.1 0-22 9.9-22 22s9.9 22 22 22 22-9.9 22-22-9.9-22-22-22z"/><path d="M-128 385h-8c-1.1 0-2 .9-2 2v14c0 1.1.9 2 2 2h8c1.1 0 2-.9 2-2v-14c0-1.1-.9-2-2-2zM-303.6-23.8l-.8 3.2c-2.4.9-4.3 1.6-5.7 2.1-1.4.5-3.1.7-4.9.7-2.9 0-5.1-.7-6.7-2.1-1.6-1.4-2.4-3.2-2.4-5.3 0-.8.1-1.7.2-2.6.1-.9.3-1.9.6-3l3-10.5c.3-1 .5-2 .7-2.9.2-.9.3-1.7.3-2.5 0-1.3-.3-2.3-.8-2.8-.6-.5-1.6-.8-3.2-.8-.8 0-1.6.1-2.4.4-.8.2-1.5.5-2.1.7l.8-3.2c1.9-.8 3.8-1.5 5.6-2 1.8-.6 3.5-.8 5-.8 2.9 0 5.1.7 6.6 2.1 1.5 1.4 2.3 3.2 2.3 5.4 0 .5-.1 1.3-.2 2.4-.1 1.1-.3 2.2-.6 3.2l-3 10.5c-.2.8-.5 1.8-.6 2.9-.2 1.1-.3 1.9-.3 2.4 0 1.4.3 2.3.9 2.8.6.5 1.7.8 3.2.8.7 0 1.5-.1 2.4-.4 1-.3 1.6-.5 2.1-.7zm.7-43.9c0 1.8-.7 3.4-2.1 4.7-1.4 1.3-3 1.9-5 1.9s-3.6-.6-5-1.9c-1.4-1.3-2.1-2.8-2.1-4.7 0-1.8.7-3.4 2.1-4.7 1.4-1.3 3.1-1.9 5-1.9s3.6.6 5 1.9c1.4 1.3 2.1 2.9 2.1 4.7zm5.3 446.7l-11.4-11.4c-1.1-1.1-3-.5-3.2 1.1l-2 13.4c-.2 1.3.9 2.3 2.1 2.1l13.4-2c1.6-.2 2.2-2.1 1.1-3.2z"/><path d="M-298.1 362.5l-11.4 11.4c-1.6 1.6-1.6 4.1 0 5.7 1.6 1.6 4.1 1.6 5.7 0l11.4-11.4c1.6-1.6 1.6-4.1 0-5.7-1.6-1.6-4.1-1.6-5.7 0zm-28.9 5.1l-11.4 11.4c-1.1 1.1-.5 3 1.1 3.2l13.4 2c1.3.2 2.3-.9 2.1-2.1l-2-13.4c-.2-1.6-2.1-2.2-3.2-1.1z"/><path d="M-342.5 369.1l11.4 11.4c1.6 1.6 4.1 1.6 5.7 0 1.6-1.6 1.6-4.1 0-5.7l-11.4-11.4c-1.6-1.6-4.1-1.6-5.7 0-1.6 1.6-1.6 4.1 0 5.7zm33.5 39.3l11.4-11.4c1.1-1.1.5-3-1.1-3.2l-13.4-2c-1.3-.2-2.3.9-2.1 2.1l2 13.4c.2 1.6 2.1 2.2 3.2 1.1z"/><path d="M-292.5 406.9l-11.4-11.4c-1.6-1.6-4.1-1.6-5.7 0-1.6 1.6-1.6 4.1 0 5.7l11.4 11.4c1.6 1.6 4.1 1.6 5.7 0 1.6-1.6 1.6-4.1 0-5.7zm-45.9-9.9l11.4 11.4c1.1 1.1 3 .5 3.2-1.1l2-13.4c.2-1.3-.9-2.3-2.1-2.1l-13.4 2c-1.6.2-2.2 2.1-1.1 3.2z"/><path d="M-336.9 413.5l11.4-11.4c1.6-1.6 1.6-4.1 0-5.7-1.6-1.6-4.1-1.6-5.7 0l-11.4 11.4c-1.6 1.6-1.6 4.1 0 5.7 1.6 1.6 4.1 1.6 5.7 0zm83.4-34.7l11.4-11.4c1.1-1.1.5-3-1.1-3.2l-13.4-2c-1.3-.2-2.3.9-2.1 2.1l2 13.4c.3 1.6 2.1 2.2 3.2 1.1zm11.3 30.7l-11.4-11.4c-1.1-1.1-3-.5-3.2 1.1l-2 13.4c-.2 1.3.9 2.3 2.1 2.1l13.4-2c1.6-.3 2.2-2.1 1.1-3.2zm30.7-12.3l-11.4 11.4c-1.1 1.1-.5 3 1.1 3.2l13.4 2c1.3.2 2.3-.9 2.1-2.1l-2-13.4c-.3-1.6-2.1-2.2-3.2-1.1zm-11.3-30.7l11.4 11.4c1.1 1.1 3 .5 3.2-1.1l2-13.4c.2-1.3-.9-2.3-2.1-2.1l-13.4 2c-1.6.3-2.2 2.1-1.1 3.2z"/><path d="M-222.3 383l11.4-11.4c1.6-1.6 1.6-4.1 0-5.7-1.6-1.6-4.1-1.6-5.7 0l-11.4 11.4c-1.6 1.6-1.6 4.1 0 5.7 1.6 1.6 4.1 1.6 5.7 0zm-15.7-5.7l-11.4-11.4c-1.6-1.6-4.1-1.6-5.7 0-1.6 1.6-1.6 4.1 0 5.7l11.4 11.4c1.6 1.6 4.1 1.6 5.7 0 1.6-1.6 1.6-4.1 0-5.7zm10 21.4l11.4 11.4c1.6 1.6 4.1 1.6 5.7 0 1.6-1.6 1.6-4.1 0-5.7l-11.4-11.4c-1.6-1.6-4.1-1.6-5.7 0-1.6 1.6-1.6 4.1 0 5.7zm-15.7-5.7l-11.4 11.4c-1.6 1.6-1.6 4.1 0 5.7 1.6 1.6 4.1 1.6 5.7 0l11.4-11.4c1.6-1.6 1.6-4.1 0-5.7-1.6-1.6-4.1-1.6-5.7 0zm192 .7c-1-.8-2.5-.2-2.6 1.1l-.3 4.1c-8.2-1.9-12.9-5.7-12.9-8.8 0-2.3 2.4-4.3 3.9-5.2 1.2-.8 1.5-2.3.7-3.5-.8-1.2-2.3-1.5-3.5-.7-5.1 3.3-6.1 6.9-6.1 9.4 0 6.3 6.9 11.6 17.6 13.9l-.3 4.3c-.1 1.3 1.3 2.1 2.4 1.4l9.5-6.1c.9-.6 1-1.8.2-2.5l-8.6-7.4zm-2.9-10.1c-.4 0-.8-.1-1.2-.2-.3-.2-.6-.4-.8-.6-.2-.3-.4-.6-.5-1-.1-.4-.2-.8-.2-1.2h-2.9c0 .9.1 1.7.4 2.3.3.7.6 1.3 1.1 1.7.5.5 1.1.8 1.8 1.1.7.2 1.5.4 2.3.4.7 0 1.4-.1 2.1-.3.7-.2 1.3-.5 1.8-1s.9-.9 1.2-1.6c.3-.6.5-1.3.5-2.1 0-.9-.2-1.6-.7-2.2-.5-.6-1.1-1-2-1.2.7-.2 1.2-.6 1.6-1.1s.5-1.2.5-1.9-.2-1.3-.5-1.8-.7-1-1.2-1.3c-.5-.4-1-.6-1.6-.8s-1.2-.3-1.8-.3c-.8 0-1.5.1-2.1.4-.6.3-1.2.6-1.6 1.1-.5.5-.8 1-1.1 1.7-.3.6-.4 1.4-.4 2.1h2.9c0-.8.2-1.4.6-1.9.4-.5 1-.8 1.8-.8.6 0 1.1.2 1.5.5.4.3.7.8.7 1.5 0 .4-.1.8-.3 1-.2.3-.5.5-.8.6-.3.1-.7.2-1.1.2h-1.1v2.2h1.2c.4 0 .8.1 1.1.2.3.1.6.4.9.7.2.3.3.7.3 1.3 0 .7-.2 1.3-.7 1.7s-1 .6-1.7.6zm17-.9c.3-.7.4-1.4.4-2.2 0-.6-.1-1.2-.3-1.8s-.5-1.1-.9-1.6-1-.9-1.6-1.1c-.6-.3-1.3-.4-1.9-.4-.7 0-1.4.1-1.9.4-.6.3-1.1.7-1.5 1.3 0-.4.1-.9.2-1.4.1-.5.3-1 .5-1.5s.5-.9.9-1.2c.4-.3.8-.5 1.4-.5.5 0 1 .2 1.3.6.4.4.6.8.7 1.3h2.9c-.1-.7-.3-1.3-.5-1.8-.3-.5-.6-1-1.1-1.3-.4-.4-.9-.6-1.5-.8-.6-.2-1.2-.3-1.8-.3-1.1 0-2 .2-2.8.7-.8.5-1.4 1.1-1.8 1.9s-.8 1.6-1 2.5c-.2.9-.3 1.9-.3 2.8 0 1 .1 1.9.3 2.8.2.9.5 1.8.9 2.5s1 1.3 1.8 1.8 1.7.7 2.8.7c.8 0 1.5-.1 2.2-.4s1.2-.7 1.7-1.2c.3-.5.7-1.1.9-1.8zm-2.8-.9c-.1.3-.3.6-.5.9-.2.3-.4.5-.7.6-.3.2-.6.2-1 .2s-.7-.1-1-.2c-.3-.2-.6-.4-.8-.6-.2-.3-.4-.6-.5-.9-.1-.3-.2-.7-.2-1 0-.4 0-.7.2-1.1.1-.3.3-.6.5-.9.2-.3.5-.5.8-.6.3-.2.7-.2 1.1-.2.4 0 .7.1 1 .2s.5.4.7.6c.2.3.3.6.4.9.1.3.1.7.1 1 0 .4 0 .8-.1 1.1zm5.5 2.6c.5.6 1.1 1 1.8 1.3.7.3 1.4.4 2.1.4.8 0 1.5-.1 2.2-.4.7-.3 1.3-.7 1.8-1.3.5-.6.9-1.4 1.2-2.4.3-1 .4-2.3.4-3.8s-.1-2.7-.4-3.7c-.3-1-.7-1.8-1.2-2.4s-1.1-1-1.8-1.3c-.7-.3-1.4-.4-2.2-.4-.8 0-1.5.1-2.1.4-.7.3-1.3.7-1.8 1.3-.5.6-.9 1.4-1.2 2.4-.3 1-.4 2.2-.4 3.7s.1 2.8.4 3.8c.3 1 .7 1.8 1.2 2.4zm1.5-7.2c0-.4 0-.7.1-1.1 0-.4.1-.8.2-1.2.1-.4.2-.7.4-1 .2-.3.4-.5.7-.7.3-.2.6-.3 1.1-.3s.8.1 1.1.3c.3.2.5.4.7.7.2.3.3.6.4 1 .1.4.2.8.2 1.2 0 .4.1.8.1 1.1v2.5c0 .6-.1 1.2-.3 1.8s-.4 1.1-.7 1.5c-.3.4-.8.6-1.5.6-.6 0-1.1-.2-1.4-.6s-.6-.9-.7-1.5c-.2-.6-.2-1.2-.3-1.8v-1.6c-.1-.2-.1-.5-.1-.9zm13.8 3.4c-1.2-.8-2.7-.4-3.5.7s-.4 2.7.7 3.5c1.4.9 3.9 2.9 3.9 5.2 0 3.9-7.2 8.7-19.3 9.9-1.4.1-2.4 1.4-2.3 2.7.1 1.3 1.2 2.3 2.5 2.3h.2c14-1.3 23.8-7.4 23.8-14.8.1-2.6-1-6.2-6-9.5z"/><path d="M44.7 117.3v-1.9l-3.1.2v.5l.1 1.8v1.2c0 2.3-.2 4.8-.5 7.2 1.1-.3 2.2-.7 3.3-1.1.2-2 .4-4 .4-6.1v-1l-.2-.8zm-31.5 13.3l-8.5-2.5 1.7-1.8c-2.1-2-3.7-4.5-3.7-7.5 0-2.3.9-4.3 2.3-6.1 2.1-2.6 5.1-4.4 8.4-5.8-.3 1.2-.5 2.5-.7 3.7-1.5.7-2.8 1.6-4 2.6-1.4 1.3-2.6 2.8-2.9 4.7-.2 1.3.1 2.5.7 3.6.5.9 1.2 1.8 2 2.5l1.7-1.8 3 8.4zm10.7-26.3c2.1-.3 4.2-.4 6.1-.4 4.5 0 9 .6 13.2 1.8 5.9 1.7 14 5.9 14 13 0 2.3-.9 4.3-2.3 6.1-5.4 6.6-16.9 8.7-25 8.7-2.2 0-4.6-.1-6.8-.5l.4-3c2.1.3 4.3.4 6.4.4 6.8 0 15.9-1.6 21.2-6.2 1.6-1.4 2.9-3.3 3-5.5 0-3.7-3.6-6.3-6.5-7.9-5.3-2.8-11.8-3.8-17.7-3.8-2.2 0-4.7.2-7.2.6.4-1.1.7-2.2 1.2-3.3zM38.1 136c1.2-.2 2.5-.4 3.7-.7-2.1 5.2-6 10.7-11.8 10.7-2.3 0-4.3-.9-6.1-2.3-6.6-5.4-8.7-16.9-8.7-25 0-4.5.6-9 1.8-13.2 1.7-5.9 5.9-14 13-14 3.7 0 6.6 2.3 8.7 5.1l2-1.5 1.5 8.8-7.9-4 2-1.5c-1.5-2-3.7-3.9-6.3-3.9-3.7 0-6.3 3.6-7.9 6.5-2.8 5.3-3.8 11.8-3.8 17.7 0 6.8 1.6 15.9 6.2 21.2 1.4 1.6 3.3 2.9 5.5 3 3.7 0 6.3-3.6 7.9-6.5l.2-.4z" fill-rule="evenodd" clip-rule="evenodd"/><path d="M138 97.6l-5.5-4.8c-.3-.3-.8-.4-1.2-.2-.4.2-.7.6-.7 1.1v1.9l-10.9 1.7c-.6.1-1.1.6-1.1 1.3 0 .6.4 1.2 1.1 1.3l10.9 1.7v1.9c0 .4.3.8.7 1.1.4.2.9.1 1.2-.2l5.5-4.8c.2-.2.4-.5.4-.8 0-.7-.2-1-.4-1.2zm-32.9.9c0-.6-.4-1.2-1.1-1.3l-10.9-1.7v-1.9c0-.4-.3-.8-.7-1.1-.4-.2-.9-.1-1.2.2l-5.5 4.8c-.2.2-.4.5-.4.8 0 .3.2.6.4.8l5.5 4.8c.3.3.8.4 1.2.2.4-.2.7-.6.7-1.1v-1.9l10.9-1.7c.6.2 1.1-.3 1.1-.9zm26.7 16.8c-1.3-.2-2.5.3-3.3 1.2-.4-1.6-1.9-2.9-3.7-2.9-1.1 0-2.2.5-2.9 1.3-.5-1.5-1.9-2.6-3.6-2.6-1 0-2 .4-2.6 1.1V99.2c0-1.9-1.3-3.7-3.3-3.9-2.3-.3-4.3 1.5-4.3 3.8v25.4c0 .5-.7.7-1 .3l-4.4-6.6c-1-1.6-3.3-1.9-5-.7-1.7 1.1-2.3 3.4-1.3 4.9 0 0 12.2 18.5 12.4 18.7 2.2 3.1 5.8 5 9.7 5h4.4c6.6 0 12-5.3 12-11.8v-14.9c.2-2.2-1.2-3.9-3.1-4.1zM24.5-17.4c-1.4 0-2.5-1.1-2.5-2.5v-51.2c0-1.4 1.1-2.5 2.5-2.5s2.5 1.1 2.5 2.5v51.2c0 1.4-1.1 2.5-2.5 2.5z"/><path d="M27-61h-5v-1.5h-1.5v-5H27zM16.3-24.5H9.7c-.8 0-1.6-.1-2.3-.3l1.4-4.8c.3.1.6.1.9.1h6.6v5zM2.8-28.3c-.8-1.3-1.3-2.8-1.3-4.4v-5h5v5c0 .6.2 1.2.5 1.7l-4.2 2.7zm3.7-13.6h-5v-8.3h5v8.3zm0-12.4h-5v-5c0-1.6.4-3.1 1.3-4.4L7-61c-.3.5-.5 1.1-.5 1.7v5zm2.3-8.1l-1.4-4.8c.7-.2 1.5-.3 2.3-.3h6.7v5H9.7c-.3 0-.6 0-.9.1zM27-24.5h-6.5v-5H22V-31h5zm0-10.8h-5v-8.6h5v8.6zm0-12.8h-5v-8.6h5v8.6z"/><path d="M50.3-24.5H22v-43h28.3c4.5 0 8.2 3.7 8.2 8.2v26.6c0 4.5-3.7 8.2-8.2 8.2zm-23.3-5h23.3c1.8 0 3.2-1.4 3.2-3.2v-26.6c0-1.8-1.4-3.2-3.2-3.2H27v33zm91.3-41H80.2c-4.5 0-8.2 3.7-8.2 8.2v22.6c0 4.5 3.7 8.2 8.2 8.2h14.1l-.5-5H80.2c-1.8 0-3.2-1.4-3.2-3.2v-22.6c0-1.8 1.4-3.2 3.2-3.2h38.1c1.8 0 3.2 1.4 3.2 3.2v22.6c0 1.8-1.4 3.2-3.2 3.2h-.5c.4.8.6 1.8.4 2.7-.2 1-.8 1.8-1.6 2.3h1.7c4.5 0 8.2-3.7 8.2-8.2v-22.6c0-4.5-3.7-8.2-8.2-8.2z"/><path d="M107.8-31.5c-.2-.5.1-1 .6-1.1 2.1-.4 4.1-.8 6.2-1.2.7-.1.9-1.1.3-1.5-.5-.4-1-.8-1.6-1.2H96.7l.5 5h10.6z"/><path d="M103.9-30c.3 0 .6.1.7.4 1.8 3.2 3.6 6.4 5.4 9.5.2.3.4.4.7.4.1 0 .3 0 .4-.1.6-.4 1.3-.8 1.9-1.1.4-.2.5-.7.3-1.1-1.9-3.2-3.7-6.3-5.5-9.4-.3-.5 0-1.1.6-1.2 2.1-.4 4.1-.8 6.2-1.2.7-.1.9-1.1.3-1.5-6.1-4.6-12.1-9.1-18.1-13.6-.2-.1-.3-.2-.5-.2-.5 0-.9.4-.8.9l2.4 22.6c.1.5.4.7.8.7.2 0 .5-.1.6-.3 1.3-1.5 2.6-3 3.9-4.6.2-.1.4-.2.7-.2zM25.5 48.4c-12.6 0-22.9-10.3-22.9-22.9S12.9 2.6 25.5 2.6s22.9 10.3 22.9 22.9-10.2 22.9-22.9 22.9zm0-39.2c-9 0-16.3 7.3-16.3 16.3s7.3 16.3 16.3 16.3 16.3-7.3 16.3-16.3S34.5 9.2 25.5 9.2z"/><path d="M52.7 57.4c-1.2 0-2.4-.5-3.3-1.4L38.5 45.2c-1.8-1.8-1.8-4.8 0-6.7 1.8-1.8 4.8-1.8 6.7 0L56 49.3c1.8 1.8 1.8 4.8 0 6.7-.9 1-2.1 1.4-3.3 1.4zM16.3 22.9h18.9v5.7H16.3z"/><path d="M22.9 16.3h5.7v18.9h-5.7z"/></symbol></svg>