<svg xmlns="http://www.w3.org/2000/svg" viewBox="0 0 60 60"><path d="M30 3C15.1 3 3 15.1 3 30s12.1 27 27 27 27-12.1 27-27S44.9 3 30 3zm6.4 42.3c-1.4.6-2.6 1-3.4 1.2s-2 .5-3 .5c-1.7 0-3.1-.4-4-1.2-1-.9-1.4-1.9-1.4-3.1 0-.5.1-1 .1-1.5.1-.6.2-1.1.4-1.8l1.8-6.3c.2-.6.3-1.2.4-1.7.1-.6.2-1 .2-1.5 0-.8-.2-1.4-.5-1.7-.4-.3-1-.5-1.9-.5-.5 0-1 .1-1.4.3-.5.1-.9.3-1.2.4l.5-1.9c1.1-.5 2.3-.9 3.3-1.2 1-.4 2.1-.5 3.1-.5 1.7 0 3.1.4 4 1.2.9.9 1.4 1.9 1.4 3.2 0 .3-.1.8-.1 1.4-.1.7-.2 1.3-.4 1.9l-1.8 6.3c-.1.5-.3 1-.4 1.7s-.2 1.1-.2 1.4c0 .9.2 1.4.6 1.7s1 .5 1.9.5c.4 0 .9-.1 1.4-.3.5 0 .9-.1 1.1-.3l-.5 1.8zM36 19.9c-.9.8-1.8 1.1-3 1.1s-2.2-.4-3.1-1.1c-.9-.8-1.2-1.7-1.2-2.9 0-1 .4-2 1.2-2.9.9-.8 1.9-1.1 3.1-1.1 1.1 0 2.2.4 3.1 1.1.9.9 1.2 1.8 1.2 2.9-.1 1.1-.4 2-1.3 2.9z"/></svg>