<svg xmlns="http://www.w3.org/2000/svg" viewBox="0 0 60 60"><path d="M40.4 52.2l-.8 3.2c-2.4.9-4.3 1.6-5.7 2.1-1.4.5-3.1.7-4.9.7-2.9 0-5.1-.7-6.7-2.1-1.6-1.4-2.4-3.2-2.4-5.3 0-.8.1-1.7.2-2.6.1-.9.3-1.9.6-3l3-10.5c.3-1 .5-2 .7-2.9.2-.9.3-1.7.3-2.5 0-1.3-.3-2.3-.8-2.8-.6-.5-1.6-.8-3.2-.8-.8 0-1.6.1-2.4.4-.8.2-1.5.5-2.1.7l.8-3.2c1.9-.8 3.8-1.5 5.6-2 1.8-.6 3.5-.8 5-.8 2.9 0 5.1.7 6.6 2.1 1.5 1.4 2.3 3.2 2.3 5.4 0 .5-.1 1.3-.2 2.4-.1 1.1-.3 2.2-.6 3.2l-3 10.5c-.2.8-.5 1.8-.6 2.9-.2 1.1-.3 1.9-.3 2.4 0 1.4.3 2.3.9 2.8.6.5 1.7.8 3.2.8.7 0 1.5-.1 2.4-.4s1.6-.5 2.1-.7zm.7-43.9c0 1.8-.7 3.4-2.1 4.7-1.4 1.3-3 1.9-5 1.9s-3.6-.6-5-1.9c-1.4-1.3-2.1-2.8-2.1-4.7 0-1.8.7-3.4 2.1-4.7 1.4-1.3 3.1-1.9 5-1.9s3.6.6 5 1.9c1.4 1.3 2.1 2.9 2.1 4.7z"/></svg>