<svg xmlns="http://www.w3.org/2000/svg" viewBox="0 0 256 256"><path d="M103.1 159.7V150c0-8.4 1.8-15.6 5.4-21.8 3.6-6.2 10.1-12.7 19.6-19.7 9.1-6.5 15.2-11.8 18.1-15.9 2.9-4.1 4.4-8.7 4.4-13.7 0-5.7-2.1-10-6.3-12.9-4.2-3-10-4.4-17.5-4.4-13.1 0-27.9 4.3-44.6 12.8L67.8 45.8c19.4-10.9 40-16.3 61.7-16.3 17.9 0 32.2 4.3 42.8 12.9 10.6 8.6 15.9 20.1 15.9 34.5 0 9.6-2.2 17.8-6.5 24.8-4.4 7-12.6 14.8-24.8 23.5-8.4 6.2-13.6 10.9-15.9 14.1-2.2 3.2-3.3 7.4-3.3 12.7v7.8h-34.6zm-4.2 44.7c0-7.3 2-12.8 5.9-16.6 3.9-3.7 9.6-5.6 17.1-5.6 7.2 0 12.8 1.9 16.8 5.7 4 3.8 5.9 9.3 5.9 16.4 0 6.9-2 12.3-6 16.3s-9.6 5.9-16.7 5.9c-7.3 0-13-1.9-17-5.8-4-3.8-6-9.3-6-16.3z"/></svg>