<svg version="1.1" id="Layer_1" xmlns="http://www.w3.org/2000/svg" x="0" y="0" viewBox="0 0 60 60" xml:space="preserve"><style/><path d="M56 8.6l-5.5-4.8c-.3-.3-.8-.4-1.2-.2-.4.2-.7.6-.7 1.1v1.9L37.7 8.2c-.6.1-1.1.6-1.1 1.3 0 .6.4 1.2 1.1 1.3l10.9 1.7v1.9c0 .4.3.8.7 1.1.4.2.9.1 1.2-.2l5.5-4.8c.2-.2.4-.5.4-.8 0-.6-.2-.9-.4-1.1zm-32.9.9c0-.6-.4-1.2-1.1-1.3L11.1 6.5V4.6c0-.4-.3-.8-.7-1.1-.4-.2-.9-.1-1.2.2L3.7 8.5c-.3.2-.4.5-.4.8s.2.6.4.8L9.2 15c.3.3.8.4 1.2.2.4-.2.7-.6.7-1.1v-1.9L22 10.5c.6.1 1.1-.4 1.1-1zm26.7 16.8c-1.3-.2-2.5.3-3.3 1.2-.4-1.6-1.9-2.9-3.7-2.9-1.1 0-2.2.5-2.9 1.3-.5-1.5-1.9-2.6-3.6-2.6-1 0-2 .4-2.6 1.1V10.2c0-1.9-1.3-3.7-3.3-3.9-2.3-.3-4.3 1.5-4.3 3.8v25.4c0 .5-.7.7-1 .3l-4.4-6.6c-1-1.6-3.3-1.9-5-.7-1.7 1.1-2.3 3.4-1.3 4.9 0 0 12.2 18.5 12.4 18.7 2.2 3.1 5.8 5 9.7 5H41c6.6 0 12-5.3 12-11.8V30.2c.1-2-1.3-3.7-3.2-3.9z"/></svg>