<svg version="1.1" id="Layer_1" xmlns="http://www.w3.org/2000/svg" x="0" y="0" viewBox="0 0 60 60" xml:space="preserve"><style/><path d="M50.5 39.3v-6.6c0-2.9-2.3-5.2-5.2-5.2H17.7c-.1 0-.2-.1-.2-.2v-6.6c4.3-1.1 7.5-5 7.5-9.7 0-5.5-4.5-10-10-10S5 5.5 5 11c0 4.7 3.2 8.6 7.5 9.7v6.6c0 2.9 2.3 5.2 5.2 5.2h27.6c.1 0 .2.1.2.2v6.6c-4.3 1.1-7.5 5-7.5 9.7 0 5.5 4.5 10 10 10s10-4.5 10-10c0-4.7-3.2-8.6-7.5-9.7zM11 11c0-2.2 1.8-4 4-4s4 1.8 4 4-1.8 4-4 4-4-1.8-4-4zm37 42c-2.2 0-4-1.8-4-4s1.8-4 4-4 4 1.8 4 4-1.8 4-4 4z"/></svg>