<svg xmlns="http://www.w3.org/2000/svg" viewBox="0 0 60 60"><path d="M49.4 21L38 9.6c-1.1-1.1-3-.5-3.2 1.1l-2 13.4c-.2 1.3.9 2.3 2.1 2.1l13.4-2c1.6-.2 2.2-2.1 1.1-3.2z"/><path d="M48.9 4.5L37.5 15.9c-1.6 1.6-1.6 4.1 0 5.7 1.6 1.6 4.1 1.6 5.7 0l11.4-11.4c1.6-1.6 1.6-4.1 0-5.7-1.6-1.6-4.1-1.6-5.7 0zM20 9.6L8.6 21c-1.1 1.1-.5 3 1.1 3.2l13.4 2c1.3.2 2.3-.9 2.1-2.1l-2-13.4C23 9.1 21.1 8.5 20 9.6z"/><path d="M4.5 11.1l11.4 11.4c1.6 1.6 4.1 1.6 5.7 0 1.6-1.6 1.6-4.1 0-5.7L10.2 5.4c-1.6-1.6-4.1-1.6-5.7 0-1.6 1.6-1.6 4.1 0 5.7zM38 50.4L49.4 39c1.1-1.1.5-3-1.1-3.2l-13.4-2c-1.3-.2-2.3.9-2.1 2.1l2 13.4c.2 1.6 2.1 2.2 3.2 1.1z"/><path d="M54.5 48.9L43.1 37.5c-1.6-1.6-4.1-1.6-5.7 0-1.6 1.6-1.6 4.1 0 5.7l11.4 11.4c1.6 1.6 4.1 1.6 5.7 0 1.6-1.6 1.6-4.1 0-5.7zM8.6 39L20 50.4c1.1 1.1 3 .5 3.2-1.1l2-13.4c.2-1.3-.9-2.3-2.1-2.1l-13.4 2c-1.6.2-2.2 2.1-1.1 3.2z"/><path d="M10.1 55.5l11.4-11.4c1.6-1.6 1.6-4.1 0-5.7-1.6-1.6-4.1-1.6-5.7 0L4.4 49.8c-1.6 1.6-1.6 4.1 0 5.7 1.6 1.6 4.1 1.6 5.7 0z"/></svg>