<?xml version="1.0" encoding="utf-8"?>
<!-- Generator: Adobe Illustrator 26.0.1, SVG Export Plug-In . SVG Version: 6.00 Build 0)  -->
<svg version="1.1" id="Layer_1" xmlns="http://www.w3.org/2000/svg" xmlns:xlink="http://www.w3.org/1999/xlink" x="0px" y="0px"
	 viewBox="0 0 60 60" style="enable-background:new 0 0 60 60;" xml:space="preserve">
<g>
	<path d="M30,59C14,59,1,46,1,30C1,14,14,1,30,1s29,13,29,29C59,46,46,59,30,59z M30,5C16.2,5,5,16.2,5,30s11.2,25,25,25
		c13.8,0,25-11.2,25-25S43.8,5,30,5z"/>
</g>
<g>
	<path d="M30,18.9c-2.4,0-4.3-1.9-4.3-4.3s1.9-4.3,4.3-4.3s4.3,1.9,4.3,4.3C34.3,16.9,32.4,18.9,30,18.9z"/>
	<path d="M43.6,18.9L43.6,18.9L43.6,18.9L43.6,18.9c-0.1,0-0.2,0.1-0.3,0.1c-1.4,0.4-8.4,2.4-13.4,2.4c-4.6,0-10.9-1.7-13-2.3
		c-0.2-0.1-0.4-0.1-0.6-0.2c-1.5-0.4-2.5,1.1-2.5,2.5c0,1.4,1.2,2,2.4,2.5v0l7.4,2.3c0.8,0.3,1,0.6,1.1,0.8c0.3,0.8,0.1,2.4,0,3
		l-0.4,3.5l-2.5,13.6c0,0,0,0.1,0,0.1l0,0.1l0,0c-0.2,1.2,0.7,2.5,2.5,2.5c1.5,0,2.2-1,2.5-2.5l0,0c0,0,2.2-12.2,3.3-12.2
		s3.3,12.2,3.3,12.2l0,0c0.3,1.4,1,2.5,2.5,2.5c1.7,0,2.7-1.2,2.5-2.5c0-0.1,0-0.2-0.1-0.3l-2.5-13.5L35.2,30c-0.3-2-0.1-2.7,0-2.9
		c0,0,0,0,0,0c0.1-0.2,0.5-0.5,1.4-0.8l6.9-2.4c0,0,0.1,0,0.1,0c1.2-0.5,2.5-1.1,2.5-2.5C46.1,20,45.1,18.5,43.6,18.9z"/>
</g>
</svg>
