<?xml version="1.0" encoding="utf-8"?>
<!-- Generator: Adobe Illustrator 24.1.3, SVG Export Plug-In . SVG Version: 6.00 Build 0)  -->
<svg version="1.1" id="Layer_1" xmlns="http://www.w3.org/2000/svg" xmlns:xlink="http://www.w3.org/1999/xlink" x="0px" y="0px"
	 viewBox="0 0 60 60" style="enable-background:new 0 0 60 60;" xml:space="preserve">
<g>
	<path d="M29.4,8c1.3-1.3,2.4-0.9,2.4,1v42c0,1.8-1.1,2.3-2.4,1L17.1,39.7H9V20.3h8.1L29.4,8z M36.9,41.6c-0.6,0-1.2-0.2-1.7-0.7
		c-1-1-1-2.5,0-3.4c4.1-4.1,4.1-10.8,0-14.9c-1-1-1-2.5,0-3.4c1-1,2.5-1,3.4,0c6,6,6,15.8,0,21.8C38.1,41.4,37.5,41.6,36.9,41.6
		 M45.5,46.2c-0.6,0-1.2-0.2-1.7-0.7c-1-1-1-2.5,0-3.4c6.6-6.6,6.6-17.4,0-24.1c-1-1-1-2.5,0-3.4c1-1,2.5-1,3.4,0
		c4.1,4.1,6.4,9.6,6.4,15.5s-2.3,11.3-6.4,15.5C46.7,46,46.1,46.2,45.5,46.2"/>
</g>
</svg>
