<?xml version="1.0" encoding="utf-8"?>
<!-- Generator: Adobe Illustrator 24.1.3, SVG Export Plug-In . SVG Version: 6.00 Build 0)  -->
<svg version="1.1" id="Layer_1" xmlns="http://www.w3.org/2000/svg" xmlns:xlink="http://www.w3.org/1999/xlink" x="0px" y="0px"
	 viewBox="0 0 60 60" style="enable-background:new 0 0 60 60;" xml:space="preserve">
<g>
	<path d="M22.4,20.9l0,18.2c0,1.1,0.9,2,2,2h1c1.1,0,2-0.9,2-2l0-18.2c0-1.1-0.9-2-2-2h-1C23.4,18.8,22.4,19.8,22.4,20.9z"/>
	<path d="M33.4,20.9v18.2c0,1.1,0.9,2,2,2h1c1.1,0,2-0.9,2-2l0-18.2c0-1.1-0.9-2-2-2h-1C34.4,18.8,33.4,19.8,33.4,20.9z"/>
</g>
<g>
	<path d="M7.7,7l8.2,9.3c0.8,1,2.3,0.7,2.6-0.4l2.9-10.8C21.7,4,20.6,2.8,19.5,3L8.4,4.5C7.3,4.6,6.8,6,7.7,7z"/>
</g>
<g>
	<path d="M30,58.8C14.1,58.8,1.2,45.9,1.2,30c0-8.8,4-17,10.9-22.5c1.3-1,3.2-0.8,4.2,0.5c1,1.3,0.8,3.2-0.5,4.2
		C10.3,16.5,7.2,23,7.2,30c0,12.6,10.2,22.8,22.8,22.8c12.6,0,22.8-10.2,22.8-22.8S42.6,7.2,30,7.2c-1.7,0-3-1.3-3-3s1.3-3,3-3
		c15.9,0,28.8,12.9,28.8,28.8S45.9,58.8,30,58.8z"/>
</g>
</svg>
