<?xml version="1.0" encoding="utf-8"?>
<!-- Generator: Adobe Illustrator 24.2.1, SVG Export Plug-In . SVG Version: 6.00 Build 0)  -->
<svg version="1.1" id="Layer_1" xmlns="http://www.w3.org/2000/svg" xmlns:xlink="http://www.w3.org/1999/xlink" x="0px" y="0px"
	 viewBox="0 0 60 60" style="enable-background:new 0 0 60 60;" xml:space="preserve">
<style type="text/css">
	.st0{fill-rule:evenodd;clip-rule:evenodd;}
</style>
<g>
	<polygon points="-242,3.6 -239.1,36.9 -225.1,36.9 -222.1,3.6 	"/>
	<rect x="-239.1" y="43.9" width="14" height="12.6"/>
</g>
<path d="M-148,12.2v35.5c0,1.6,1.7,2.5,3,1.7l29.6-17.8c1.3-0.8,1.3-2.7,0-3.4L-145,10.5C-146.3,9.7-148,10.7-148,12.2z"/>
<path d="M-42.1,30c-5.2,0-9.4-4.2-9.4-9.4c0-5.2,4.2-9.4,9.4-9.4s9.4,4.2,9.4,9.4C-32.8,25.8-37,30-42.1,30 M-42.1,5
	c-8.6,0-15.6,7-15.6,15.6c0,15.6,15.6,34.4,15.6,34.4s15.6-18.8,15.6-34.4C-26.5,12-33.5,5-42.1,5"/>
<g>
	<path d="M-223.7,81.2c0.1,0.1,0.3,0.1,0.4,0.2c1.2,0.5,2,1.1,2.3,1.3l7.9,7.9c0.3,0.3,0.8,1.1,1.3,2.3c0.1,0.2,0.1,0.3,0.2,0.4
		h-12.2V81.2z"/>
	<polygon points="-211,131.3 -253.2,131.3 -253.2,80.7 -227.9,80.7 -227.9,97.6 -211,97.6 	"/>
</g>
<g>
	<path d="M-110.6,101.4h-6.1v-3.1h6.1V101.4z M-132,122.6c-7.5,0-13.6-6.1-13.6-13.6c0-7.5,6.1-13.6,13.6-13.6
		c7.5,0,13.6,6.1,13.6,13.6C-118.4,116.5-124.5,122.6-132,122.6 M-110.6,92.2h-10.7c-0.8-3.1-1.5-6.1-4.6-6.1h-12.2
		c-3.1,0-3.8,3.1-4.6,6.1h-10.7c-1.7,0-3.1,1.4-3.1,3.1v27.5c0,1.7,1.4,3.1,3.1,3.1h42.8c1.7,0,3.1-1.4,3.1-3.1V95.3
		C-107.5,93.6-108.9,92.2-110.6,92.2 M-141.9,109.1c0,5.5,4.5,9.9,9.9,9.9c5.5,0,9.9-4.5,9.9-9.9c0-5.5-4.5-9.9-9.9-9.9
		C-137.5,99.1-141.9,103.6-141.9,109.1"/>
</g>
<g>
	<path d="M-43.6,84c1.3-1.3,2.4-0.9,2.4,1v42c0,1.8-1.1,2.3-2.4,1l-12.2-12.2H-64V96.3h8.1L-43.6,84z M-36.1,117.6
		c-0.6,0-1.2-0.2-1.7-0.7c-1-1-1-2.5,0-3.4c4.1-4.1,4.1-10.8,0-14.9c-1-1-1-2.5,0-3.4c1-1,2.5-1,3.4,0c6,6,6,15.8,0,21.8
		C-34.9,117.4-35.5,117.6-36.1,117.6 M-27.5,122.2c-0.6,0-1.2-0.2-1.7-0.7c-1-1-1-2.5,0-3.4c6.6-6.6,6.6-17.4,0-24.1
		c-1-1-1-2.5,0-3.4c1-1,2.5-1,3.4,0c4.1,4.1,6.4,9.6,6.4,15.5c0,5.8-2.3,11.3-6.4,15.5C-26.3,122-26.9,122.2-27.5,122.2"/>
</g>
<path d="M-225.3,205.2c-1.3-0.2-1.3-3.7-1.3-3.7s3.8-3.7,4.6-8.8c2.2,0,3.6-5.3,1.4-7.2c0.1-2,2.8-15.5-11.1-15.5
	s-11.2,13.6-11.1,15.5c-2.2,1.9-0.8,7.2,1.4,7.2c0.8,5,4.6,8.8,4.6,8.8s0,3.5-1.3,3.7c-4.1,0.7-19.6,7.5-19.6,15h26.1h26.1
	C-205.7,212.6-221.1,205.8-225.3,205.2"/>
<g>
	<path d="M-142.4,185.9h21.3v3h-21.3V185.9z M-142.4,204.1h21.3v3h-21.3V204.1z M-142.4,198h21.3v3h-21.3V198z M-142.4,192h21.3v3
		h-21.3V192z M-115,213.3h-33.5v-36.5h33.5V213.3z M-113.4,170.6H-150c-2.5,0-4.6,2.1-4.6,4.6v39.6c0,2.5,2.1,4.6,4.6,4.6h36.5
		c2.5,0,4.6-2.1,4.6-4.6v-39.6C-108.9,172.7-110.9,170.6-113.4,170.6"/>
</g>
<path d="M-42.4,172.9c13,0,23.6,8.6,23.6,19.2c0,10.6-10.6,19.2-23.6,19.2c-1.2,0-2.5-0.1-3.7-0.2c-5.1,5.1-11.1,6-17,6.1v-1.2
	c3.2-1.5,5.9-4.4,5.9-7.6c0-0.4,0-0.9-0.1-1.3c-5.3-3.5-8.7-8.9-8.7-14.9C-66,181.5-55.4,172.9-42.4,172.9"/>
<path d="M-222.3,292.3c-2.9,2.9-2.9,5.7-5.7,5.7c-2.9,0-5.7-2.9-8.6-5.7c-2.9-2.9-5.7-5.7-5.7-8.6s2.9-2.9,5.7-5.7
	c2.9-2.9-5.7-11.4-8.6-11.4s-8.6,8.6-8.6,8.6c0,5.7,5.9,17.3,11.4,22.8c5.6,5.6,17.1,11.4,22.8,11.4c0,0,8.6-5.7,8.6-8.6
	S-219.4,289.4-222.3,292.3"/>
<g>
	<path d="M-154.5,301.5h6.7v3.4h-6.7V301.5z M-157.8,298.1v13.5h50.6v-13.5h-25.3H-157.8z M-137.6,284.6v-20.2h10.1v20.2h8.4
		l-13.5,13.5l-13.5-13.5H-137.6z"/>
</g>
<path id="Icon_ionic-ios-arrow-up_1_" d="M197.2,294l-19.6-19.8c-1.4-1.4-3.8-1.4-5.2,0c-1.4,1.4-1.4,3.8,0,5.2l0,0l22.2,22.4
	c1.4,1.4,3.6,1.4,5,0.1l22.4-22.4c1.4-1.4,1.4-3.8,0-5.2c-1.4-1.4-3.8-1.4-5.2,0L197.2,294z"/>
<path id="Icon_ionic-ios-arrow-up_4_" d="M107.2,282l19.6,19.8c1.4,1.4,3.8,1.4,5.2,0s1.4-3.8,0-5.2l0,0l-22.2-22.4
	c-1.4-1.4-3.6-1.4-5-0.1l-22.4,22.4c-1.4,1.4-1.4,3.8,0,5.2c1.4,1.4,3.8,1.4,5.2,0L107.2,282z"/>
<path id="Icon_ionic-ios-arrow-up_3_" d="M38.1,288l-19.8,19.6c-1.4,1.4-1.4,3.8,0,5.2c1.4,1.4,3.8,1.4,5.2,0l0,0l22.4-22.2
	c1.4-1.4,1.4-3.6,0.1-5l-22.4-22.4c-1.4-1.4-3.8-1.4-5.2,0s-1.4,3.8,0,5.2L38.1,288z"/>
<path id="Icon_ionic-ios-arrow-up_2_" d="M-50.8,288l19.8-19.6c1.4-1.4,1.4-3.8,0-5.2s-3.8-1.4-5.2,0l0,0l-22.4,22.2
	c-1.4,1.4-1.4,3.6-0.1,5l22.4,22.4c1.4,1.4,3.8,1.4,5.2,0c1.4-1.4,1.4-3.8,0-5.2L-50.8,288z"/>
<path d="M-22,373h-42c-2.8,0-5,2.2-5,5l0,0c0,2.8,2.2,5,5,5h42c2.8,0,5-2.2,5-5l0,0C-17,375.2-19.2,373-22,373z"/>
<g>
	<path d="M-324.6,368.9v18.2c0,1.1,0.9,2,2,2h1c1.1,0,2-0.9,2-2v-18.2c0-1.1-0.9-2-2-2h-1C-323.6,366.8-324.6,367.8-324.6,368.9z"/>
	<path d="M-313.6,368.9v18.2c0,1.1,0.9,2,2,2h1c1.1,0,2-0.9,2-2v-18.2c0-1.1-0.9-2-2-2h-1C-312.6,366.8-313.6,367.8-313.6,368.9z"/>
</g>
<path d="M48.4,389.3l-29.7-29.7c-2-2-5.1-2-7.1,0l0,0c-2,2-2,5.1,0,7.1l29.7,29.7c2,2,5.1,2,7.1,0l0,0
	C50.3,394.4,50.3,391.3,48.4,389.3z"/>
<path d="M41.3,359.6l-29.7,29.7c-2,2-2,5.1,0,7.1l0,0c2,2,5.1,2,7.1,0l29.7-29.7c2-2,2-5.1,0-7.1h0
	C46.4,357.7,43.3,357.7,41.3,359.6z"/>
<path d="M-111,373h-42c-2.8,0-5,2.2-5,5l0,0c0,2.8,2.2,5,5,5h42c2.8,0,5-2.2,5-5l0,0C-106,375.2-108.2,373-111,373z"/>
<path d="M-137,357v42c0,2.8,2.2,5,5,5h0c2.8,0,5-2.2,5-5v-42c0-2.8-2.2-5-5-5h0C-134.8,352-137,354.2-137,357z"/>
<g>
	<path d="M-339.3,355l8.2,9.3c0.8,1,2.3,0.7,2.6-0.4l2.9-10.8c0.3-1.1-0.7-2.3-1.9-2.1l-11.1,1.5C-339.7,352.6-340.2,354-339.3,355z
		"/>
</g>
<g>
	<path d="M-317,406.8c-15.9,0-28.8-12.9-28.8-28.8c0-8.8,4-17,10.9-22.5c1.3-1,3.2-0.8,4.2,0.5c1,1.3,0.8,3.2-0.5,4.2
		c-5.5,4.4-8.6,10.9-8.6,17.8c0,12.6,10.2,22.8,22.8,22.8c12.6,0,22.8-10.2,22.8-22.8s-10.2-22.8-22.8-22.8c-1.7,0-3-1.3-3-3
		s1.3-3,3-3c15.9,0,28.8,12.9,28.8,28.8S-301.1,406.8-317,406.8z"/>
</g>
<g>
	<g>
		<path d="M-239.1,368.6v19.5c0,0.9,1,1.4,1.7,1l16.3-9.8c0.7-0.4,0.7-1.5,0-2l-16.3-9.8C-238.1,367.2-239.1,367.7-239.1,368.6z"/>
	</g>
	<g>
		<path d="M-254.3,355l8.2,9.3c0.8,1,2.3,0.7,2.6-0.4l2.9-10.8c0.3-1.1-0.7-2.3-1.9-2.1l-11.1,1.5C-254.7,352.6-255.2,354-254.3,355
			z"/>
	</g>
	<g>
		<path d="M-232,406.9c-15.9,0-28.8-12.9-28.8-28.8c0-8.8,4-17,10.9-22.5c1.3-1,3.2-0.8,4.2,0.5c1,1.3,0.8,3.2-0.5,4.2
			c-5.5,4.4-8.6,10.9-8.6,17.8c0,12.6,10.2,22.8,22.8,22.8c12.6,0,22.8-10.2,22.8-22.8s-10.2-22.8-22.8-22.8c-1.7,0-3-1.3-3-3
			s1.3-3,3-3c15.9,0,28.8,12.9,28.8,28.8S-216.1,406.9-232,406.9z"/>
	</g>
</g>
<g>
	<g>
		<path d="M-145.1,468l25.9,0c1.7,0,2.7-2,1.5-3.3l-12.9-15.4c-0.8-1-2.3-1-3.1,0l-12.9,15.4C-147.8,466-146.8,468-145.1,468z"/>
	</g>
	<g>
		<path d="M-132,492c-15.4,0-28-12.6-28-28s12.6-28,28-28s28,12.6,28,28S-116.6,492-132,492z M-132,442c-12.1,0-22,9.9-22,22
			s9.9,22,22,22s22-9.9,22-22S-119.9,442-132,442z"/>
	</g>
	<g>
		<path d="M-128,461h-8c-1.1,0-2,0.9-2,2v14c0,1.1,0.9,2,2,2h8c1.1,0,2-0.9,2-2v-14C-126,461.9-126.9,461-128,461z"/>
	</g>
</g>
<g>
	<path d="M-303.6,52.2l-0.8,3.2c-2.4,0.9-4.3,1.6-5.7,2.1c-1.4,0.5-3.1,0.7-4.9,0.7c-2.9,0-5.1-0.7-6.7-2.1
		c-1.6-1.4-2.4-3.2-2.4-5.3c0-0.8,0.1-1.7,0.2-2.6c0.1-0.9,0.3-1.9,0.6-3l3-10.5c0.3-1,0.5-2,0.7-2.9c0.2-0.9,0.3-1.7,0.3-2.5
		c0-1.3-0.3-2.3-0.8-2.8c-0.6-0.5-1.6-0.8-3.2-0.8c-0.8,0-1.6,0.1-2.4,0.4c-0.8,0.2-1.5,0.5-2.1,0.7l0.8-3.2c1.9-0.8,3.8-1.5,5.6-2
		c1.8-0.6,3.5-0.8,5-0.8c2.9,0,5.1,0.7,6.6,2.1c1.5,1.4,2.3,3.2,2.3,5.4c0,0.5-0.1,1.3-0.2,2.4c-0.1,1.1-0.3,2.2-0.6,3.2l-3,10.5
		c-0.2,0.8-0.5,1.8-0.6,2.9c-0.2,1.1-0.3,1.9-0.3,2.4c0,1.4,0.3,2.3,0.9,2.8c0.6,0.5,1.7,0.8,3.2,0.8c0.7,0,1.5-0.1,2.4-0.4
		C-304.7,52.6-304.1,52.4-303.6,52.2z M-302.9,8.3c0,1.8-0.7,3.4-2.1,4.7c-1.4,1.3-3,1.9-5,1.9s-3.6-0.6-5-1.9
		c-1.4-1.3-2.1-2.8-2.1-4.7c0-1.8,0.7-3.4,2.1-4.7c1.4-1.3,3.1-1.9,5-1.9s3.6,0.6,5,1.9C-303.6,4.9-302.9,6.5-302.9,8.3z"/>
</g>
<g>
	<g>
		<g>
			<path d="M-297.6,455l-11.4-11.4c-1.1-1.1-3-0.5-3.2,1.1l-2,13.4c-0.2,1.3,0.9,2.3,2.1,2.1l13.4-2
				C-297.1,458-296.5,456.1-297.6,455z"/>
		</g>
		<path d="M-298.1,438.5l-11.4,11.4c-1.6,1.6-1.6,4.1,0,5.7l0,0c1.6,1.6,4.1,1.6,5.7,0l11.4-11.4c1.6-1.6,1.6-4.1,0-5.7l0,0
			C-294,436.9-296.5,436.9-298.1,438.5z"/>
	</g>
	<g>
		<g>
			<path d="M-327,443.6l-11.4,11.4c-1.1,1.1-0.5,3,1.1,3.2l13.4,2c1.3,0.2,2.3-0.9,2.1-2.1l-2-13.4
				C-324,443.1-325.9,442.5-327,443.6z"/>
		</g>
		<path d="M-342.5,445.1l11.4,11.4c1.6,1.6,4.1,1.6,5.7,0l0,0c1.6-1.6,1.6-4.1,0-5.7l-11.4-11.4c-1.6-1.6-4.1-1.6-5.7,0l0,0
			C-344.1,441-344.1,443.5-342.5,445.1z"/>
	</g>
	<g>
		<g>
			<path d="M-309,484.4l11.4-11.4c1.1-1.1,0.5-3-1.1-3.2l-13.4-2c-1.3-0.2-2.3,0.9-2.1,2.1l2,13.4C-312,484.9-310.1,485.5-309,484.4
				z"/>
		</g>
		<path d="M-292.5,482.9l-11.4-11.4c-1.6-1.6-4.1-1.6-5.7,0v0c-1.6,1.6-1.6,4.1,0,5.7l11.4,11.4c1.6,1.6,4.1,1.6,5.7,0l0,0
			C-290.9,487-290.9,484.5-292.5,482.9z"/>
	</g>
	<g>
		<g>
			<path d="M-338.4,473l11.4,11.4c1.1,1.1,3,0.5,3.2-1.1l2-13.4c0.2-1.3-0.9-2.3-2.1-2.1l-13.4,2C-338.9,470-339.5,471.9-338.4,473z
				"/>
		</g>
		<path d="M-336.9,489.5l11.4-11.4c1.6-1.6,1.6-4.1,0-5.7l0,0c-1.6-1.6-4.1-1.6-5.7,0l-11.4,11.4c-1.6,1.6-1.6,4.1,0,5.7l0,0
			C-341,491.1-338.5,491.1-336.9,489.5z"/>
	</g>
</g>
<g>
	<g>
		<path d="M-253.5,454.8l11.4-11.4c1.1-1.1,0.5-3-1.1-3.2l-13.4-2c-1.3-0.2-2.3,0.9-2.1,2.1l2,13.4
			C-256.4,455.3-254.6,455.9-253.5,454.8z"/>
	</g>
	<g>
		<path d="M-242.2,485.5l-11.4-11.4c-1.1-1.1-3-0.5-3.2,1.1l-2,13.4c-0.2,1.3,0.9,2.3,2.1,2.1l13.4-2
			C-241.7,488.4-241.1,486.6-242.2,485.5z"/>
	</g>
	<g>
		<path d="M-211.5,473.2l-11.4,11.4c-1.1,1.1-0.5,3,1.1,3.2l13.4,2c1.3,0.2,2.3-0.9,2.1-2.1l-2-13.4
			C-208.6,472.7-210.4,472.1-211.5,473.2z"/>
	</g>
	<g>
		<path d="M-222.8,442.5l11.4,11.4c1.1,1.1,3,0.5,3.2-1.1l2-13.4c0.2-1.3-0.9-2.3-2.1-2.1l-13.4,2
			C-223.3,439.6-223.9,441.4-222.8,442.5z"/>
	</g>
	<g>
		<path d="M-222.3,459l11.4-11.4c1.6-1.6,1.6-4.1,0-5.7l0,0c-1.6-1.6-4.1-1.6-5.7,0l-11.4,11.4c-1.6,1.6-1.6,4.1,0,5.7l0,0
			C-226.4,460.6-223.9,460.6-222.3,459z"/>
		<path d="M-238,453.3l-11.4-11.4c-1.6-1.6-4.1-1.6-5.7,0l0,0c-1.6,1.6-1.6,4.1,0,5.7l11.4,11.4c1.6,1.6,4.1,1.6,5.7,0l0,0
			C-236.4,457.4-236.4,454.9-238,453.3z"/>
		<path d="M-228,474.7l11.4,11.4c1.6,1.6,4.1,1.6,5.7,0l0,0c1.6-1.6,1.6-4.1,0-5.7l-11.4-11.4c-1.6-1.6-4.1-1.6-5.7,0l0,0
			C-229.6,470.6-229.6,473.1-228,474.7z"/>
		<path d="M-243.7,469l-11.4,11.4c-1.6,1.6-1.6,4.1,0,5.7l0,0c1.6,1.6,4.1,1.6,5.7,0l11.4-11.4c1.6-1.6,1.6-4.1,0-5.7l0,0
			C-239.6,467.4-242.1,467.4-243.7,469z"/>
	</g>
</g>
<g>
	<path d="M-51.7,469.7c-1-0.8-2.5-0.2-2.6,1.1l-0.3,4.1c-8.2-1.9-12.9-5.7-12.9-8.8c0-2.3,2.4-4.3,3.9-5.2c1.2-0.8,1.5-2.3,0.7-3.5
		c-0.8-1.2-2.3-1.5-3.5-0.7c-5.1,3.3-6.1,6.9-6.1,9.4c0,6.3,6.9,11.6,17.6,13.9l-0.3,4.3c-0.1,1.3,1.3,2.1,2.4,1.4l9.5-6.1
		c0.9-0.6,1-1.8,0.2-2.5L-51.7,469.7z"/>
	<path d="M-54.6,459.6c-0.4,0-0.8-0.1-1.2-0.2c-0.3-0.2-0.6-0.4-0.8-0.6c-0.2-0.3-0.4-0.6-0.5-1c-0.1-0.4-0.2-0.8-0.2-1.2h-2.9
		c0,0.9,0.1,1.7,0.4,2.3c0.3,0.7,0.6,1.3,1.1,1.7c0.5,0.5,1.1,0.8,1.8,1.1c0.7,0.2,1.5,0.4,2.3,0.4c0.7,0,1.4-0.1,2.1-0.3
		c0.7-0.2,1.3-0.5,1.8-1s0.9-0.9,1.2-1.6c0.3-0.6,0.5-1.3,0.5-2.1c0-0.9-0.2-1.6-0.7-2.2c-0.5-0.6-1.1-1-2-1.2v0
		c0.7-0.2,1.2-0.6,1.6-1.1s0.5-1.2,0.5-1.9c0-0.7-0.2-1.3-0.5-1.8c-0.3-0.5-0.7-1-1.2-1.3c-0.5-0.4-1-0.6-1.6-0.8s-1.2-0.3-1.8-0.3
		c-0.8,0-1.5,0.1-2.1,0.4c-0.6,0.3-1.2,0.6-1.6,1.1c-0.5,0.5-0.8,1-1.1,1.7c-0.3,0.6-0.4,1.4-0.4,2.1h2.9c0-0.8,0.2-1.4,0.6-1.9
		c0.4-0.5,1-0.8,1.8-0.8c0.6,0,1.1,0.2,1.5,0.5c0.4,0.3,0.7,0.8,0.7,1.5c0,0.4-0.1,0.8-0.3,1c-0.2,0.3-0.5,0.5-0.8,0.6
		c-0.3,0.1-0.7,0.2-1.1,0.2c-0.4,0-0.7,0-1.1,0v2.2c0.4,0,0.8,0,1.2,0s0.8,0.1,1.1,0.2c0.3,0.1,0.6,0.4,0.9,0.7
		c0.2,0.3,0.3,0.7,0.3,1.3c0,0.7-0.2,1.3-0.7,1.7S-53.9,459.6-54.6,459.6z"/>
	<path d="M-37.6,458.7c0.3-0.7,0.4-1.4,0.4-2.2c0-0.6-0.1-1.2-0.3-1.8s-0.5-1.1-0.9-1.6c-0.4-0.5-1-0.9-1.6-1.1
		c-0.6-0.3-1.3-0.4-1.9-0.4c-0.7,0-1.4,0.1-1.9,0.4c-0.6,0.3-1.1,0.7-1.5,1.3l0,0c0-0.4,0.1-0.9,0.2-1.4c0.1-0.5,0.3-1,0.5-1.5
		c0.2-0.5,0.5-0.9,0.9-1.2c0.4-0.3,0.8-0.5,1.4-0.5c0.5,0,1,0.2,1.3,0.6c0.4,0.4,0.6,0.8,0.7,1.3h2.9c-0.1-0.7-0.3-1.3-0.5-1.8
		c-0.3-0.5-0.6-1-1.1-1.3c-0.4-0.4-0.9-0.6-1.5-0.8c-0.6-0.2-1.2-0.3-1.8-0.3c-1.1,0-2,0.2-2.8,0.7c-0.8,0.5-1.4,1.1-1.8,1.9
		s-0.8,1.6-1,2.5c-0.2,0.9-0.3,1.9-0.3,2.8c0,1,0.1,1.9,0.3,2.8c0.2,0.9,0.5,1.8,0.9,2.5c0.4,0.7,1,1.3,1.8,1.8
		c0.8,0.5,1.7,0.7,2.8,0.7c0.8,0,1.5-0.1,2.2-0.4s1.2-0.7,1.7-1.2C-38.2,460-37.8,459.4-37.6,458.7z M-40.4,457.8
		c-0.1,0.3-0.3,0.6-0.5,0.9c-0.2,0.3-0.4,0.5-0.7,0.6c-0.3,0.2-0.6,0.2-1,0.2c-0.4,0-0.7-0.1-1-0.2c-0.3-0.2-0.6-0.4-0.8-0.6
		c-0.2-0.3-0.4-0.6-0.5-0.9c-0.1-0.3-0.2-0.7-0.2-1c0-0.4,0-0.7,0.2-1.1c0.1-0.3,0.3-0.6,0.5-0.9c0.2-0.3,0.5-0.5,0.8-0.6
		c0.3-0.2,0.7-0.2,1.1-0.2c0.4,0,0.7,0.1,1,0.2s0.5,0.4,0.7,0.6c0.2,0.3,0.3,0.6,0.4,0.9c0.1,0.3,0.1,0.7,0.1,1
		C-40.3,457.1-40.3,457.5-40.4,457.8z"/>
	<path d="M-34.9,460.4c0.5,0.6,1.1,1,1.8,1.3c0.7,0.3,1.4,0.4,2.1,0.4c0.8,0,1.5-0.1,2.2-0.4c0.7-0.3,1.3-0.7,1.8-1.3
		c0.5-0.6,0.9-1.4,1.2-2.4c0.3-1,0.4-2.3,0.4-3.8c0-1.5-0.1-2.7-0.4-3.7c-0.3-1-0.7-1.8-1.2-2.4s-1.1-1-1.8-1.3
		c-0.7-0.3-1.4-0.4-2.2-0.4c-0.8,0-1.5,0.1-2.1,0.4c-0.7,0.3-1.3,0.7-1.8,1.3c-0.5,0.6-0.9,1.4-1.2,2.4c-0.3,1-0.4,2.2-0.4,3.7
		c0,1.5,0.1,2.8,0.4,3.8C-35.8,459-35.4,459.8-34.9,460.4z M-33.4,453.2c0-0.4,0-0.7,0.1-1.1c0-0.4,0.1-0.8,0.2-1.2
		c0.1-0.4,0.2-0.7,0.4-1c0.2-0.3,0.4-0.5,0.7-0.7c0.3-0.2,0.6-0.3,1.1-0.3s0.8,0.1,1.1,0.3c0.3,0.2,0.5,0.4,0.7,0.7
		c0.2,0.3,0.3,0.6,0.4,1c0.1,0.4,0.2,0.8,0.2,1.2c0,0.4,0.1,0.8,0.1,1.1c0,0.4,0,0.7,0,0.9c0,0.4,0,1,0,1.6c0,0.6-0.1,1.2-0.3,1.8
		s-0.4,1.1-0.7,1.5c-0.3,0.4-0.8,0.6-1.5,0.6c-0.6,0-1.1-0.2-1.4-0.6s-0.6-0.9-0.7-1.5c-0.2-0.6-0.2-1.2-0.3-1.8c0-0.6,0-1.1,0-1.6
		C-33.4,453.9-33.4,453.6-33.4,453.2z"/>
	<path d="M-19.6,456.6c-1.2-0.8-2.7-0.4-3.5,0.7s-0.4,2.7,0.7,3.5c1.4,0.9,3.9,2.9,3.9,5.2c0,3.9-7.2,8.7-19.3,9.9
		c-1.4,0.1-2.4,1.4-2.3,2.7c0.1,1.3,1.2,2.3,2.5,2.3c0.1,0,0.2,0,0.2,0c14-1.3,23.8-7.4,23.8-14.8
		C-13.5,463.5-14.6,459.9-19.6,456.6z"/>
</g>
<g>
	<path class="st0" d="M44.7,193.3c0-0.3,0-0.4,0-0.8l0-0.5c0,0.1,0-0.4,0-0.4l0-0.2l-3.1,0.2v0c0,0.2,0,0.3,0,0.5
		c0,0,0.1,1.8,0.1,1.8l0,0.1l0,0l0,0.1v0.1v0v0.1v0v0.1v0l0,0.1l0,0l0,0.1v0v0.1v0v0.2v0v0.2c0,2.3-0.2,4.8-0.5,7.2
		c1.1-0.3,2.2-0.7,3.3-1.1c0.2-2,0.4-4,0.4-6.1c0-0.3,0-0.6,0-1L44.7,193.3L44.7,193.3z M13.2,206.6l-8.5-2.5l1.7-1.8
		c-2.1-2-3.7-4.5-3.7-7.5c0-2.3,0.9-4.3,2.3-6.1c2.1-2.6,5.1-4.4,8.4-5.8c-0.3,1.2-0.5,2.5-0.7,3.7c-1.5,0.7-2.8,1.6-4,2.6
		c-1.4,1.3-2.6,2.8-2.9,4.7c-0.2,1.3,0.1,2.5,0.7,3.6c0.5,0.9,1.2,1.8,2,2.5l1.7-1.8L13.2,206.6L13.2,206.6z M23.9,180.3
		c2.1-0.3,4.2-0.4,6.1-0.4c4.5,0,9,0.6,13.2,1.8c5.9,1.7,14,5.9,14,13c0,2.3-0.9,4.3-2.3,6.1c-5.4,6.6-16.9,8.7-25,8.7
		c-2.2,0-4.6-0.1-6.8-0.5l0.4-3c2.1,0.3,4.3,0.4,6.4,0.4c6.8,0,15.9-1.6,21.2-6.2c1.6-1.4,2.9-3.3,3-5.5c0-3.7-3.6-6.3-6.5-7.9
		c-5.3-2.8-11.8-3.8-17.7-3.8c-2.2,0-4.7,0.2-7.2,0.6C23.1,182.5,23.4,181.4,23.9,180.3L23.9,180.3z M38.1,212
		c1.2-0.2,2.5-0.4,3.7-0.7c-2.1,5.2-6,10.7-11.8,10.7c-2.3,0-4.3-0.9-6.1-2.3c-6.6-5.4-8.7-16.9-8.7-25c0-4.5,0.6-9,1.8-13.2
		c1.7-5.9,5.9-14,13-14c3.7,0,6.6,2.3,8.7,5.1l2-1.5l1.5,8.8l-7.9-4l2-1.5c-1.5-2-3.7-3.9-6.3-3.9c-3.7,0-6.3,3.6-7.9,6.5
		c-2.8,5.3-3.8,11.8-3.8,17.7c0,6.8,1.6,15.9,6.2,21.2c1.4,1.6,3.3,2.9,5.5,3c3.7,0,6.3-3.6,7.9-6.5L38.1,212z"/>
</g>
<g>
	<g>
		<path d="M138,173.6l-5.5-4.8c-0.3-0.3-0.8-0.4-1.2-0.2c-0.4,0.2-0.7,0.6-0.7,1.1v1.9l-10.9,1.7c-0.6,0.1-1.1,0.6-1.1,1.3
			c0,0.6,0.4,1.2,1.1,1.3l10.9,1.7v1.9c0,0.4,0.3,0.8,0.7,1.1c0.4,0.2,0.9,0.1,1.2-0.2l5.5-4.8c0.2-0.2,0.4-0.5,0.4-0.8
			C138.4,174.1,138.2,173.8,138,173.6z"/>
	</g>
	<g>
		<path d="M105.1,174.5c0-0.6-0.4-1.2-1.1-1.3l-10.9-1.7v-1.9c0-0.4-0.3-0.8-0.7-1.1c-0.4-0.2-0.9-0.1-1.2,0.2l-5.5,4.8
			c-0.2,0.2-0.4,0.5-0.4,0.8s0.2,0.6,0.4,0.8l5.5,4.8c0.3,0.3,0.8,0.4,1.2,0.2c0.4-0.2,0.7-0.6,0.7-1.1v-1.9l10.9-1.7
			C104.6,175.6,105.1,175.1,105.1,174.5z"/>
	</g>
	<g>
		<path d="M131.8,191.3c-1.3-0.2-2.5,0.3-3.3,1.2c-0.4-1.6-1.9-2.9-3.7-2.9c-1.1,0-2.2,0.5-2.9,1.3c-0.5-1.5-1.9-2.6-3.6-2.6
			c-1,0-2,0.4-2.6,1.1v-14.3c0-1.9-1.3-3.7-3.3-3.9c-2.3-0.3-4.3,1.5-4.3,3.8v25.4c0,0.5-0.7,0.7-1,0.3l-4.4-6.6
			c-1-1.6-3.3-1.9-5-0.7c-1.7,1.1-2.3,3.4-1.3,4.9c0,0,12.2,18.5,12.4,18.7c2.2,3.1,5.8,5,9.7,5h4.4c6.6,0,12-5.3,12-11.8
			c0-0.1,0-0.2,0-0.3v-14.6C135.1,193.2,133.7,191.5,131.8,191.3z"/>
	</g>
</g>
<g>
	<path d="M24.5,58.6c-1.4,0-2.5-1.1-2.5-2.5V4.9c0-1.4,1.1-2.5,2.5-2.5S27,3.5,27,4.9v51.2C27,57.5,25.9,58.6,24.5,58.6z"/>
</g>
<g>
	<g>
		<polygon points="27,15 22,15 22,13.5 20.5,13.5 20.5,8.5 27,8.5 		"/>
	</g>
	<g>
		<path d="M16.3,51.5H9.7c-0.8,0-1.6-0.1-2.3-0.3l1.4-4.8c0.3,0.1,0.6,0.1,0.9,0.1h6.6V51.5z M2.8,47.7c-0.8-1.3-1.3-2.8-1.3-4.4v-5
			h5v5c0,0.6,0.2,1.2,0.5,1.7L2.8,47.7z M6.5,34.1h-5v-8.3h5V34.1z M6.5,21.7h-5v-5c0-1.6,0.4-3.1,1.3-4.4L7,15
			c-0.3,0.5-0.5,1.1-0.5,1.7V21.7z M8.8,13.6L7.4,8.8c0.7-0.2,1.5-0.3,2.3-0.3h6.7v5H9.7C9.4,13.5,9.1,13.5,8.8,13.6z"/>
	</g>
	<g>
		<polygon points="27,51.5 20.5,51.5 20.5,46.5 22,46.5 22,45 27,45 		"/>
	</g>
	<g>
		<path d="M27,40.7h-5v-8.6h5V40.7z M27,27.9h-5v-8.6h5V27.9z"/>
	</g>
</g>
<g>
	<path d="M50.3,51.5H22v-43h28.3c4.5,0,8.2,3.7,8.2,8.2v26.6C58.5,47.8,54.8,51.5,50.3,51.5z M27,46.5h23.3c1.8,0,3.2-1.4,3.2-3.2
		V16.7c0-1.8-1.4-3.2-3.2-3.2H27V46.5z"/>
</g>
<g>
	<path d="M118.3,5.5H80.2c-4.5,0-8.2,3.7-8.2,8.2v22.6c0,4.5,3.7,8.2,8.2,8.2h14.1l-0.5-5H80.2c-1.8,0-3.2-1.4-3.2-3.2V13.7
		c0-1.8,1.4-3.2,3.2-3.2h38.1c1.8,0,3.2,1.4,3.2,3.2v22.6c0,1.8-1.4,3.2-3.2,3.2h-0.5c0.4,0.8,0.6,1.8,0.4,2.7
		c-0.2,1-0.8,1.8-1.6,2.3h1.7c4.5,0,8.2-3.7,8.2-8.2V13.7C126.5,9.2,122.8,5.5,118.3,5.5z"/>
	<path d="M107.8,44.5c-0.2-0.5,0.1-1,0.6-1.1c2.1-0.4,4.1-0.8,6.2-1.2c0.7-0.1,0.9-1.1,0.3-1.5c-0.5-0.4-1-0.8-1.6-1.2H96.7l0.5,5
		H107.8z"/>
</g>
<path d="M103.9,46c0.3,0,0.6,0.1,0.7,0.4c1.8,3.2,3.6,6.4,5.4,9.5c0.2,0.3,0.4,0.4,0.7,0.4c0.1,0,0.3,0,0.4-0.1
	c0.6-0.4,1.3-0.8,1.9-1.1c0.4-0.2,0.5-0.7,0.3-1.1c-1.9-3.2-3.7-6.3-5.5-9.4c-0.3-0.5,0-1.1,0.6-1.2c2.1-0.4,4.1-0.8,6.2-1.2
	c0.7-0.1,0.9-1.1,0.3-1.5c-6.1-4.6-12.1-9.1-18.1-13.6c-0.2-0.1-0.3-0.2-0.5-0.2c-0.5,0-0.9,0.4-0.8,0.9l2.4,22.6
	c0.1,0.5,0.4,0.7,0.8,0.7c0.2,0,0.5-0.1,0.6-0.3c1.3-1.5,2.6-3,3.9-4.6C103.4,46.1,103.6,46,103.9,46z"/>
</svg>
