<?xml version="1.0" encoding="utf-8"?>
<!-- Generator: Adobe Illustrator 24.3.0, SVG Export Plug-In . SVG Version: 6.00 Build 0)  -->
<svg version="1.1" id="Layer_1" xmlns="http://www.w3.org/2000/svg" xmlns:xlink="http://www.w3.org/1999/xlink" x="0px" y="0px"
	 viewBox="0 0 200 200" style="enable-background:new 0 0 200 200;" xml:space="preserve">
<style type="text/css">
	.st0{fill-rule:evenodd;clip-rule:evenodd;}
</style>
<path id="Path_125_1_" class="st0" d="M25,62.5V175h150V62.5H25z M162.5,25h25c6.5-0.4,12.1,4.6,12.5,11.1c0,0.5,0,0.9,0,1.4v150
	c0.4,6.5-4.6,12.1-11.1,12.5c-0.5,0-0.9,0-1.4,0h-175C6,200.4,0.4,195.4,0,188.9c0-0.5,0-0.9,0-1.4v-150C-0.4,31,4.6,25.4,11.1,25
	c0.5,0,0.9,0,1.4,0h25V12.5C37.1,6,42.1,0.4,48.6,0c0.5,0,0.9,0,1.4,0c6.5-0.4,12.1,4.6,12.5,11.1c0,0.5,0,0.9,0,1.4V25h75V12.5
	C137.5,5.6,143.1,0,150,0s12.5,5.6,12.5,12.5V25z M150,150h-25v-25h25V150z M112.5,150h-25v-25h25V150z M150,112.5h-25v-25h25V112.5
	z M112.5,112.5h-25v-25h25V112.5z M75,150H50v-25h25V150z"/>
</svg>
