<?xml version="1.0" encoding="utf-8"?>
<!-- Generator: Adobe Illustrator 24.1.3, SVG Export Plug-In . SVG Version: 6.00 Build 0)  -->
<svg version="1.1" id="Layer_1" xmlns="http://www.w3.org/2000/svg" xmlns:xlink="http://www.w3.org/1999/xlink" x="0px" y="0px"
	 viewBox="0 0 60 60" style="enable-background:new 0 0 60 60;" xml:space="preserve">
<path d="M48.4,41.3L18.7,11.6c-2-2-5.1-2-7.1,0l0,0c-2,2-2,5.1,0,7.1l29.7,29.7c2,2,5.1,2,7.1,0l0,0C50.3,46.4,50.3,43.3,48.4,41.3z
	"/>
<path d="M41.3,11.6L11.6,41.3c-2,2-2,5.1,0,7.1l0,0c2,2,5.1,2,7.1,0l29.7-29.7c2-2,2-5.1,0-7.1l0,0C46.4,9.7,43.3,9.7,41.3,11.6z"/>
</svg>
