<?xml version="1.0" encoding="utf-8"?>
<!-- Generator: Adobe Illustrator 24.1.3, SVG Export Plug-In . SVG Version: 6.00 Build 0)  -->
<svg version="1.1" id="Layer_1" xmlns="http://www.w3.org/2000/svg" xmlns:xlink="http://www.w3.org/1999/xlink" x="0px" y="0px"
	 viewBox="0 0 60 60" style="enable-background:new 0 0 60 60;" xml:space="preserve">
<path d="M39.7,34.3C36.9,37.1,36.9,40,34,40s-5.7-2.9-8.6-5.7c-2.9-2.9-5.7-5.7-5.7-8.6c0-2.9,2.9-2.9,5.7-5.7
	c2.9-2.9-5.7-11.4-8.6-11.4s-8.6,8.6-8.6,8.6c0,5.7,5.9,17.3,11.4,22.8c5.6,5.6,17.1,11.4,22.8,11.4c0,0,8.6-5.7,8.6-8.6
	C51.2,40,42.6,31.4,39.7,34.3"/>
</svg>
