<?xml version="1.0" encoding="utf-8"?>
<!-- Generator: Adobe Illustrator 24.1.3, SVG Export Plug-In . SVG Version: 6.00 Build 0)  -->
<svg version="1.1" id="Layer_1" xmlns="http://www.w3.org/2000/svg" xmlns:xlink="http://www.w3.org/1999/xlink" x="0px" y="0px"
	 viewBox="0 0 60 60" style="enable-background:new 0 0 60 60;" xml:space="preserve">
<g>
	<path d="M19.6,20.9h21.3v3H19.6V20.9z M19.6,39.1h21.3v3H19.6V39.1z M19.6,33h21.3v3H19.6V33z M19.6,27h21.3v3H19.6V27z M47,48.3
		H13.5V11.7H47V48.3z M48.6,5.6H12c-2.5,0-4.6,2.1-4.6,4.6v39.6c0,2.5,2.1,4.6,4.6,4.6h36.5c2.5,0,4.6-2.1,4.6-4.6V10.2
		C53.1,7.7,51.1,5.6,48.6,5.6"/>
</g>
</svg>
