<?xml version="1.0" encoding="utf-8"?>
<!-- Generator: Adobe Illustrator 24.1.3, SVG Export Plug-In . SVG Version: 6.00 Build 0)  -->
<svg version="1.1" id="Layer_1" xmlns="http://www.w3.org/2000/svg" xmlns:xlink="http://www.w3.org/1999/xlink" x="0px" y="0px"
	 viewBox="0 0 60 60" style="enable-background:new 0 0 60 60;" xml:space="preserve">
<g>
	<g>
		<path d="M8.5,20.8L19.9,9.4c1.1-1.1,0.5-3-1.1-3.2l-13.4-2C4.2,4.1,3.2,5.1,3.4,6.4l2,13.4C5.6,21.3,7.4,21.9,8.5,20.8z"/>
	</g>
	<g>
		<path d="M19.8,51.5L8.4,40.1c-1.1-1.1-3-0.5-3.2,1.1l-2,13.4c-0.2,1.3,0.9,2.3,2.1,2.1l13.4-2C20.3,54.4,20.9,52.6,19.8,51.5z"/>
	</g>
	<g>
		<path d="M50.5,39.2L39.1,50.6c-1.1,1.1-0.5,3,1.1,3.2l13.4,2c1.3,0.2,2.3-0.9,2.1-2.1l-2-13.4C53.4,38.7,51.6,38.1,50.5,39.2z"/>
	</g>
	<g>
		<path d="M39.2,8.5l11.4,11.4c1.1,1.1,3,0.5,3.2-1.1l2-13.4c0.2-1.3-0.9-2.3-2.1-2.1l-13.4,2C38.7,5.6,38.1,7.4,39.2,8.5z"/>
	</g>
	<g>
		<path d="M39.7,25l11.4-11.4c1.6-1.6,1.6-4.1,0-5.7l0,0c-1.6-1.6-4.1-1.6-5.7,0L34,19.3c-1.6,1.6-1.6,4.1,0,5.7l0,0
			C35.6,26.6,38.1,26.6,39.7,25z"/>
		<path d="M24,19.3L12.6,7.9c-1.6-1.6-4.1-1.6-5.7,0l0,0c-1.6,1.6-1.6,4.1,0,5.7L18.3,25c1.6,1.6,4.1,1.6,5.7,0l0,0
			C25.6,23.4,25.6,20.9,24,19.3z"/>
		<path d="M34,40.7l11.4,11.4c1.6,1.6,4.1,1.6,5.7,0l0,0c1.6-1.6,1.6-4.1,0-5.7L39.7,35c-1.6-1.6-4.1-1.6-5.7,0l0,0
			C32.4,36.6,32.4,39.1,34,40.7z"/>
		<path d="M18.3,35L6.9,46.4c-1.6,1.6-1.6,4.1,0,5.7l0,0c1.6,1.6,4.1,1.6,5.7,0L24,40.7c1.6-1.6,1.6-4.1,0-5.7l0,0
			C22.4,33.4,19.9,33.4,18.3,35z"/>
	</g>
</g>
</svg>
