<?xml version="1.0" encoding="utf-8"?>
<!-- Generator: Adobe Illustrator 26.0.1, SVG Export Plug-In . SVG Version: 6.00 Build 0)  -->
<svg version="1.1" id="Layer_1" xmlns="http://www.w3.org/2000/svg" xmlns:xlink="http://www.w3.org/1999/xlink" x="0px" y="0px"
	 viewBox="0 0 60 60" style="enable-background:new 0 0 60 60;" xml:space="preserve">
<path d="M30,3C15.1,3,3,15.1,3,30s12.1,27,27,27s27-12.1,27-27S44.9,3,30,3z M31.8,45.9c-0.7,0.7-1.7,1-2.9,1c-1.3,0-2.2-0.3-2.9-1
	c-0.7-0.7-1-1.6-1-2.8c0-1.3,0.3-2.2,1-2.9c0.7-0.6,1.7-1,2.9-1c1.2,0,2.2,0.3,2.9,1c0.7,0.7,1,1.6,1,2.8
	C32.9,44.3,32.5,45.2,31.8,45.9z M39.2,25.5c-0.8,1.2-2.2,2.5-4.3,4c-1.4,1.1-2.3,1.9-2.7,2.4c-0.4,0.6-0.6,1.3-0.6,2.2v1.3h-6v0
	v-1.7c0-1.4,0.3-2.7,0.9-3.8c0.6-1.1,1.7-2.2,3.4-3.4c1.6-1.1,2.6-2,3.1-2.7c0.5-0.7,0.8-1.5,0.8-2.4c0-1-0.4-1.7-1.1-2.2
	c-0.7-0.5-1.7-0.8-3-0.8c-2.3,0-4.8,0.7-7.7,2.2l-2.5-4.9C23,14,26.5,13,30.3,13c3.1,0,5.5,0.7,7.4,2.2c1.8,1.5,2.7,3.5,2.7,5.9
	C40.4,22.9,40,24.3,39.2,25.5z"/>
</svg>
