<?xml version="1.0" encoding="utf-8"?>
<!-- Generator: Adobe Illustrator 24.1.3, SVG Export Plug-In . SVG Version: 6.00 Build 0)  -->
<svg version="1.1" id="Layer_1" xmlns="http://www.w3.org/2000/svg" xmlns:xlink="http://www.w3.org/1999/xlink" x="0px" y="0px"
	 viewBox="0 0 60 60" style="enable-background:new 0 0 60 60;" xml:space="preserve">
<g>
	<path d="M51.4,25.4h-6.1v-3.1h6.1V25.4z M30,46.6c-7.5,0-13.6-6.1-13.6-13.6c0-7.5,6.1-13.6,13.6-13.6s13.6,6.1,13.6,13.6
		C43.6,40.5,37.5,46.6,30,46.6 M51.4,16.2H40.7c-0.8-3.1-1.5-6.1-4.6-6.1H23.9c-3.1,0-3.8,3.1-4.6,6.1H8.6c-1.7,0-3.1,1.4-3.1,3.1
		v27.5c0,1.7,1.4,3.1,3.1,3.1h42.8c1.7,0,3.1-1.4,3.1-3.1V19.3C54.5,17.6,53.1,16.2,51.4,16.2 M20.1,33.1c0,5.5,4.5,9.9,9.9,9.9
		s9.9-4.5,9.9-9.9c0-5.5-4.5-9.9-9.9-9.9S20.1,27.6,20.1,33.1"/>
</g>
</svg>
