<?xml version="1.0" encoding="utf-8"?>
<!-- Generator: Adobe Illustrator 26.0.1, SVG Export Plug-In . SVG Version: 6.00 Build 0)  -->
<svg version="1.1" id="Layer_1" xmlns="http://www.w3.org/2000/svg" xmlns:xlink="http://www.w3.org/1999/xlink" x="0px" y="0px"
	 viewBox="0 0 60 60" style="enable-background:new 0 0 60 60;" xml:space="preserve">
<path d="M30,3C15.1,3,3,15.1,3,30s12.1,27,27,27s27-12.1,27-27S44.9,3,30,3z M36.4,45.3c-1.4,0.6-2.6,1-3.4,1.2S31,47,30,47
	c-1.7,0-3.1-0.4-4-1.2c-1-0.9-1.4-1.9-1.4-3.1c0-0.5,0.1-1,0.1-1.5c0.1-0.6,0.2-1.1,0.4-1.8l1.8-6.3c0.2-0.6,0.3-1.2,0.4-1.7
	c0.1-0.6,0.2-1,0.2-1.5c0-0.8-0.2-1.4-0.5-1.7c-0.4-0.3-1-0.5-1.9-0.5c-0.5,0-1,0.1-1.4,0.3c-0.5,0.1-0.9,0.3-1.2,0.4l0.5-1.9
	c1.1-0.5,2.3-0.9,3.3-1.2c1-0.4,2.1-0.5,3.1-0.5c1.7,0,3.1,0.4,4,1.2c0.9,0.9,1.4,1.9,1.4,3.2c0,0.3-0.1,0.8-0.1,1.4
	c-0.1,0.7-0.2,1.3-0.4,1.9l-1.8,6.3c-0.1,0.5-0.3,1-0.4,1.7s-0.2,1.1-0.2,1.4c0,0.9,0.2,1.4,0.6,1.7s1,0.5,1.9,0.5
	c0.4,0,0.9-0.1,1.4-0.3c0.5,0,0.9-0.1,1.1-0.3L36.4,45.3z M36,19.9C35.1,20.7,34.2,21,33,21c-1.2,0-2.2-0.4-3.1-1.1
	c-0.9-0.8-1.2-1.7-1.2-2.9c0-1,0.4-2,1.2-2.9c0.9-0.8,1.9-1.1,3.1-1.1c1.1,0,2.2,0.4,3.1,1.1c0.9,0.9,1.2,1.8,1.2,2.9
	C37.2,18.1,36.9,19,36,19.9z"/>
</svg>
