<?xml version="1.0" encoding="utf-8"?>
<!-- Generator: Adobe Illustrator 24.1.3, SVG Export Plug-In . SVG Version: 6.00 Build 0)  -->
<svg version="1.1" id="Layer_1" xmlns="http://www.w3.org/2000/svg" xmlns:xlink="http://www.w3.org/1999/xlink" x="0px" y="0px"
	 viewBox="0 0 60 60" style="enable-background:new 0 0 60 60;" xml:space="preserve">
<g>
	<path d="M40.4,52.2l-0.8,3.2c-2.4,0.9-4.3,1.6-5.7,2.1c-1.4,0.5-3.1,0.7-4.9,0.7c-2.9,0-5.1-0.7-6.7-2.1c-1.6-1.4-2.4-3.2-2.4-5.3
		c0-0.8,0.1-1.7,0.2-2.6c0.1-0.9,0.3-1.9,0.6-3l3-10.5c0.3-1,0.5-2,0.7-2.9c0.2-0.9,0.3-1.7,0.3-2.5c0-1.3-0.3-2.3-0.8-2.8
		c-0.6-0.5-1.6-0.8-3.2-0.8c-0.8,0-1.6,0.1-2.4,0.4c-0.8,0.2-1.5,0.5-2.1,0.7l0.8-3.2c1.9-0.8,3.8-1.5,5.6-2c1.8-0.6,3.5-0.8,5-0.8
		c2.9,0,5.1,0.7,6.6,2.1c1.5,1.4,2.3,3.2,2.3,5.4c0,0.5-0.1,1.3-0.2,2.4c-0.1,1.1-0.3,2.2-0.6,3.2l-3,10.5c-0.2,0.8-0.5,1.8-0.6,2.9
		c-0.2,1.1-0.3,1.9-0.3,2.4c0,1.4,0.3,2.3,0.9,2.8c0.6,0.5,1.7,0.8,3.2,0.8c0.7,0,1.5-0.1,2.4-0.4S39.9,52.4,40.4,52.2z M41.1,8.3
		c0,1.8-0.7,3.4-2.1,4.7c-1.4,1.3-3,1.9-5,1.9s-3.6-0.6-5-1.9c-1.4-1.3-2.1-2.8-2.1-4.7c0-1.8,0.7-3.4,2.1-4.7
		c1.4-1.3,3.1-1.9,5-1.9s3.6,0.6,5,1.9C40.4,4.9,41.1,6.5,41.1,8.3z"/>
</g>
</svg>
