<?xml version="1.0" encoding="utf-8"?>
<!-- Generator: Adobe Illustrator 24.1.3, SVG Export Plug-In . SVG Version: 6.00 Build 0)  -->
<svg version="1.1" id="Layer_1" xmlns="http://www.w3.org/2000/svg" xmlns:xlink="http://www.w3.org/1999/xlink" x="0px" y="0px"
	 viewBox="0 0 60 60" style="enable-background:new 0 0 60 60;" xml:space="preserve">
<g>
	<g>
		<path d="M16.9,34l25.9,0c1.7,0,2.7-2,1.5-3.3L31.4,15.3c-0.8-1-2.3-1-3.1,0L15.3,30.7C14.2,32,15.2,34,16.9,34z"/>
	</g>
	<g>
		<path d="M30,58C14.6,58,2,45.4,2,30S14.6,2,30,2s28,12.6,28,28S45.4,58,30,58z M30,8C17.9,8,8,17.9,8,30s9.9,22,22,22
			s22-9.9,22-22S42.1,8,30,8z"/>
	</g>
	<g>
		<path d="M34,27h-8c-1.1,0-2,0.9-2,2v14c0,1.1,0.9,2,2,2h8c1.1,0,2-0.9,2-2V29C36,27.9,35.1,27,34,27z"/>
	</g>
</g>
</svg>
