<?xml version="1.0" encoding="utf-8"?>
<!-- Generator: Adobe Illustrator 25.4.1, SVG Export Plug-In . SVG Version: 6.00 Build 0)  -->
<svg version="1.1" id="Raw" xmlns="http://www.w3.org/2000/svg" xmlns:xlink="http://www.w3.org/1999/xlink" x="0px" y="0px"
	 viewBox="0 0 256 256" style="enable-background:new 0 0 256 256;" xml:space="preserve">
<g>
	<path d="M103.1,159.7v-9.7c0-8.4,1.8-15.6,5.4-21.8c3.6-6.2,10.1-12.7,19.6-19.7c9.1-6.5,15.2-11.8,18.1-15.9
		c2.9-4.1,4.4-8.7,4.4-13.7c0-5.7-2.1-10-6.3-12.9c-4.2-3-10-4.4-17.5-4.4c-13.1,0-27.9,4.3-44.6,12.8L67.8,45.8
		c19.4-10.9,40-16.3,61.7-16.3c17.9,0,32.2,4.3,42.8,12.9c10.6,8.6,15.9,20.1,15.9,34.5c0,9.6-2.2,17.8-6.5,24.8
		c-4.4,7-12.6,14.8-24.8,23.5c-8.4,6.2-13.6,10.9-15.9,14.1c-2.2,3.2-3.3,7.4-3.3,12.7v7.8H103.1z M98.9,204.4
		c0-7.3,2-12.8,5.9-16.6c3.9-3.7,9.6-5.6,17.1-5.6c7.2,0,12.8,1.9,16.8,5.7c4,3.8,5.9,9.3,5.9,16.4c0,6.9-2,12.3-6,16.3
		c-4,4-9.6,5.9-16.7,5.9c-7.3,0-13-1.9-17-5.8C100.9,216.9,98.9,211.4,98.9,204.4z"/>
</g>
</svg>
