<?xml version="1.0" encoding="utf-8"?>
<!-- Generator: Adobe Illustrator 24.2.1, SVG Export Plug-In . SVG Version: 6.00 Build 0)  -->
<svg version="1.1" id="Layer_1" xmlns="http://www.w3.org/2000/svg" xmlns:xlink="http://www.w3.org/1999/xlink" x="0px" y="0px"
	 viewBox="0 0 60 60" style="enable-background:new 0 0 60 60;" xml:space="preserve">
<style type="text/css">
	.st0{fill-rule:evenodd;clip-rule:evenodd;}
</style>
<g>
	<g>
		<path d="M56,8.6l-5.5-4.8c-0.3-0.3-0.8-0.4-1.2-0.2c-0.4,0.2-0.7,0.6-0.7,1.1v1.9L37.7,8.2c-0.6,0.1-1.1,0.6-1.1,1.3
			c0,0.6,0.4,1.2,1.1,1.3l10.9,1.7v1.9c0,0.4,0.3,0.8,0.7,1.1c0.4,0.2,0.9,0.1,1.2-0.2l5.5-4.8c0.2-0.2,0.4-0.5,0.4-0.8
			C56.4,9.1,56.2,8.8,56,8.6z"/>
	</g>
	<g>
		<path d="M23.1,9.5c0-0.6-0.4-1.2-1.1-1.3L11.1,6.5V4.6c0-0.4-0.3-0.8-0.7-1.1C10,3.3,9.5,3.4,9.2,3.7L3.7,8.5
			C3.4,8.7,3.3,9,3.3,9.3s0.2,0.6,0.4,0.8L9.2,15c0.3,0.3,0.8,0.4,1.2,0.2c0.4-0.2,0.7-0.6,0.7-1.1v-1.9L22,10.5
			C22.6,10.6,23.1,10.1,23.1,9.5z"/>
	</g>
	<g>
		<path d="M49.8,26.3c-1.3-0.2-2.5,0.3-3.3,1.2c-0.4-1.6-1.9-2.9-3.7-2.9c-1.1,0-2.2,0.5-2.9,1.3c-0.5-1.5-1.9-2.6-3.6-2.6
			c-1,0-2,0.4-2.6,1.1V10.2c0-1.9-1.3-3.7-3.3-3.9c-2.3-0.3-4.3,1.5-4.3,3.8v25.4c0,0.5-0.7,0.7-1,0.3l-4.4-6.6
			c-1-1.6-3.3-1.9-5-0.7c-1.7,1.1-2.3,3.4-1.3,4.9c0,0,12.2,18.5,12.4,18.7c2.2,3.1,5.8,5,9.7,5H41c6.6,0,12-5.3,12-11.8
			c0-0.1,0-0.2,0-0.3V30.2C53.1,28.2,51.7,26.5,49.8,26.3z"/>
	</g>
</g>
</svg>
