<?xml version="1.0" encoding="utf-8"?>
<!-- Generator: Adobe Illustrator 24.2.1, SVG Export Plug-In . SVG Version: 6.00 Build 0)  -->
<svg version="1.1" id="Layer_1" xmlns="http://www.w3.org/2000/svg" xmlns:xlink="http://www.w3.org/1999/xlink" x="0px" y="0px"
	 viewBox="0 0 60 60" style="enable-background:new 0 0 60 60;" xml:space="preserve">
<style type="text/css">
	.st0{fill-rule:evenodd;clip-rule:evenodd;}
</style>
<path d="M50.5,39.3v-6.6c0-2.9-2.3-5.2-5.2-5.2H17.7c-0.1,0-0.2-0.1-0.2-0.2v-6.6c4.3-1.1,7.5-5,7.5-9.7c0-5.5-4.5-10-10-10
	C9.5,1,5,5.5,5,11c0,4.7,3.2,8.6,7.5,9.7v6.6c0,2.9,2.3,5.2,5.2,5.2h27.6c0.1,0,0.2,0.1,0.2,0.2v6.6c-4.3,1.1-7.5,5-7.5,9.7
	c0,5.5,4.5,10,10,10c5.5,0,10-4.5,10-10C58,44.3,54.8,40.4,50.5,39.3z M11,11c0-2.2,1.8-4,4-4c2.2,0,4,1.8,4,4c0,2.2-1.8,4-4,4
	C12.8,15,11,13.2,11,11z M48,53c-2.2,0-4-1.8-4-4c0-2.2,1.8-4,4-4c2.2,0,4,1.8,4,4C52,51.2,50.2,53,48,53z"/>
</svg>
