<?xml version="1.0" encoding="utf-8"?>
<!-- Generator: Adobe Illustrator 24.1.3, SVG Export Plug-In . SVG Version: 6.00 Build 0)  -->
<svg version="1.1" id="Layer_1" xmlns="http://www.w3.org/2000/svg" xmlns:xlink="http://www.w3.org/1999/xlink" x="0px" y="0px"
	 viewBox="0 0 60 60" style="enable-background:new 0 0 60 60;" xml:space="preserve">
<path d="M36.7,40.2c-1.3-0.2-1.3-3.7-1.3-3.7s3.8-3.7,4.6-8.8c2.2,0,3.6-5.3,1.4-7.2c0.1-2,2.8-15.5-11.1-15.5S19.1,18.4,19.2,20.4
	c-2.2,1.9-0.8,7.2,1.4,7.2c0.8,5,4.6,8.8,4.6,8.8s0,3.5-1.3,3.7c-4.1,0.7-19.6,7.5-19.6,15h26.1h26.1C56.3,47.6,40.9,40.8,36.7,40.2
	"/>
</svg>
