<?xml version="1.0" encoding="utf-8"?>
<!-- Generator: Adobe Illustrator 24.1.3, SVG Export Plug-In . SVG Version: 6.00 Build 0)  -->
<svg version="1.1" id="Layer_1" xmlns="http://www.w3.org/2000/svg" xmlns:xlink="http://www.w3.org/1999/xlink" x="0px" y="0px"
	 viewBox="0 0 60 60" style="enable-background:new 0 0 60 60;" xml:space="preserve">
<g>
	<g>
		<g>
			<path d="M49.4,21L38,9.6c-1.1-1.1-3-0.5-3.2,1.1l-2,13.4c-0.2,1.3,0.9,2.3,2.1,2.1l13.4-2C49.9,24,50.5,22.1,49.4,21z"/>
		</g>
		<path d="M48.9,4.5L37.5,15.9c-1.6,1.6-1.6,4.1,0,5.7l0,0c1.6,1.6,4.1,1.6,5.7,0l11.4-11.4c1.6-1.6,1.6-4.1,0-5.7l0,0
			C53,2.9,50.5,2.9,48.9,4.5z"/>
	</g>
	<g>
		<g>
			<path d="M20,9.6L8.6,21c-1.1,1.1-0.5,3,1.1,3.2l13.4,2c1.3,0.2,2.3-0.9,2.1-2.1l-2-13.4C23,9.1,21.1,8.5,20,9.6z"/>
		</g>
		<path d="M4.5,11.1l11.4,11.4c1.6,1.6,4.1,1.6,5.7,0l0,0c1.6-1.6,1.6-4.1,0-5.7L10.2,5.4c-1.6-1.6-4.1-1.6-5.7,0l0,0
			C2.9,7,2.9,9.5,4.5,11.1z"/>
	</g>
	<g>
		<g>
			<path d="M38,50.4L49.4,39c1.1-1.1,0.5-3-1.1-3.2l-13.4-2c-1.3-0.2-2.3,0.9-2.1,2.1l2,13.4C35,50.9,36.9,51.5,38,50.4z"/>
		</g>
		<path d="M54.5,48.9L43.1,37.5c-1.6-1.6-4.1-1.6-5.7,0l0,0c-1.6,1.6-1.6,4.1,0,5.7l11.4,11.4c1.6,1.6,4.1,1.6,5.7,0l0,0
			C56.1,53,56.1,50.5,54.5,48.9z"/>
	</g>
	<g>
		<g>
			<path d="M8.6,39L20,50.4c1.1,1.1,3,0.5,3.2-1.1l2-13.4c0.2-1.3-0.9-2.3-2.1-2.1l-13.4,2C8.1,36,7.5,37.9,8.6,39z"/>
		</g>
		<path d="M10.1,55.5l11.4-11.4c1.6-1.6,1.6-4.1,0-5.7l0,0c-1.6-1.6-4.1-1.6-5.7,0L4.4,49.8c-1.6,1.6-1.6,4.1,0,5.7l0,0
			C6,57.1,8.5,57.1,10.1,55.5z"/>
	</g>
</g>
</svg>
