<?xml version="1.0" encoding="utf-8"?>
<!-- Generator: Adobe Illustrator 24.2.1, SVG Export Plug-In . SVG Version: 6.00 Build 0)  -->
<svg version="1.1" id="Layer_1" xmlns="http://www.w3.org/2000/svg" xmlns:xlink="http://www.w3.org/1999/xlink" x="0px" y="0px"
	 viewBox="0 0 60 60" style="enable-background:new 0 0 60 60;" xml:space="preserve">
<style type="text/css">
	.st0{fill-rule:evenodd;clip-rule:evenodd;}
</style>
<g>
	<polygon points="-242,-72.4 -239.1,-39.1 -225.1,-39.1 -222.1,-72.4 	"/>
	<rect x="-239.1" y="-32.1" width="14" height="12.6"/>
</g>
<path d="M-148-63.8v35.5c0,1.6,1.7,2.5,3,1.7l29.6-17.8c1.3-0.8,1.3-2.7,0-3.4L-145-65.5C-146.3-66.3-148-65.3-148-63.8z"/>
<path d="M-42.1-46c-5.2,0-9.4-4.2-9.4-9.4c0-5.2,4.2-9.4,9.4-9.4s9.4,4.2,9.4,9.4C-32.8-50.2-37-46-42.1-46 M-42.1-71
	c-8.6,0-15.6,7-15.6,15.6c0,15.6,15.6,34.4,15.6,34.4s15.6-18.8,15.6-34.4C-26.5-64-33.5-71-42.1-71"/>
<g>
	<path d="M-223.7,5.2c0.1,0.1,0.3,0.1,0.4,0.2c1.2,0.5,2,1.1,2.3,1.3l7.9,7.9c0.3,0.3,0.8,1.1,1.3,2.3c0.1,0.2,0.1,0.3,0.2,0.4
		h-12.2V5.2z"/>
	<polygon points="-211,55.3 -253.2,55.3 -253.2,4.7 -227.9,4.7 -227.9,21.6 -211,21.6 	"/>
</g>
<g>
	<path d="M-110.6,25.4h-6.1v-3.1h6.1V25.4z M-132,46.6c-7.5,0-13.6-6.1-13.6-13.6c0-7.5,6.1-13.6,13.6-13.6
		c7.5,0,13.6,6.1,13.6,13.6C-118.4,40.5-124.5,46.6-132,46.6 M-110.6,16.2h-10.7c-0.8-3.1-1.5-6.1-4.6-6.1h-12.2
		c-3.1,0-3.8,3.1-4.6,6.1h-10.7c-1.7,0-3.1,1.4-3.1,3.1v27.5c0,1.7,1.4,3.1,3.1,3.1h42.8c1.7,0,3.1-1.4,3.1-3.1V19.3
		C-107.5,17.6-108.9,16.2-110.6,16.2 M-141.9,33.1c0,5.5,4.5,9.9,9.9,9.9c5.5,0,9.9-4.5,9.9-9.9c0-5.5-4.5-9.9-9.9-9.9
		C-137.5,23.1-141.9,27.6-141.9,33.1"/>
</g>
<g>
	<path d="M-43.6,8c1.3-1.3,2.4-0.9,2.4,1v42c0,1.8-1.1,2.3-2.4,1l-12.2-12.2H-64V20.3h8.1L-43.6,8z M-36.1,41.6
		c-0.6,0-1.2-0.2-1.7-0.7c-1-1-1-2.5,0-3.4c4.1-4.1,4.1-10.8,0-14.9c-1-1-1-2.5,0-3.4c1-1,2.5-1,3.4,0c6,6,6,15.8,0,21.8
		C-34.9,41.4-35.5,41.6-36.1,41.6 M-27.5,46.2c-0.6,0-1.2-0.2-1.7-0.7c-1-1-1-2.5,0-3.4c6.6-6.6,6.6-17.4,0-24.1c-1-1-1-2.5,0-3.4
		c1-1,2.5-1,3.4,0c4.1,4.1,6.4,9.6,6.4,15.5s-2.3,11.3-6.4,15.5C-26.3,46-26.9,46.2-27.5,46.2"/>
</g>
<path d="M-225.3,129.2c-1.3-0.2-1.3-3.7-1.3-3.7s3.8-3.7,4.6-8.8c2.2,0,3.6-5.3,1.4-7.2c0.1-2,2.8-15.5-11.1-15.5
	s-11.2,13.6-11.1,15.5c-2.2,1.9-0.8,7.2,1.4,7.2c0.8,5,4.6,8.8,4.6,8.8s0,3.5-1.3,3.7c-4.1,0.7-19.6,7.5-19.6,15h26.1h26.1
	C-205.7,136.6-221.1,129.8-225.3,129.2"/>
<g>
	<path d="M-142.4,109.9h21.3v3h-21.3V109.9z M-142.4,128.1h21.3v3h-21.3V128.1z M-142.4,122h21.3v3h-21.3V122z M-142.4,116h21.3v3
		h-21.3V116z M-115,137.3h-33.5v-36.5h33.5V137.3z M-113.4,94.6H-150c-2.5,0-4.6,2.1-4.6,4.6v39.6c0,2.5,2.1,4.6,4.6,4.6h36.5
		c2.5,0,4.6-2.1,4.6-4.6V99.2C-108.9,96.7-110.9,94.6-113.4,94.6"/>
</g>
<path d="M-42.4,96.9c13,0,23.6,8.6,23.6,19.2c0,10.6-10.6,19.2-23.6,19.2c-1.2,0-2.5-0.1-3.7-0.2c-5.1,5.1-11.1,6-17,6.1v-1.2
	c3.2-1.5,5.9-4.4,5.9-7.6c0-0.4,0-0.9-0.1-1.3c-5.3-3.5-8.7-8.9-8.7-14.9C-66,105.5-55.4,96.9-42.4,96.9"/>
<path d="M-222.3,216.3c-2.9,2.9-2.9,5.7-5.7,5.7c-2.9,0-5.7-2.9-8.6-5.7c-2.9-2.9-5.7-5.7-5.7-8.6s2.9-2.9,5.7-5.7
	c2.9-2.9-5.7-11.4-8.6-11.4s-8.6,8.6-8.6,8.6c0,5.7,5.9,17.3,11.4,22.8c5.6,5.6,17.1,11.4,22.8,11.4c0,0,8.6-5.7,8.6-8.6
	S-219.4,213.4-222.3,216.3"/>
<g>
	<path d="M-154.5,225.5h6.7v3.4h-6.7V225.5z M-157.8,222.1v13.5h50.6v-13.5h-25.3H-157.8z M-137.6,208.6v-20.2h10.1v20.2h8.4
		l-13.5,13.5l-13.5-13.5H-137.6z"/>
</g>
<path id="Icon_ionic-ios-arrow-up_1_" d="M197.2,218l-19.6-19.8c-1.4-1.4-3.8-1.4-5.2,0c-1.4,1.4-1.4,3.8,0,5.2l0,0l22.2,22.4
	c1.4,1.4,3.6,1.4,5,0.1l22.4-22.4c1.4-1.4,1.4-3.8,0-5.2c-1.4-1.4-3.8-1.4-5.2,0L197.2,218z"/>
<path id="Icon_ionic-ios-arrow-up_4_" d="M107.2,206l19.6,19.8c1.4,1.4,3.8,1.4,5.2,0c1.4-1.4,1.4-3.8,0-5.2l0,0l-22.2-22.4
	c-1.4-1.4-3.6-1.4-5-0.1l-22.4,22.4c-1.4,1.4-1.4,3.8,0,5.2c1.4,1.4,3.8,1.4,5.2,0L107.2,206z"/>
<path id="Icon_ionic-ios-arrow-up_3_" d="M38.1,212l-19.8,19.6c-1.4,1.4-1.4,3.8,0,5.2c1.4,1.4,3.8,1.4,5.2,0l0,0l22.4-22.2
	c1.4-1.4,1.4-3.6,0.1-5l-22.4-22.4c-1.4-1.4-3.8-1.4-5.2,0c-1.4,1.4-1.4,3.8,0,5.2L38.1,212z"/>
<path id="Icon_ionic-ios-arrow-up_2_" d="M-50.8,212l19.8-19.6c1.4-1.4,1.4-3.8,0-5.2s-3.8-1.4-5.2,0l0,0l-22.4,22.2
	c-1.4,1.4-1.4,3.6-0.1,5l22.4,22.4c1.4,1.4,3.8,1.4,5.2,0c1.4-1.4,1.4-3.8,0-5.2L-50.8,212z"/>
<path d="M-22,297h-42c-2.8,0-5,2.2-5,5l0,0c0,2.8,2.2,5,5,5h42c2.8,0,5-2.2,5-5l0,0C-17,299.2-19.2,297-22,297z"/>
<g>
	<path d="M-324.6,292.9v18.2c0,1.1,0.9,2,2,2h1c1.1,0,2-0.9,2-2v-18.2c0-1.1-0.9-2-2-2h-1C-323.6,290.8-324.6,291.8-324.6,292.9z"/>
	<path d="M-313.6,292.9v18.2c0,1.1,0.9,2,2,2h1c1.1,0,2-0.9,2-2v-18.2c0-1.1-0.9-2-2-2h-1C-312.6,290.8-313.6,291.8-313.6,292.9z"/>
</g>
<path d="M48.4,313.3l-29.7-29.7c-2-2-5.1-2-7.1,0l0,0c-2,2-2,5.1,0,7.1l29.7,29.7c2,2,5.1,2,7.1,0l0,0
	C50.3,318.4,50.3,315.3,48.4,313.3z"/>
<path d="M41.3,283.6l-29.7,29.7c-2,2-2,5.1,0,7.1l0,0c2,2,5.1,2,7.1,0l29.7-29.7c2-2,2-5.1,0-7.1h0
	C46.4,281.7,43.3,281.7,41.3,283.6z"/>
<path d="M-111,297h-42c-2.8,0-5,2.2-5,5l0,0c0,2.8,2.2,5,5,5h42c2.8,0,5-2.2,5-5l0,0C-106,299.2-108.2,297-111,297z"/>
<path d="M-137,281v42c0,2.8,2.2,5,5,5h0c2.8,0,5-2.2,5-5v-42c0-2.8-2.2-5-5-5h0C-134.8,276-137,278.2-137,281z"/>
<g>
	<path d="M-339.3,279l8.2,9.3c0.8,1,2.3,0.7,2.6-0.4l2.9-10.8c0.3-1.1-0.7-2.3-1.9-2.1l-11.1,1.5C-339.7,276.6-340.2,278-339.3,279z
		"/>
</g>
<g>
	<path d="M-317,330.8c-15.9,0-28.8-12.9-28.8-28.8c0-8.8,4-17,10.9-22.5c1.3-1,3.2-0.8,4.2,0.5c1,1.3,0.8,3.2-0.5,4.2
		c-5.5,4.4-8.6,10.9-8.6,17.8c0,12.6,10.2,22.8,22.8,22.8c12.6,0,22.8-10.2,22.8-22.8s-10.2-22.8-22.8-22.8c-1.7,0-3-1.3-3-3
		s1.3-3,3-3c15.9,0,28.8,12.9,28.8,28.8S-301.1,330.8-317,330.8z"/>
</g>
<g>
	<g>
		<path d="M-239.1,292.6v19.5c0,0.9,1,1.4,1.7,1l16.3-9.8c0.7-0.4,0.7-1.5,0-2l-16.3-9.8C-238.1,291.2-239.1,291.7-239.1,292.6z"/>
	</g>
	<g>
		<path d="M-254.3,279l8.2,9.3c0.8,1,2.3,0.7,2.6-0.4l2.9-10.8c0.3-1.1-0.7-2.3-1.9-2.1l-11.1,1.5C-254.7,276.6-255.2,278-254.3,279
			z"/>
	</g>
	<g>
		<path d="M-232,330.9c-15.9,0-28.8-12.9-28.8-28.8c0-8.8,4-17,10.9-22.5c1.3-1,3.2-0.8,4.2,0.5c1,1.3,0.8,3.2-0.5,4.2
			c-5.5,4.4-8.6,10.9-8.6,17.8c0,12.6,10.2,22.8,22.8,22.8c12.6,0,22.8-10.2,22.8-22.8s-10.2-22.8-22.8-22.8c-1.7,0-3-1.3-3-3
			s1.3-3,3-3c15.9,0,28.8,12.9,28.8,28.8S-216.1,330.9-232,330.9z"/>
	</g>
</g>
<g>
	<g>
		<path d="M-145.1,392l25.9,0c1.7,0,2.7-2,1.5-3.3l-12.9-15.4c-0.8-1-2.3-1-3.1,0l-12.9,15.4C-147.8,390-146.8,392-145.1,392z"/>
	</g>
	<g>
		<path d="M-132,416c-15.4,0-28-12.6-28-28s12.6-28,28-28s28,12.6,28,28S-116.6,416-132,416z M-132,366c-12.1,0-22,9.9-22,22
			s9.9,22,22,22s22-9.9,22-22S-119.9,366-132,366z"/>
	</g>
	<g>
		<path d="M-128,385h-8c-1.1,0-2,0.9-2,2v14c0,1.1,0.9,2,2,2h8c1.1,0,2-0.9,2-2v-14C-126,385.9-126.9,385-128,385z"/>
	</g>
</g>
<g>
	<path d="M-303.6-23.8l-0.8,3.2c-2.4,0.9-4.3,1.6-5.7,2.1c-1.4,0.5-3.1,0.7-4.9,0.7c-2.9,0-5.1-0.7-6.7-2.1
		c-1.6-1.4-2.4-3.2-2.4-5.3c0-0.8,0.1-1.7,0.2-2.6c0.1-0.9,0.3-1.9,0.6-3l3-10.5c0.3-1,0.5-2,0.7-2.9c0.2-0.9,0.3-1.7,0.3-2.5
		c0-1.3-0.3-2.3-0.8-2.8c-0.6-0.5-1.6-0.8-3.2-0.8c-0.8,0-1.6,0.1-2.4,0.4c-0.8,0.2-1.5,0.5-2.1,0.7l0.8-3.2c1.9-0.8,3.8-1.5,5.6-2
		c1.8-0.6,3.5-0.8,5-0.8c2.9,0,5.1,0.7,6.6,2.1c1.5,1.4,2.3,3.2,2.3,5.4c0,0.5-0.1,1.3-0.2,2.4c-0.1,1.1-0.3,2.2-0.6,3.2l-3,10.5
		c-0.2,0.8-0.5,1.8-0.6,2.9c-0.2,1.1-0.3,1.9-0.3,2.4c0,1.4,0.3,2.3,0.9,2.8c0.6,0.5,1.7,0.8,3.2,0.8c0.7,0,1.5-0.1,2.4-0.4
		C-304.7-23.4-304.1-23.6-303.6-23.8z M-302.9-67.7c0,1.8-0.7,3.4-2.1,4.7c-1.4,1.3-3,1.9-5,1.9s-3.6-0.6-5-1.9
		c-1.4-1.3-2.1-2.8-2.1-4.7c0-1.8,0.7-3.4,2.1-4.7c1.4-1.3,3.1-1.9,5-1.9s3.6,0.6,5,1.9C-303.6-71.1-302.9-69.5-302.9-67.7z"/>
</g>
<g>
	<g>
		<g>
			<path d="M-297.6,379l-11.4-11.4c-1.1-1.1-3-0.5-3.2,1.1l-2,13.4c-0.2,1.3,0.9,2.3,2.1,2.1l13.4-2
				C-297.1,382-296.5,380.1-297.6,379z"/>
		</g>
		<path d="M-298.1,362.5l-11.4,11.4c-1.6,1.6-1.6,4.1,0,5.7l0,0c1.6,1.6,4.1,1.6,5.7,0l11.4-11.4c1.6-1.6,1.6-4.1,0-5.7l0,0
			C-294,360.9-296.5,360.9-298.1,362.5z"/>
	</g>
	<g>
		<g>
			<path d="M-327,367.6l-11.4,11.4c-1.1,1.1-0.5,3,1.1,3.2l13.4,2c1.3,0.2,2.3-0.9,2.1-2.1l-2-13.4
				C-324,367.1-325.9,366.5-327,367.6z"/>
		</g>
		<path d="M-342.5,369.1l11.4,11.4c1.6,1.6,4.1,1.6,5.7,0l0,0c1.6-1.6,1.6-4.1,0-5.7l-11.4-11.4c-1.6-1.6-4.1-1.6-5.7,0l0,0
			C-344.1,365-344.1,367.5-342.5,369.1z"/>
	</g>
	<g>
		<g>
			<path d="M-309,408.4l11.4-11.4c1.1-1.1,0.5-3-1.1-3.2l-13.4-2c-1.3-0.2-2.3,0.9-2.1,2.1l2,13.4C-312,408.9-310.1,409.5-309,408.4
				z"/>
		</g>
		<path d="M-292.5,406.9l-11.4-11.4c-1.6-1.6-4.1-1.6-5.7,0v0c-1.6,1.6-1.6,4.1,0,5.7l11.4,11.4c1.6,1.6,4.1,1.6,5.7,0l0,0
			C-290.9,411-290.9,408.5-292.5,406.9z"/>
	</g>
	<g>
		<g>
			<path d="M-338.4,397l11.4,11.4c1.1,1.1,3,0.5,3.2-1.1l2-13.4c0.2-1.3-0.9-2.3-2.1-2.1l-13.4,2C-338.9,394-339.5,395.9-338.4,397z
				"/>
		</g>
		<path d="M-336.9,413.5l11.4-11.4c1.6-1.6,1.6-4.1,0-5.7l0,0c-1.6-1.6-4.1-1.6-5.7,0l-11.4,11.4c-1.6,1.6-1.6,4.1,0,5.7l0,0
			C-341,415.1-338.5,415.1-336.9,413.5z"/>
	</g>
</g>
<g>
	<g>
		<path d="M-253.5,378.8l11.4-11.4c1.1-1.1,0.5-3-1.1-3.2l-13.4-2c-1.3-0.2-2.3,0.9-2.1,2.1l2,13.4
			C-256.4,379.3-254.6,379.9-253.5,378.8z"/>
	</g>
	<g>
		<path d="M-242.2,409.5l-11.4-11.4c-1.1-1.1-3-0.5-3.2,1.1l-2,13.4c-0.2,1.3,0.9,2.3,2.1,2.1l13.4-2
			C-241.7,412.4-241.1,410.6-242.2,409.5z"/>
	</g>
	<g>
		<path d="M-211.5,397.2l-11.4,11.4c-1.1,1.1-0.5,3,1.1,3.2l13.4,2c1.3,0.2,2.3-0.9,2.1-2.1l-2-13.4
			C-208.6,396.7-210.4,396.1-211.5,397.2z"/>
	</g>
	<g>
		<path d="M-222.8,366.5l11.4,11.4c1.1,1.1,3,0.5,3.2-1.1l2-13.4c0.2-1.3-0.9-2.3-2.1-2.1l-13.4,2
			C-223.3,363.6-223.9,365.4-222.8,366.5z"/>
	</g>
	<g>
		<path d="M-222.3,383l11.4-11.4c1.6-1.6,1.6-4.1,0-5.7l0,0c-1.6-1.6-4.1-1.6-5.7,0l-11.4,11.4c-1.6,1.6-1.6,4.1,0,5.7l0,0
			C-226.4,384.6-223.9,384.6-222.3,383z"/>
		<path d="M-238,377.3l-11.4-11.4c-1.6-1.6-4.1-1.6-5.7,0l0,0c-1.6,1.6-1.6,4.1,0,5.7l11.4,11.4c1.6,1.6,4.1,1.6,5.7,0l0,0
			C-236.4,381.4-236.4,378.9-238,377.3z"/>
		<path d="M-228,398.7l11.4,11.4c1.6,1.6,4.1,1.6,5.7,0l0,0c1.6-1.6,1.6-4.1,0-5.7l-11.4-11.4c-1.6-1.6-4.1-1.6-5.7,0l0,0
			C-229.6,394.6-229.6,397.1-228,398.7z"/>
		<path d="M-243.7,393l-11.4,11.4c-1.6,1.6-1.6,4.1,0,5.7l0,0c1.6,1.6,4.1,1.6,5.7,0l11.4-11.4c1.6-1.6,1.6-4.1,0-5.7l0,0
			C-239.6,391.4-242.1,391.4-243.7,393z"/>
	</g>
</g>
<g>
	<path d="M-51.7,393.7c-1-0.8-2.5-0.2-2.6,1.1l-0.3,4.1c-8.2-1.9-12.9-5.7-12.9-8.8c0-2.3,2.4-4.3,3.9-5.2c1.2-0.8,1.5-2.3,0.7-3.5
		c-0.8-1.2-2.3-1.5-3.5-0.7c-5.1,3.3-6.1,6.9-6.1,9.4c0,6.3,6.9,11.6,17.6,13.9l-0.3,4.3c-0.1,1.3,1.3,2.1,2.4,1.4l9.5-6.1
		c0.9-0.6,1-1.8,0.2-2.5L-51.7,393.7z"/>
	<path d="M-54.6,383.6c-0.4,0-0.8-0.1-1.2-0.2c-0.3-0.2-0.6-0.4-0.8-0.6c-0.2-0.3-0.4-0.6-0.5-1c-0.1-0.4-0.2-0.8-0.2-1.2h-2.9
		c0,0.9,0.1,1.7,0.4,2.3c0.3,0.7,0.6,1.3,1.1,1.7c0.5,0.5,1.1,0.8,1.8,1.1c0.7,0.2,1.5,0.4,2.3,0.4c0.7,0,1.4-0.1,2.1-0.3
		c0.7-0.2,1.3-0.5,1.8-1s0.9-0.9,1.2-1.6c0.3-0.6,0.5-1.3,0.5-2.1c0-0.9-0.2-1.6-0.7-2.2c-0.5-0.6-1.1-1-2-1.2v0
		c0.7-0.2,1.2-0.6,1.6-1.1s0.5-1.2,0.5-1.9c0-0.7-0.2-1.3-0.5-1.8c-0.3-0.5-0.7-1-1.2-1.3c-0.5-0.4-1-0.6-1.6-0.8s-1.2-0.3-1.8-0.3
		c-0.8,0-1.5,0.1-2.1,0.4c-0.6,0.3-1.2,0.6-1.6,1.1c-0.5,0.5-0.8,1-1.1,1.7c-0.3,0.6-0.4,1.4-0.4,2.1h2.9c0-0.8,0.2-1.4,0.6-1.9
		c0.4-0.5,1-0.8,1.8-0.8c0.6,0,1.1,0.2,1.5,0.5c0.4,0.3,0.7,0.8,0.7,1.5c0,0.4-0.1,0.8-0.3,1c-0.2,0.3-0.5,0.5-0.8,0.6
		c-0.3,0.1-0.7,0.2-1.1,0.2c-0.4,0-0.7,0-1.1,0v2.2c0.4,0,0.8,0,1.2,0s0.8,0.1,1.1,0.2c0.3,0.1,0.6,0.4,0.9,0.7
		c0.2,0.3,0.3,0.7,0.3,1.3c0,0.7-0.2,1.3-0.7,1.7S-53.9,383.6-54.6,383.6z"/>
	<path d="M-37.6,382.7c0.3-0.7,0.4-1.4,0.4-2.2c0-0.6-0.1-1.2-0.3-1.8s-0.5-1.1-0.9-1.6c-0.4-0.5-1-0.9-1.6-1.1
		c-0.6-0.3-1.3-0.4-1.9-0.4c-0.7,0-1.4,0.1-1.9,0.4c-0.6,0.3-1.1,0.7-1.5,1.3l0,0c0-0.4,0.1-0.9,0.2-1.4c0.1-0.5,0.3-1,0.5-1.5
		c0.2-0.5,0.5-0.9,0.9-1.2c0.4-0.3,0.8-0.5,1.4-0.5c0.5,0,1,0.2,1.3,0.6c0.4,0.4,0.6,0.8,0.7,1.3h2.9c-0.1-0.7-0.3-1.3-0.5-1.8
		c-0.3-0.5-0.6-1-1.1-1.3c-0.4-0.4-0.9-0.6-1.5-0.8c-0.6-0.2-1.2-0.3-1.8-0.3c-1.1,0-2,0.2-2.8,0.7c-0.8,0.5-1.4,1.1-1.8,1.9
		s-0.8,1.6-1,2.5c-0.2,0.9-0.3,1.9-0.3,2.8c0,1,0.1,1.9,0.3,2.8c0.2,0.9,0.5,1.8,0.9,2.5c0.4,0.7,1,1.3,1.8,1.8
		c0.8,0.5,1.7,0.7,2.8,0.7c0.8,0,1.5-0.1,2.2-0.4s1.2-0.7,1.7-1.2C-38.2,384-37.8,383.4-37.6,382.7z M-40.4,381.8
		c-0.1,0.3-0.3,0.6-0.5,0.9c-0.2,0.3-0.4,0.5-0.7,0.6c-0.3,0.2-0.6,0.2-1,0.2c-0.4,0-0.7-0.1-1-0.2c-0.3-0.2-0.6-0.4-0.8-0.6
		c-0.2-0.3-0.4-0.6-0.5-0.9c-0.1-0.3-0.2-0.7-0.2-1c0-0.4,0-0.7,0.2-1.1c0.1-0.3,0.3-0.6,0.5-0.9c0.2-0.3,0.5-0.5,0.8-0.6
		c0.3-0.2,0.7-0.2,1.1-0.2c0.4,0,0.7,0.1,1,0.2s0.5,0.4,0.7,0.6c0.2,0.3,0.3,0.6,0.4,0.9c0.1,0.3,0.1,0.7,0.1,1
		C-40.3,381.1-40.3,381.5-40.4,381.8z"/>
	<path d="M-34.9,384.4c0.5,0.6,1.1,1,1.8,1.3c0.7,0.3,1.4,0.4,2.1,0.4c0.8,0,1.5-0.1,2.2-0.4c0.7-0.3,1.3-0.7,1.8-1.3
		c0.5-0.6,0.9-1.4,1.2-2.4c0.3-1,0.4-2.3,0.4-3.8c0-1.5-0.1-2.7-0.4-3.7c-0.3-1-0.7-1.8-1.2-2.4s-1.1-1-1.8-1.3
		c-0.7-0.3-1.4-0.4-2.2-0.4c-0.8,0-1.5,0.1-2.1,0.4c-0.7,0.3-1.3,0.7-1.8,1.3c-0.5,0.6-0.9,1.4-1.2,2.4c-0.3,1-0.4,2.2-0.4,3.7
		c0,1.5,0.1,2.8,0.4,3.8C-35.8,383-35.4,383.8-34.9,384.4z M-33.4,377.2c0-0.4,0-0.7,0.1-1.1c0-0.4,0.1-0.8,0.2-1.2
		c0.1-0.4,0.2-0.7,0.4-1c0.2-0.3,0.4-0.5,0.7-0.7c0.3-0.2,0.6-0.3,1.1-0.3s0.8,0.1,1.1,0.3c0.3,0.2,0.5,0.4,0.7,0.7
		c0.2,0.3,0.3,0.6,0.4,1c0.1,0.4,0.2,0.8,0.2,1.2c0,0.4,0.1,0.8,0.1,1.1c0,0.4,0,0.7,0,0.9c0,0.4,0,1,0,1.6c0,0.6-0.1,1.2-0.3,1.8
		s-0.4,1.1-0.7,1.5c-0.3,0.4-0.8,0.6-1.5,0.6c-0.6,0-1.1-0.2-1.4-0.6s-0.6-0.9-0.7-1.5c-0.2-0.6-0.2-1.2-0.3-1.8c0-0.6,0-1.1,0-1.6
		C-33.4,377.9-33.4,377.6-33.4,377.2z"/>
	<path d="M-19.6,380.6c-1.2-0.8-2.7-0.4-3.5,0.7s-0.4,2.7,0.7,3.5c1.4,0.9,3.9,2.9,3.9,5.2c0,3.9-7.2,8.7-19.3,9.9
		c-1.4,0.1-2.4,1.4-2.3,2.7c0.1,1.3,1.2,2.3,2.5,2.3c0.1,0,0.2,0,0.2,0c14-1.3,23.8-7.4,23.8-14.8
		C-13.5,387.5-14.6,383.9-19.6,380.6z"/>
</g>
<g>
	<path class="st0" d="M44.7,117.3c0-0.3,0-0.4,0-0.8l0-0.5c0,0.1,0-0.4,0-0.4l0-0.2l-3.1,0.2v0c0,0.2,0,0.3,0,0.5
		c0,0,0.1,1.8,0.1,1.8l0,0.1l0,0l0,0.1v0.1v0v0.1v0v0.1v0l0,0.1l0,0l0,0.1v0v0.1v0v0.2v0v0.2c0,2.3-0.2,4.8-0.5,7.2
		c1.1-0.3,2.2-0.7,3.3-1.1c0.2-2,0.4-4,0.4-6.1c0-0.3,0-0.6,0-1L44.7,117.3L44.7,117.3z M13.2,130.6l-8.5-2.5l1.7-1.8
		c-2.1-2-3.7-4.5-3.7-7.5c0-2.3,0.9-4.3,2.3-6.1c2.1-2.6,5.1-4.4,8.4-5.8c-0.3,1.2-0.5,2.5-0.7,3.7c-1.5,0.7-2.8,1.6-4,2.6
		c-1.4,1.3-2.6,2.8-2.9,4.7c-0.2,1.3,0.1,2.5,0.7,3.6c0.5,0.9,1.2,1.8,2,2.5l1.7-1.8L13.2,130.6L13.2,130.6z M23.9,104.3
		c2.1-0.3,4.2-0.4,6.1-0.4c4.5,0,9,0.6,13.2,1.8c5.9,1.7,14,5.9,14,13c0,2.3-0.9,4.3-2.3,6.1c-5.4,6.6-16.9,8.7-25,8.7
		c-2.2,0-4.6-0.1-6.8-0.5l0.4-3c2.1,0.3,4.3,0.4,6.4,0.4c6.8,0,15.9-1.6,21.2-6.2c1.6-1.4,2.9-3.3,3-5.5c0-3.7-3.6-6.3-6.5-7.9
		c-5.3-2.8-11.8-3.8-17.7-3.8c-2.2,0-4.7,0.2-7.2,0.6C23.1,106.5,23.4,105.4,23.9,104.3L23.9,104.3z M38.1,136
		c1.2-0.2,2.5-0.4,3.7-0.7c-2.1,5.2-6,10.7-11.8,10.7c-2.3,0-4.3-0.9-6.1-2.3c-6.6-5.4-8.7-16.9-8.7-25c0-4.5,0.6-9,1.8-13.2
		c1.7-5.9,5.9-14,13-14c3.7,0,6.6,2.3,8.7,5.1l2-1.5l1.5,8.8l-7.9-4l2-1.5c-1.5-2-3.7-3.9-6.3-3.9c-3.7,0-6.3,3.6-7.9,6.5
		c-2.8,5.3-3.8,11.8-3.8,17.7c0,6.8,1.6,15.9,6.2,21.2c1.4,1.6,3.3,2.9,5.5,3c3.7,0,6.3-3.6,7.9-6.5L38.1,136z"/>
</g>
<g>
	<g>
		<path d="M138,97.6l-5.5-4.8c-0.3-0.3-0.8-0.4-1.2-0.2c-0.4,0.2-0.7,0.6-0.7,1.1v1.9l-10.9,1.7c-0.6,0.1-1.1,0.6-1.1,1.3
			c0,0.6,0.4,1.2,1.1,1.3l10.9,1.7v1.9c0,0.4,0.3,0.8,0.7,1.1c0.4,0.2,0.9,0.1,1.2-0.2l5.5-4.8c0.2-0.2,0.4-0.5,0.4-0.8
			C138.4,98.1,138.2,97.8,138,97.6z"/>
	</g>
	<g>
		<path d="M105.1,98.5c0-0.6-0.4-1.2-1.1-1.3l-10.9-1.7v-1.9c0-0.4-0.3-0.8-0.7-1.1c-0.4-0.2-0.9-0.1-1.2,0.2l-5.5,4.8
			c-0.2,0.2-0.4,0.5-0.4,0.8c0,0.3,0.2,0.6,0.4,0.8l5.5,4.8c0.3,0.3,0.8,0.4,1.2,0.2c0.4-0.2,0.7-0.6,0.7-1.1v-1.9l10.9-1.7
			C104.6,99.6,105.1,99.1,105.1,98.5z"/>
	</g>
	<g>
		<path d="M131.8,115.3c-1.3-0.2-2.5,0.3-3.3,1.2c-0.4-1.6-1.9-2.9-3.7-2.9c-1.1,0-2.2,0.5-2.9,1.3c-0.5-1.5-1.9-2.6-3.6-2.6
			c-1,0-2,0.4-2.6,1.1V99.2c0-1.9-1.3-3.7-3.3-3.9c-2.3-0.3-4.3,1.5-4.3,3.8v25.4c0,0.5-0.7,0.7-1,0.3l-4.4-6.6
			c-1-1.6-3.3-1.9-5-0.7c-1.7,1.1-2.3,3.4-1.3,4.9c0,0,12.2,18.5,12.4,18.7c2.2,3.1,5.8,5,9.7,5h4.4c6.6,0,12-5.3,12-11.8
			c0-0.1,0-0.2,0-0.3v-14.6C135.1,117.2,133.7,115.5,131.8,115.3z"/>
	</g>
</g>
<g>
	<path d="M24.5-17.4c-1.4,0-2.5-1.1-2.5-2.5v-51.2c0-1.4,1.1-2.5,2.5-2.5s2.5,1.1,2.5,2.5v51.2C27-18.5,25.9-17.4,24.5-17.4z"/>
</g>
<g>
	<g>
		<polygon points="27,-61 22,-61 22,-62.5 20.5,-62.5 20.5,-67.5 27,-67.5 		"/>
	</g>
	<g>
		<path d="M16.3-24.5H9.7c-0.8,0-1.6-0.1-2.3-0.3l1.4-4.8c0.3,0.1,0.6,0.1,0.9,0.1h6.6V-24.5z M2.8-28.3c-0.8-1.3-1.3-2.8-1.3-4.4
			v-5h5v5c0,0.6,0.2,1.2,0.5,1.7L2.8-28.3z M6.5-41.9h-5v-8.3h5V-41.9z M6.5-54.3h-5v-5c0-1.6,0.4-3.1,1.3-4.4L7-61
			c-0.3,0.5-0.5,1.1-0.5,1.7V-54.3z M8.8-62.4l-1.4-4.8c0.7-0.2,1.5-0.3,2.3-0.3h6.7v5H9.7C9.4-62.5,9.1-62.5,8.8-62.4z"/>
	</g>
	<g>
		<polygon points="27,-24.5 20.5,-24.5 20.5,-29.5 22,-29.5 22,-31 27,-31 		"/>
	</g>
	<g>
		<path d="M27-35.3h-5v-8.6h5V-35.3z M27-48.1h-5v-8.6h5V-48.1z"/>
	</g>
</g>
<g>
	<path d="M50.3-24.5H22v-43h28.3c4.5,0,8.2,3.7,8.2,8.2v26.6C58.5-28.2,54.8-24.5,50.3-24.5z M27-29.5h23.3c1.8,0,3.2-1.4,3.2-3.2
		v-26.6c0-1.8-1.4-3.2-3.2-3.2H27V-29.5z"/>
</g>
<g>
	<path d="M118.3-70.5H80.2c-4.5,0-8.2,3.7-8.2,8.2v22.6c0,4.5,3.7,8.2,8.2,8.2h14.1l-0.5-5H80.2c-1.8,0-3.2-1.4-3.2-3.2v-22.6
		c0-1.8,1.4-3.2,3.2-3.2h38.1c1.8,0,3.2,1.4,3.2,3.2v22.6c0,1.8-1.4,3.2-3.2,3.2h-0.5c0.4,0.8,0.6,1.8,0.4,2.7
		c-0.2,1-0.8,1.8-1.6,2.3h1.7c4.5,0,8.2-3.7,8.2-8.2v-22.6C126.5-66.8,122.8-70.5,118.3-70.5z"/>
	<path d="M107.8-31.5c-0.2-0.5,0.1-1,0.6-1.1c2.1-0.4,4.1-0.8,6.2-1.2c0.7-0.1,0.9-1.1,0.3-1.5c-0.5-0.4-1-0.8-1.6-1.2H96.7l0.5,5
		H107.8z"/>
</g>
<path d="M103.9-30c0.3,0,0.6,0.1,0.7,0.4c1.8,3.2,3.6,6.4,5.4,9.5c0.2,0.3,0.4,0.4,0.7,0.4c0.1,0,0.3,0,0.4-0.1
	c0.6-0.4,1.3-0.8,1.9-1.1c0.4-0.2,0.5-0.7,0.3-1.1c-1.9-3.2-3.7-6.3-5.5-9.4c-0.3-0.5,0-1.1,0.6-1.2c2.1-0.4,4.1-0.8,6.2-1.2
	c0.7-0.1,0.9-1.1,0.3-1.5c-6.1-4.6-12.1-9.1-18.1-13.6c-0.2-0.1-0.3-0.2-0.5-0.2c-0.5,0-0.9,0.4-0.8,0.9l2.4,22.6
	c0.1,0.5,0.4,0.7,0.8,0.7c0.2,0,0.5-0.1,0.6-0.3c1.3-1.5,2.6-3,3.9-4.6C103.4-29.9,103.6-30,103.9-30z"/>
<g>
	<g>
		<path d="M25.5,48.4c-12.6,0-22.9-10.3-22.9-22.9S12.9,2.6,25.5,2.6s22.9,10.3,22.9,22.9S38.2,48.4,25.5,48.4z M25.5,9.2
			c-9,0-16.3,7.3-16.3,16.3s7.3,16.3,16.3,16.3s16.3-7.3,16.3-16.3S34.5,9.2,25.5,9.2z"/>
	</g>
	<g>
		<path d="M52.7,57.4c-1.2,0-2.4-0.5-3.3-1.4L38.5,45.2c-1.8-1.8-1.8-4.8,0-6.7c1.8-1.8,4.8-1.8,6.7,0L56,49.3
			c1.8,1.8,1.8,4.8,0,6.7C55.1,57,53.9,57.4,52.7,57.4z"/>
	</g>
	<g>
		<rect x="16.3" y="22.9" width="18.9" height="5.7"/>
	</g>
	<g>
		<rect x="22.9" y="16.3" width="5.7" height="18.9"/>
	</g>
</g>
</svg>
